<?xml version="1.0" encoding="UTF-8" standalone="no"?>
<svg
   xmlns:dc="http://purl.org/dc/elements/1.1/"
   xmlns:cc="http://creativecommons.org/ns#"
   xmlns:rdf="http://www.w3.org/1999/02/22-rdf-syntax-ns#"
   xmlns:svg="http://www.w3.org/2000/svg"
   xmlns="http://www.w3.org/2000/svg"
   xmlns:sodipodi="http://sodipodi.sourceforge.net/DTD/sodipodi-0.dtd"
   xmlns:inkscape="http://www.inkscape.org/namespaces/inkscape"
   version="1"
   viewBox="0 0 16 16"
   enable-background="new 0 0 48 48"
   id="svg12"
   sodipodi:docname="denoise.svg"
   inkscape:version="0.92.4 (5da689c313, 2019-01-14)"
   width="16"
   height="16">
  <metadata
     id="metadata18">
    <rdf:RDF>
      <cc:Work
         rdf:about="">
        <dc:format>image/svg+xml</dc:format>
        <dc:type
           rdf:resource="http://purl.org/dc/dcmitype/StillImage" />
        <dc:title />
      </cc:Work>
    </rdf:RDF>
  </metadata>
  <defs
     id="defs16">
    <inkscape:perspective
       sodipodi:type="inkscape:persp3d"
       inkscape:vp_x="2.1085087 : -0.01579032 : 1"
       inkscape:vp_y="-9.1717358 : 40.677048 : 0"
       inkscape:vp_z="2.439686 : 0.66241427 : 1"
       inkscape:persp3d-origin="2.3474712 : -0.0021044275 : 1"
       id="perspective4515" />
  </defs>
  <sodipodi:namedview
     pagecolor="#ffffff"
     bordercolor="#666666"
     borderopacity="1"
     objecttolerance="10"
     gridtolerance="10"
     guidetolerance="10"
     inkscape:pageopacity="0"
     inkscape:pageshadow="2"
     inkscape:window-width="1877"
     inkscape:window-height="904"
     id="namedview14"
     showgrid="true"
     inkscape:zoom="22.84"
     inkscape:cx="-12.702726"
     inkscape:cy="7.5401166"
     inkscape:window-x="24"
     inkscape:window-y="41"
     inkscape:window-maximized="0"
     inkscape:current-layer="svg12">
    <inkscape:grid
       type="xygrid"
       id="grid4510" />
  </sodipodi:namedview>
  <path
     id="path6948"
     d="m 3.625,8.7142855 c -0.401042,0 -0.729167,0.3214288 -0.729167,0.714286 0,0.3928569 0.328125,0.7142855 0.729167,0.7142855 0.401041,0 0.729166,-0.3214286 0.729166,-0.7142855 0,-0.3928572 -0.328125,-0.714286 -0.729166,-0.714286 z m 0,2.8571425 c -0.401042,0 -0.729167,0.321429 -0.729167,0.714286 C 2.895833,12.678571 3.223958,13 3.625,13 c 0.401041,0 0.729166,-0.321429 0.729166,-0.714286 0,-0.392857 -0.328125,-0.714286 -0.729166,-0.714286 z m 0,-5.7142855 c -0.401042,0 -0.729167,0.3214288 -0.729167,0.7142857 0,0.3928572 0.328125,0.714286 0.729167,0.714286 0.401041,0 0.729166,-0.3214288 0.729166,-0.714286 0,-0.3928569 -0.328125,-0.7142857 -0.729166,-0.7142857 z M 1.4375,6.2142853 c -0.200521,0 -0.364584,0.1607144 -0.364584,0.3571429 0,0.1964287 0.164063,0.3571431 0.364584,0.3571431 0.200521,0 0.364583,-0.1607144 0.364583,-0.3571431 0,-0.1964285 -0.164062,-0.3571429 -0.364583,-0.3571429 z M 3.625,2.9999995 c -0.401042,0 -0.729167,0.321428 -0.729167,0.714286 0,0.392857 0.328125,0.714286 0.729167,0.714286 0.401041,0 0.729166,-0.321429 0.729166,-0.714286 0,-0.392858 -0.328125,-0.714286 -0.729166,-0.714286 z m 10.937501,3.9285718 c 0.200521,0 0.364583,-0.1607144 0.364583,-0.3571431 0,-0.1964285 -0.164062,-0.3571429 -0.364583,-0.3571429 -0.200521,0 -0.364584,0.1607144 -0.364584,0.3571429 0,0.1964287 0.164063,0.3571431 0.364584,0.3571431 z M 9.458334,4.4285715 c 0.401041,0 0.729166,-0.321429 0.729166,-0.714286 0,-0.392858 -0.328125,-0.714286 -0.729166,-0.714286 -0.401042,0 -0.729167,0.321428 -0.729167,0.714286 0,0.392857 0.328125,0.714286 0.729167,0.714286 z m 0,-2.500001 c 0.20052,0 0.364583,-0.160714 0.364583,-0.357142 0,-0.196429 -0.164063,-0.357143 -0.364583,-0.357143 -0.200521,0 -0.364584,0.160714 -0.364584,0.357143 0,0.196428 0.164063,0.357142 0.364584,0.357142 z M 1.4375,9.0714284 c -0.200521,0 -0.364584,0.1607143 -0.364584,0.3571431 0,0.1964285 0.164063,0.3571428 0.364584,0.3571428 0.200521,0 0.364583,-0.1607143 0.364583,-0.3571428 0,-0.1964288 -0.164062,-0.3571431 -0.364583,-0.3571431 z m 5.104167,5.0000006 c -0.200521,0 -0.364584,0.160714 -0.364584,0.357143 0,0.196429 0.164063,0.357143 0.364584,0.357143 0.200521,0 0.364583,-0.160714 0.364583,-0.357143 0,-0.196428 -0.164062,-0.357143 -0.364583,-0.357143 z m 0,-12.1428585 c 0.200521,0 0.364583,-0.160714 0.364583,-0.357142 0,-0.196429 -0.164062,-0.357143 -0.364583,-0.357143 -0.200521,0 -0.364584,0.160714 -0.364584,0.357143 0,0.196428 0.164063,0.357142 0.364584,0.357142 z m 0,2.500001 c 0.401041,0 0.729166,-0.321429 0.729166,-0.714286 0,-0.392858 -0.328125,-0.714286 -0.729166,-0.714286 -0.401042,0 -0.729167,0.321428 -0.729167,0.714286 0,0.392857 0.328125,0.714286 0.729167,0.714286 z m 0,3.9285712 c -0.605209,0 -1.093751,0.4785716 -1.093751,1.0714288 0,0.5928565 0.488542,1.0714285 1.093751,1.0714285 0.605208,0 1.09375,-0.478572 1.09375,-1.0714285 0,-0.5928572 -0.488542,-1.0714288 -1.09375,-1.0714288 z M 12.375,8.7142855 c -0.401041,0 -0.729166,0.3214288 -0.729166,0.714286 0,0.3928569 0.328125,0.7142855 0.729166,0.7142855 0.401042,0 0.729167,-0.3214286 0.729167,-0.7142855 0,-0.3928572 -0.328125,-0.714286 -0.729167,-0.714286 z m 0,2.8571425 c -0.401041,0 -0.729166,0.321429 -0.729166,0.714286 0,0.392857 0.328125,0.714286 0.729166,0.714286 0.401042,0 0.729167,-0.321429 0.729167,-0.714286 0,-0.392857 -0.328125,-0.714286 -0.729167,-0.714286 z m 0,-5.7142855 c -0.401041,0 -0.729166,0.3214288 -0.729166,0.7142857 0,0.3928572 0.328125,0.714286 0.729166,0.714286 0.401042,0 0.729167,-0.3214288 0.729167,-0.714286 0,-0.3928569 -0.328125,-0.7142857 -0.729167,-0.7142857 z m 0,-2.857143 c -0.401041,0 -0.729166,0.321428 -0.729166,0.714286 0,0.392857 0.328125,0.714286 0.729166,0.714286 0.401042,0 0.729167,-0.321429 0.729167,-0.714286 0,-0.392858 -0.328125,-0.714286 -0.729167,-0.714286 z m 2.187501,6.0714289 c -0.200521,0 -0.364584,0.1607143 -0.364584,0.3571431 0,0.1964285 0.164063,0.3571428 0.364584,0.3571428 0.200521,0 0.364583,-0.1607143 0.364583,-0.3571428 0,-0.1964288 -0.164062,-0.3571431 -0.364583,-0.3571431 z M 9.458334,11.571428 c -0.401042,0 -0.729167,0.321429 -0.729167,0.714286 C 8.729167,12.678571 9.057292,13 9.458334,13 9.859375,13 10.1875,12.678571 10.1875,12.285714 c 0,-0.392857 -0.328125,-0.714286 -0.729166,-0.714286 z m 0,2.5 c -0.200521,0 -0.364584,0.160715 -0.364584,0.357143 0,0.196429 0.164063,0.357143 0.364584,0.357143 0.20052,0 0.364583,-0.160714 0.364583,-0.357143 0,-0.196428 -0.164063,-0.357143 -0.364583,-0.357143 z M 6.541667,5.4999995 c -0.605209,0 -1.093751,0.478572 -1.093751,1.0714287 0,0.5928572 0.488542,1.0714288 1.093751,1.0714288 0.605208,0 1.09375,-0.4785716 1.09375,-1.0714288 0,-0.5928567 -0.488542,-1.0714287 -1.09375,-1.0714287 z m 0,6.0714285 c -0.401042,0 -0.729167,0.321429 -0.729167,0.714286 C 5.8125,12.678571 6.140625,13 6.541667,13 c 0.401041,0 0.729166,-0.321429 0.729166,-0.714286 0,-0.392857 -0.328125,-0.714286 -0.729166,-0.714286 z M 9.458334,8.3571427 c -0.605209,0 -1.09375,0.4785716 -1.09375,1.0714288 0,0.5928565 0.488541,1.0714285 1.09375,1.0714285 0.605208,0 1.09375,-0.478572 1.09375,-1.0714285 0,-0.5928572 -0.488542,-1.0714288 -1.09375,-1.0714288 z m 0,-2.8571432 c -0.605209,0 -1.09375,0.478572 -1.09375,1.0714287 0,0.5928572 0.488541,1.0714288 1.09375,1.0714288 0.605208,0 1.09375,-0.4785716 1.09375,-1.0714288 0,-0.5928567 -0.488542,-1.0714287 -1.09375,-1.0714287 z"
     inkscape:connector-curvature="0"
     style="fill:#dfdfdf;fill-opacity:1;stroke-width:0.36084393" />
</svg>
