<?xml version="1.0" encoding="UTF-8" standalone="no"?>
<svg
   xmlns:dc="http://purl.org/dc/elements/1.1/"
   xmlns:cc="http://creativecommons.org/ns#"
   xmlns:rdf="http://www.w3.org/1999/02/22-rdf-syntax-ns#"
   xmlns:svg="http://www.w3.org/2000/svg"
   xmlns="http://www.w3.org/2000/svg"
   xmlns:sodipodi="http://sodipodi.sourceforge.net/DTD/sodipodi-0.dtd"
   xmlns:inkscape="http://www.inkscape.org/namespaces/inkscape"
   version="1"
   viewBox="0 0 16 16"
   enable-background="new 0 0 48 48"
   id="svg12"
   sodipodi:docname="player-volume.svg"
   inkscape:version="0.92.4 (5da689c313, 2019-01-14)"
   width="16"
   height="16">
  <metadata
     id="metadata18">
    <rdf:RDF>
      <cc:Work
         rdf:about="">
        <dc:format>image/svg+xml</dc:format>
        <dc:type
           rdf:resource="http://purl.org/dc/dcmitype/StillImage" />
        <dc:title />
      </cc:Work>
    </rdf:RDF>
  </metadata>
  <defs
     id="defs16">
    <inkscape:perspective
       sodipodi:type="inkscape:persp3d"
       inkscape:vp_x="2.1085087 : -0.01579032 : 1"
       inkscape:vp_y="-9.1717358 : 40.677048 : 0"
       inkscape:vp_z="2.439686 : 0.66241427 : 1"
       inkscape:persp3d-origin="2.3474712 : -0.0021044275 : 1"
       id="perspective4515" />
  </defs>
  <sodipodi:namedview
     pagecolor="#ffffff"
     bordercolor="#666666"
     borderopacity="1"
     objecttolerance="10"
     gridtolerance="10"
     guidetolerance="10"
     inkscape:pageopacity="0"
     inkscape:pageshadow="2"
     inkscape:window-width="822"
     inkscape:window-height="808"
     id="namedview14"
     showgrid="true"
     inkscape:zoom="22.84"
     inkscape:cx="7.2764886"
     inkscape:cy="4.9131467"
     inkscape:window-x="1079"
     inkscape:window-y="137"
     inkscape:window-maximized="0"
     inkscape:current-layer="svg12">
    <inkscape:grid
       type="xygrid"
       id="grid4510" />
  </sodipodi:namedview>
  <rect
     style="display:none;opacity:1;fill:#555753;fill-opacity:1;fill-rule:nonzero;stroke:none;stroke-width:1.01552558;stroke-linecap:square;stroke-linejoin:round;stroke-miterlimit:4;stroke-dasharray:none;stroke-dashoffset:0;stroke-opacity:1;paint-order:stroke fill markers"
     id="rect6013"
     width="36.7374"
     height="6.4986739"
     x="5.3050394"
     y="-4.0742702"
     ry="2.2546401" />
  <rect
     ry="2.2546401"
     y="5.9257278"
     x="5.3050394"
     height="6.4986739"
     width="36.7374"
     id="rect6015"
     style="display:none;opacity:1;fill:#555753;fill-opacity:1;fill-rule:nonzero;stroke:none;stroke-width:1.01552558;stroke-linecap:square;stroke-linejoin:round;stroke-miterlimit:4;stroke-dasharray:none;stroke-dashoffset:0;stroke-opacity:1;paint-order:stroke fill markers" />
  <rect
     style="display:none;opacity:1;fill:#555753;fill-opacity:1;fill-rule:nonzero;stroke:none;stroke-width:0.90502864;stroke-linecap:square;stroke-linejoin:round;stroke-miterlimit:4;stroke-dasharray:none;stroke-dashoffset:0;stroke-opacity:1;paint-order:stroke fill markers"
     id="rect6009"
     width="29.177719"
     height="6.4986739"
     x="5.3050394"
     y="-24.07427"
     ry="2.2546401" />
  <rect
     ry="2.2546401"
     y="-14.07427"
     x="5.3050394"
     height="6.4986739"
     width="36.7374"
     id="rect6011"
     style="display:none;opacity:1;fill:#555753;fill-opacity:1;fill-rule:nonzero;stroke:none;stroke-width:1.01552558;stroke-linecap:square;stroke-linejoin:round;stroke-miterlimit:4;stroke-dasharray:none;stroke-dashoffset:0;stroke-opacity:1;paint-order:stroke fill markers" />
  <path
     style="fill:#4682b4;fill-opacity:1;stroke-width:0.34600991"
     d="m 10.095152,1.660351 v 0.5943849 a 4.7290874,5.3580135 0 0 1 4.378121,5.3377839 4.7290874,5.3580135 0 0 1 -4.378121,5.3432812 v 0.601256 A 5.25619,5.9552166 0 0 0 15,7.601453 5.25619,5.9552166 0 0 0 10.095152,1.660351 Z m 0,2.0009824 v 0.3937369 a 3.1355687,3.5525716 0 0 1 2.902639,3.539511 3.1355687,3.5525716 0 0 1 -2.902639,3.5429467 v 0.398548 a 3.4850585,3.9485403 0 0 0 3.252181,-3.9359976 3.4850585,3.9485403 0 0 0 -3.252181,-3.938745 z m 0.646463,2.0209079 v 0.1917151 a 1.5263357,1.7293247 0 0 1 1.413198,1.7226864 1.5263357,1.7293247 0 0 1 -1.413198,1.7247467 V 9.5158534 A 1.6964606,1.9220748 0 0 0 12.324482,7.5993912 1.6964606,1.9220748 0 0 0 10.741615,5.6822413 Z m -0.661497,1.4897422 v 0.6335529 a 3.5671185,4.0415136 0 0 0 0.01503,-0.3105919 3.5671185,4.0415136 0 0 0 -0.01503,-0.322961 z"
     id="path818"
     inkscape:connector-curvature="0" />
  <path
     style="fill:#4682b4;fill-opacity:1;stroke-width:0.39143166"
     d="M 8.6912736,1.1525474 5.1318348,4.5759298 4.1973103,5.474035 H 1 v 5.05193 h 3.1973103 l 0.9345245,0.898105 3.5594388,3.423383 v -4.410131 a 4.565121,4.0415136 0 0 0 0.012364,-0.01168 V 4.570433 a 4.565121,4.0415136 0 0 0 -0.012372,-0.01099 z"
     id="path823"
     inkscape:connector-curvature="0" />
  <path
     style="fill:#000000;fill-opacity:1;stroke-width:0.39143166"
     d="M 8.6728339,4.570433 V 10.42564 A 4.565121,4.0415136 0 0 0 10.080118,7.8055364 V 7.1719835 A 4.565121,4.0415136 0 0 0 8.6728339,4.570433 Z"
     id="path833"
     inkscape:connector-curvature="0" />
</svg>
