<?xml version="1.0" encoding="UTF-8" standalone="no"?>
<svg
   version="1"
   viewBox="0 0 16 16"
   enable-background="new 0 0 48 48"
   id="svg12"
   sodipodi:docname="delpreset.svg"
   inkscape:version="1.2.2 (b0a8486541, 2022-12-01)"
   width="16"
   height="16"
   xmlns:inkscape="http://www.inkscape.org/namespaces/inkscape"
   xmlns:sodipodi="http://sodipodi.sourceforge.net/DTD/sodipodi-0.dtd"
   xmlns="http://www.w3.org/2000/svg"
   xmlns:svg="http://www.w3.org/2000/svg"
   xmlns:rdf="http://www.w3.org/1999/02/22-rdf-syntax-ns#"
   xmlns:cc="http://creativecommons.org/ns#"
   xmlns:dc="http://purl.org/dc/elements/1.1/">
  <metadata
     id="metadata18">
    <rdf:RDF>
      <cc:Work
         rdf:about="">
        <dc:format>image/svg+xml</dc:format>
        <dc:type
           rdf:resource="http://purl.org/dc/dcmitype/StillImage" />
        <dc:title />
      </cc:Work>
    </rdf:RDF>
  </metadata>
  <defs
     id="defs16">
    <inkscape:perspective
       sodipodi:type="inkscape:persp3d"
       inkscape:vp_x="2.1085087 : -0.01579032 : 1"
       inkscape:vp_y="-9.1717358 : 40.677048 : 0"
       inkscape:vp_z="2.439686 : 0.66241427 : 1"
       inkscape:persp3d-origin="2.3474712 : -0.0021044275 : 1"
       id="perspective4515" />
  </defs>
  <sodipodi:namedview
     pagecolor="#ffffff"
     bordercolor="#666666"
     borderopacity="1"
     objecttolerance="10"
     gridtolerance="10"
     guidetolerance="10"
     inkscape:pageopacity="0"
     inkscape:pageshadow="2"
     inkscape:window-width="1877"
     inkscape:window-height="904"
     id="namedview14"
     showgrid="true"
     inkscape:zoom="28.121614"
     inkscape:cx="-4.0893812"
     inkscape:cy="7.6631448"
     inkscape:window-x="35"
     inkscape:window-y="49"
     inkscape:window-maximized="0"
     inkscape:current-layer="svg12"
     inkscape:measure-start="37,16"
     inkscape:measure-end="41,16"
     inkscape:showpageshadow="0"
     inkscape:pagecheckerboard="1"
     inkscape:deskcolor="#d1d1d1">
    <inkscape:grid
       type="xygrid"
       id="grid4510" />
  </sodipodi:namedview>
  <rect
     style="display:none;opacity:1;fill:#555753;fill-opacity:1;fill-rule:nonzero;stroke:none;stroke-width:1.01552558;stroke-linecap:square;stroke-linejoin:round;stroke-miterlimit:4;stroke-dasharray:none;stroke-dashoffset:0;stroke-opacity:1;paint-order:stroke fill markers"
     id="rect6013"
     width="36.7374"
     height="6.4986739"
     x="5.3050394"
     y="-4.0742702"
     ry="2.2546401" />
  <rect
     ry="2.2546401"
     y="5.9257278"
     x="5.3050394"
     height="6.4986739"
     width="36.7374"
     id="rect6015"
     style="display:none;opacity:1;fill:#555753;fill-opacity:1;fill-rule:nonzero;stroke:none;stroke-width:1.01552558;stroke-linecap:square;stroke-linejoin:round;stroke-miterlimit:4;stroke-dasharray:none;stroke-dashoffset:0;stroke-opacity:1;paint-order:stroke fill markers" />
  <rect
     style="display:none;opacity:1;fill:#555753;fill-opacity:1;fill-rule:nonzero;stroke:none;stroke-width:0.90502864;stroke-linecap:square;stroke-linejoin:round;stroke-miterlimit:4;stroke-dasharray:none;stroke-dashoffset:0;stroke-opacity:1;paint-order:stroke fill markers"
     id="rect6009"
     width="29.177719"
     height="6.4986739"
     x="5.3050394"
     y="-24.07427"
     ry="2.2546401" />
  <rect
     ry="2.2546401"
     y="-14.07427"
     x="5.3050394"
     height="6.4986739"
     width="36.7374"
     id="rect6011"
     style="display:none;opacity:1;fill:#555753;fill-opacity:1;fill-rule:nonzero;stroke:none;stroke-width:1.01552558;stroke-linecap:square;stroke-linejoin:round;stroke-miterlimit:4;stroke-dasharray:none;stroke-dashoffset:0;stroke-opacity:1;paint-order:stroke fill markers" />
  <path
     style="opacity:1;fill:#ef2929;fill-opacity:1;fill-rule:nonzero;stroke:none;stroke-width:0.507937;stroke-linecap:square;stroke-linejoin:round;stroke-miterlimit:4;stroke-dasharray:none;stroke-dashoffset:0;stroke-opacity:1;paint-order:stroke fill markers"
     d="m 4.0586801,4.1992824 v 9.7511356 c 0,0.891049 0.5861949,1.608253 1.3136635,1.608253 h 5.2559704 c 0.727469,0 1.313005,-0.717204 1.313005,-1.608253 V 4.1992824 Z"
     id="rect4488"
     inkscape:connector-curvature="0" />
  <path
     style="opacity:1;fill:#ef2929;fill-opacity:1;fill-rule:nonzero;stroke:none;stroke-width:0.503948;stroke-linecap:square;stroke-linejoin:round;stroke-miterlimit:4;stroke-dasharray:none;stroke-dashoffset:0;stroke-opacity:1;paint-order:stroke fill markers"
     d="m 6.9280786,0.51244974 c -0.3317885,0 -0.5988169,0.20099436 -0.5988169,0.45073431 0,0.11173375 0.059944,0.21033425 0.148745,0.28893185 H 3.7075184 c -0.343707,0 -0.6208892,0.2086377 -0.6208892,0.4673486 v 0.4666258 c 0,0.2587101 0.2771822,0.4673476 0.6208892,0.4673476 h 8.5849626 c 0.343708,0 0.62089,-0.2086375 0.62089,-0.4673476 V 1.7194645 c 0,-0.2587109 -0.277182,-0.4673486 -0.62089,-0.4673486 H 9.6208366 c 0.088765,-0.078589 0.1477852,-0.1772283 0.1477852,-0.28893185 0,-0.24973995 -0.2670275,-0.45073431 -0.5988178,-0.45073431 z"
     id="rect4510"
     inkscape:connector-curvature="0" />
  <path
     style="display:inline;opacity:1;fill:#ef2929;fill-opacity:1;fill-rule:nonzero;stroke:none;stroke-width:0.423322;stroke-linecap:square;stroke-linejoin:round;stroke-miterlimit:4;stroke-dasharray:none;stroke-dashoffset:0;stroke-opacity:1;paint-order:stroke fill markers"
     d="m 5.4375335,6.0192678 c -0.1867762,0 -0.3371409,0.187396 -0.3371409,0.420172 v 6.3025652 c 0,0.232775 0.1503647,0.42017 0.3371409,0.42017 h 0.3371409 c 0.186776,0 0.3371408,-0.187395 0.3371408,-0.42017 V 6.4394398 c 0,-0.232776 -0.1503649,-0.420172 -0.3371408,-0.420172 z m 2.3264021,0 c -0.1867761,0 -0.3371408,0.187396 -0.3371408,0.420172 v 6.3025652 c 0,0.232775 0.1503649,0.42017 0.3371408,0.42017 h 0.337141 c 0.1867762,0 0.3371409,-0.187395 0.3371409,-0.42017 V 6.4394398 c 0,-0.232776 -0.1503647,-0.420172 -0.3371409,-0.420172 z m 2.4613904,0 c -0.186775,0 -0.3371392,0.187396 -0.3371392,0.420172 v 6.3025652 c 0,0.232775 0.1503642,0.42017 0.3371392,0.42017 h 0.337141 c 0.186776,0 0.33714,-0.187395 0.33714,-0.42017 V 6.4394398 c 0,-0.232776 -0.150364,-0.420172 -0.33714,-0.420172 z"
     id="rect4515"
     inkscape:connector-curvature="0" />
</svg>
