<?xml version="1.0" encoding="UTF-8" standalone="no"?>
<svg
   xmlns:dc="http://purl.org/dc/elements/1.1/"
   xmlns:cc="http://creativecommons.org/ns#"
   xmlns:rdf="http://www.w3.org/1999/02/22-rdf-syntax-ns#"
   xmlns:svg="http://www.w3.org/2000/svg"
   xmlns="http://www.w3.org/2000/svg"
   xmlns:sodipodi="http://sodipodi.sourceforge.net/DTD/sodipodi-0.dtd"
   xmlns:inkscape="http://www.inkscape.org/namespaces/inkscape"
   version="1"
   viewBox="0 0 16 16"
   enable-background="new 0 0 48 48"
   id="svg12"
   sodipodi:docname="denoise.svg"
   inkscape:version="0.92.4 (5da689c313, 2019-01-14)"
   width="16"
   height="16">
  <metadata
     id="metadata18">
    <rdf:RDF>
      <cc:Work
         rdf:about="">
        <dc:format>image/svg+xml</dc:format>
        <dc:type
           rdf:resource="http://purl.org/dc/dcmitype/StillImage" />
        <dc:title />
      </cc:Work>
    </rdf:RDF>
  </metadata>
  <defs
     id="defs16">
    <inkscape:perspective
       sodipodi:type="inkscape:persp3d"
       inkscape:vp_x="2.1085087 : -0.01579032 : 1"
       inkscape:vp_y="-9.1717358 : 40.677048 : 0"
       inkscape:vp_z="2.439686 : 0.66241427 : 1"
       inkscape:persp3d-origin="2.3474712 : -0.0021044275 : 1"
       id="perspective4515" />
  </defs>
  <sodipodi:namedview
     pagecolor="#ffffff"
     bordercolor="#666666"
     borderopacity="1"
     objecttolerance="10"
     gridtolerance="10"
     guidetolerance="10"
     inkscape:pageopacity="0"
     inkscape:pageshadow="2"
     inkscape:window-width="1877"
     inkscape:window-height="904"
     id="namedview14"
     showgrid="true"
     inkscape:zoom="11.42"
     inkscape:cx="-14.133429"
     inkscape:cy="23.301938"
     inkscape:window-x="24"
     inkscape:window-y="41"
     inkscape:window-maximized="0"
     inkscape:current-layer="svg12">
    <inkscape:grid
       type="xygrid"
       id="grid4510" />
  </sodipodi:namedview>
  <path
     id="path6948"
     d="m 3.7499999,8.6938772 c -0.389583,0 -0.708333,0.312245 -0.708333,0.6938777 0,0.3816324 0.31875,0.6938771 0.708333,0.6938771 0.3895831,0 0.7083331,-0.3122447 0.7083331,-0.6938771 0,-0.3816327 -0.31875,-0.6938777 -0.7083331,-0.6938777 z m 0,2.7755098 c -0.389583,0 -0.708333,0.312245 -0.708333,0.693878 0,0.381632 0.31875,0.693877 0.708333,0.693877 0.3895831,0 0.7083331,-0.312245 0.7083331,-0.693877 0,-0.381633 -0.31875,-0.693878 -0.7083331,-0.693878 z m 0,-5.5510198 c -0.389583,0 -0.708333,0.312245 -0.708333,0.6938772 0,0.3816327 0.31875,0.6938778 0.708333,0.6938778 0.3895831,0 0.7083331,-0.3122451 0.7083331,-0.6938778 0,-0.3816322 -0.31875,-0.6938772 -0.7083331,-0.6938772 z m -2.125,0.3469386 c -0.1947919,0 -0.3541669,0.1561224 -0.3541669,0.3469386 0,0.1908165 0.159375,0.3469391 0.3541669,0.3469391 0.194792,0 0.354167,-0.1561226 0.354167,-0.3469391 0,-0.1908162 -0.159375,-0.3469386 -0.354167,-0.3469386 z m 2.125,-3.1224495 c -0.389583,0 -0.708333,0.3122449 -0.708333,0.6938779 0,0.381633 0.31875,0.693878 0.708333,0.693878 0.3895831,0 0.7083331,-0.312245 0.7083331,-0.693878 0,-0.381633 -0.31875,-0.6938779 -0.7083331,-0.6938779 z M 14.375,6.9591835 c 0.194792,0 0.354167,-0.1561226 0.354167,-0.3469391 0,-0.1908162 -0.159375,-0.3469386 -0.354167,-0.3469386 -0.194792,0 -0.354167,0.1561224 -0.354167,0.3469386 0,0.1908165 0.159375,0.3469391 0.354167,0.3469391 z M 9.416667,4.5306122 c 0.389583,0 0.708333,-0.312245 0.708333,-0.693878 0,-0.381633 -0.31875,-0.6938779 -0.708333,-0.6938779 -0.3895841,0 -0.7083341,0.3122449 -0.7083341,0.6938779 0,0.381633 0.31875,0.693878 0.7083341,0.693878 z m 0,-2.4285715 c 0.194791,0 0.3541659,-0.1561229 0.3541659,-0.3469386 0,-0.1908165 -0.159375,-0.3469394 -0.3541659,-0.3469394 -0.194792,0 -0.354167,0.1561229 -0.354167,0.3469394 0,0.1908157 0.159375,0.3469386 0.354167,0.3469386 z M 1.6249999,9.0408159 c -0.1947919,0 -0.3541669,0.1561225 -0.3541669,0.346939 0,0.1908162 0.159375,0.3469387 0.3541669,0.3469387 0.194792,0 0.354167,-0.1561225 0.354167,-0.3469387 0,-0.1908165 -0.159375,-0.346939 -0.354167,-0.346939 z M 6.583333,13.897959 c -0.1947911,0 -0.3541661,0.156122 -0.3541661,0.346938 0,0.190817 0.159375,0.34694 0.3541661,0.34694 0.1947919,0 0.3541669,-0.156123 0.3541669,-0.34694 0,-0.190816 -0.159375,-0.346938 -0.3541669,-0.346938 z m 0,-11.7959183 c 0.1947919,0 0.3541669,-0.1561229 0.3541669,-0.3469386 0,-0.1908165 -0.159375,-0.3469394 -0.3541669,-0.3469394 -0.1947911,0 -0.3541661,0.1561229 -0.3541661,0.3469394 0,0.1908157 0.159375,0.3469386 0.3541661,0.3469386 z m 0,2.4285715 c 0.3895839,0 0.7083339,-0.312245 0.7083339,-0.693878 0,-0.381633 -0.31875,-0.6938779 -0.7083339,-0.6938779 -0.3895831,0 -0.7083331,0.3122449 -0.7083331,0.6938779 0,0.381633 0.31875,0.693878 0.7083331,0.693878 z m 0,3.8163261 c -0.5879161,0 -1.0625,0.4648982 -1.0625,1.0408166 0,0.5759179 0.4745839,1.0408161 1.0625,1.0408161 0.5879169,0 1.0625,-0.4648982 1.0625,-1.0408161 0,-0.5759184 -0.4745831,-1.0408166 -1.0625,-1.0408166 z M 12.25,8.6938772 c -0.389583,0 -0.708333,0.312245 -0.708333,0.6938777 0,0.3816324 0.31875,0.6938771 0.708333,0.6938771 0.389583,0 0.708333,-0.3122447 0.708333,-0.6938771 0,-0.3816327 -0.31875,-0.6938777 -0.708333,-0.6938777 z m 0,2.7755098 c -0.389583,0 -0.708333,0.312245 -0.708333,0.693878 0,0.381632 0.31875,0.693877 0.708333,0.693877 0.389583,0 0.708333,-0.312245 0.708333,-0.693877 0,-0.381633 -0.31875,-0.693878 -0.708333,-0.693878 z m 0,-5.5510198 c -0.389583,0 -0.708333,0.312245 -0.708333,0.6938772 0,0.3816327 0.31875,0.6938778 0.708333,0.6938778 0.389583,0 0.708333,-0.3122451 0.708333,-0.6938778 0,-0.3816322 -0.31875,-0.6938772 -0.708333,-0.6938772 z m 0,-2.7755109 c -0.389583,0 -0.708333,0.3122449 -0.708333,0.6938779 0,0.381633 0.31875,0.693878 0.708333,0.693878 0.389583,0 0.708333,-0.312245 0.708333,-0.693878 0,-0.381633 -0.31875,-0.6938779 -0.708333,-0.6938779 z m 2.125,5.8979596 c -0.194792,0 -0.354167,0.1561225 -0.354167,0.346939 0,0.1908162 0.159375,0.3469387 0.354167,0.3469387 0.194792,0 0.354167,-0.1561225 0.354167,-0.3469387 0,-0.1908165 -0.159375,-0.346939 -0.354167,-0.346939 z M 9.416667,11.469387 c -0.389584,0 -0.7083341,0.312245 -0.7083341,0.693878 0,0.381632 0.31875,0.693877 0.7083341,0.693877 0.389583,0 0.708333,-0.312245 0.708333,-0.693877 0,-0.381633 -0.31875,-0.693878 -0.708333,-0.693878 z m 0,2.428572 c -0.194792,0 -0.354167,0.156122 -0.354167,0.346938 0,0.190817 0.159375,0.34694 0.354167,0.34694 0.194791,0 0.3541659,-0.156123 0.3541659,-0.34694 0,-0.190816 -0.159375,-0.346938 -0.3541659,-0.346938 z M 6.583333,5.5714278 c -0.5879161,0 -1.0625,0.4648982 -1.0625,1.0408166 0,0.5759184 0.4745839,1.0408165 1.0625,1.0408165 0.5879169,0 1.0625,-0.4648981 1.0625,-1.0408165 0,-0.5759184 -0.4745831,-1.0408166 -1.0625,-1.0408166 z m 0,5.8979592 c -0.3895831,0 -0.7083331,0.312245 -0.7083331,0.693878 0,0.381632 0.31875,0.693877 0.7083331,0.693877 0.3895839,0 0.7083339,-0.312245 0.7083339,-0.693877 0,-0.381633 -0.31875,-0.693878 -0.7083339,-0.693878 z M 9.416667,8.3469383 c -0.5879171,0 -1.0625001,0.4648982 -1.0625001,1.0408166 0,0.5759179 0.4745831,1.0408161 1.0625001,1.0408161 0.587916,0 1.0625,-0.4648982 1.0625,-1.0408161 0,-0.5759184 -0.474584,-1.0408166 -1.0625,-1.0408166 z m 0,-2.7755105 c -0.5879171,0 -1.0625001,0.4648982 -1.0625001,1.0408166 0,0.5759184 0.4745831,1.0408165 1.0625001,1.0408165 0.587916,0 1.0625,-0.4648981 1.0625,-1.0408165 0,-0.5759184 -0.474584,-1.0408166 -1.0625,-1.0408166 z"
     inkscape:connector-curvature="0"
     style="fill:#eff0f1;stroke-width:0.35053411;fill-opacity:1" />
</svg>
