<?xml version="1.0" encoding="UTF-8" standalone="no"?>
<svg
   xmlns:dc="http://purl.org/dc/elements/1.1/"
   xmlns:cc="http://creativecommons.org/ns#"
   xmlns:rdf="http://www.w3.org/1999/02/22-rdf-syntax-ns#"
   xmlns:svg="http://www.w3.org/2000/svg"
   xmlns="http://www.w3.org/2000/svg"
   xmlns:sodipodi="http://sodipodi.sourceforge.net/DTD/sodipodi-0.dtd"
   xmlns:inkscape="http://www.inkscape.org/namespaces/inkscape"
   version="1"
   viewBox="0 0 24 24"
   enable-background="new 0 0 48 48"
   id="svg12"
   sodipodi:docname="clear.svg"
   inkscape:version="1.0.2 (e86c870879, 2021-01-15)"
   width="24"
   height="24">
  <metadata
     id="metadata18">
    <rdf:RDF>
      <cc:Work
         rdf:about="">
        <dc:format>image/svg+xml</dc:format>
        <dc:type
           rdf:resource="http://purl.org/dc/dcmitype/StillImage" />
        <dc:title />
      </cc:Work>
    </rdf:RDF>
  </metadata>
  <defs
     id="defs16">
    <inkscape:path-effect
       effect="bspline"
       id="path-effect4517"
       is_visible="true"
       weight="33.333333"
       steps="2"
       helper_size="0"
       apply_no_weight="true"
       apply_with_weight="true"
       only_selected="false" />
    <inkscape:perspective
       sodipodi:type="inkscape:persp3d"
       inkscape:vp_x="2.1085087 : -0.01579032 : 1"
       inkscape:vp_y="-9.1717358 : 40.677048 : 0"
       inkscape:vp_z="2.439686 : 0.66241427 : 1"
       inkscape:persp3d-origin="2.3474712 : -0.0021044275 : 1"
       id="perspective4515" />
  </defs>
  <sodipodi:namedview
     pagecolor="#ffffff"
     bordercolor="#666666"
     borderopacity="1"
     objecttolerance="10"
     gridtolerance="10"
     guidetolerance="10"
     inkscape:pageopacity="0"
     inkscape:pageshadow="2"
     inkscape:window-width="1920"
     inkscape:window-height="1005"
     id="namedview14"
     showgrid="true"
     inkscape:zoom="22.84"
     inkscape:cx="15.677248"
     inkscape:cy="11.042744"
     inkscape:window-x="0"
     inkscape:window-y="0"
     inkscape:window-maximized="1"
     inkscape:current-layer="svg12"
     inkscape:document-rotation="0">
    <inkscape:grid
       type="xygrid"
       id="grid4510" />
  </sodipodi:namedview>
  <rect
     style="fill:#444444;stroke-width:0.460912;fill-opacity:1"
     id="rect834"
     width="3.5454774"
     height="7.9409752"
     x="15.480447"
     y="-6.7331429"
     transform="rotate(30)"
     ry="0" />
  <rect
     style="fill:#444444;stroke-width:0.460912;fill-opacity:1"
     id="rect836"
     width="14.18191"
     height="1.7727387"
     x="10.16223"
     y="1.82876"
     transform="rotate(30)" />
  <path
     id="rect838"
     style="fill:#444444;stroke-width:0.460912;fill-opacity:1"
     d="m 8.2635863,9.5569889 -4.4318496,7.6761881 1.301353,0.751336 2.0953351,-2.604361 2.0923354,-2.606093 -1.2077752,3.116794 -1.2107747,3.115063 5.3432627,3.084933 5.229533,-7.215645 z"
     sodipodi:nodetypes="cccccccccc" />
  <path
     inkscape:connector-curvature="0"
     style="fill:#444444;fill-opacity:1;fill-rule:nonzero;stroke:none;stroke-width:1.72833;stroke-linecap:square;stroke-linejoin:miter;stroke-miterlimit:4;stroke-dasharray:none;stroke-opacity:1;paint-order:markers fill stroke"
     d="M 6,0 C 2.676,0 0,2.676 0,6 v 12 c 0,3.324 2.676,6 6,6 h 12 c 3.324,0 6,-2.676 6,-6 V 6 C 24,2.676 21.324,0 18,0 Z m 0.5,1 h 11 C 20.547,1 23,3.453 23,6.5 v 11 C 23,20.547 20.547,23 17.5,23 H 6.5 C 3.453,23 1,20.547 1,17.5 V 6.5 C 1,3.453 3.453,1 6.5,1 Z"
     id="rect828-3" />
</svg>
