<?xml version="1.0" encoding="UTF-8" standalone="no"?>
<!-- Created with Inkscape (http://www.inkscape.org/) -->

<svg
   xmlns:osb="http://www.openswatchbook.org/uri/2009/osb"
   xmlns:dc="http://purl.org/dc/elements/1.1/"
   xmlns:cc="http://creativecommons.org/ns#"
   xmlns:rdf="http://www.w3.org/1999/02/22-rdf-syntax-ns#"
   xmlns:svg="http://www.w3.org/2000/svg"
   xmlns="http://www.w3.org/2000/svg"
   xmlns:xlink="http://www.w3.org/1999/xlink"
   xmlns:sodipodi="http://sodipodi.sourceforge.net/DTD/sodipodi-0.dtd"
   xmlns:inkscape="http://www.inkscape.org/namespaces/inkscape"
   width="48"
   height="48"
   viewBox="0 0 48 48"
   version="1.1"
   id="SVGRoot"
   sodipodi:docname="icon_concat.svg"
   inkscape:version="0.92.4 (5da689c313, 2019-01-14)"
   style="enable-background:new">
  <sodipodi:namedview
     id="base"
     pagecolor="#ffffff"
     bordercolor="#666666"
     borderopacity="1.0"
     inkscape:pageopacity="0.0"
     inkscape:pageshadow="2"
     inkscape:zoom="10.66317"
     inkscape:cx="12.232013"
     inkscape:cy="18.052765"
     inkscape:document-units="px"
     inkscape:current-layer="layer1"
     showgrid="true"
     inkscape:window-width="1920"
     inkscape:window-height="1015"
     inkscape:window-x="0"
     inkscape:window-y="0"
     inkscape:window-maximized="1"
     inkscape:grid-bbox="true"
     inkscape:measure-start="110,130"
     inkscape:measure-end="0,0"
     showguides="true">
    <inkscape:grid
       type="xygrid"
       id="grid5114" />
  </sodipodi:namedview>
  <defs
     id="defs4485">
    <inkscape:path-effect
       effect="bspline"
       id="path-effect4551"
       is_visible="true"
       weight="33.333333"
       steps="2"
       helper_size="0"
       apply_no_weight="true"
       apply_with_weight="true"
       only_selected="false" />
    <inkscape:path-effect
       effect="skeletal"
       id="path-effect4547"
       is_visible="true"
       pattern="M 0,5 C 0,2.24 2.24,0 5,0 7.76,0 10,2.24 10,5 10,7.76 7.76,10 5,10 2.24,10 0,7.76 0,5 Z"
       copytype="single_stretched"
       prop_scale="1"
       scale_y_rel="false"
       spacing="0"
       normal_offset="0"
       tang_offset="0"
       prop_units="false"
       vertical_pattern="false"
       fuse_tolerance="0" />
    <inkscape:path-effect
       effect="bspline"
       id="path-effect4545"
       is_visible="true"
       weight="33.333333"
       steps="2"
       helper_size="0"
       apply_no_weight="true"
       apply_with_weight="true"
       only_selected="false" />
    <inkscape:path-effect
       effect="skeletal"
       id="path-effect4541"
       is_visible="true"
       pattern="M 0,5 C 0,2.24 2.24,0 5,0 7.76,0 10,2.24 10,5 10,7.76 7.76,10 5,10 2.24,10 0,7.76 0,5 Z"
       copytype="single_stretched"
       prop_scale="1"
       scale_y_rel="false"
       spacing="0"
       normal_offset="0"
       tang_offset="0"
       prop_units="false"
       vertical_pattern="false"
       fuse_tolerance="0" />
    <inkscape:path-effect
       effect="spiro"
       id="path-effect4539"
       is_visible="true" />
    <inkscape:path-effect
       effect="bspline"
       id="path-effect4535"
       is_visible="true"
       weight="33.333333"
       steps="2"
       helper_size="0"
       apply_no_weight="true"
       apply_with_weight="true"
       only_selected="false" />
    <inkscape:path-effect
       effect="skeletal"
       id="path-effect4531"
       is_visible="true"
       pattern="M 0,5 C 0,2.24 2.24,0 5,0 7.76,0 10,2.24 10,5 10,7.76 7.76,10 5,10 2.24,10 0,7.76 0,5 Z"
       copytype="single_stretched"
       prop_scale="1"
       scale_y_rel="false"
       spacing="0"
       normal_offset="0"
       tang_offset="0"
       prop_units="false"
       vertical_pattern="false"
       fuse_tolerance="0" />
    <inkscape:path-effect
       effect="bspline"
       id="path-effect4529"
       is_visible="true"
       weight="33.333333"
       steps="2"
       helper_size="0"
       apply_no_weight="true"
       apply_with_weight="true"
       only_selected="false" />
    <inkscape:path-effect
       effect="skeletal"
       id="path-effect4525"
       is_visible="true"
       pattern="M 0,5 C 0,2.24 2.24,0 5,0 7.76,0 10,2.24 10,5 10,7.76 7.76,10 5,10 2.24,10 0,7.76 0,5 Z"
       copytype="single_stretched"
       prop_scale="1"
       scale_y_rel="false"
       spacing="0"
       normal_offset="0"
       tang_offset="0"
       prop_units="false"
       vertical_pattern="false"
       fuse_tolerance="0" />
    <inkscape:path-effect
       effect="bspline"
       id="path-effect4523"
       is_visible="true"
       weight="33.333333"
       steps="2"
       helper_size="0"
       apply_no_weight="true"
       apply_with_weight="true"
       only_selected="false" />
    <inkscape:path-effect
       effect="bspline"
       id="path-effect4519"
       is_visible="true"
       weight="33.333333"
       steps="2"
       helper_size="0"
       apply_no_weight="true"
       apply_with_weight="true"
       only_selected="false" />
    <pattern
       inkscape:isstock="true"
       inkscape:stockid="Stripes 1:1"
       id="Strips1_1"
       patternTransform="translate(0,0) scale(10,10)"
       height="1"
       width="2"
       patternUnits="userSpaceOnUse"
       inkscape:collect="always">
      <rect
         id="rect5447"
         height="2"
         width="1"
         y="-0.5"
         x="0"
         style="fill:black;stroke:none" />
    </pattern>
    <linearGradient
       id="linearGradient4727"
       osb:paint="solid">
      <stop
         style="stop-color:#ce5c00;stop-opacity:1;"
         offset="0"
         id="stop4725" />
    </linearGradient>
    <pattern
       patternUnits="userSpaceOnUse"
       width="55"
       height="90"
       patternTransform="translate(-60,50.5)"
       id="pattern6214">
      <g
         style="fill:url(#Strips1_1);fill-opacity:1"
         transform="translate(-15,-28.5)"
         id="g4691">
        <rect
           style="opacity:0.81499999;fill:url(#Strips1_1);fill-opacity:1;stroke:none;stroke-width:4.52699995;stroke-linecap:round;stroke-linejoin:bevel;stroke-miterlimit:17.60000038;stroke-dasharray:none;stroke-dashoffset:0;stroke-opacity:1;paint-order:stroke fill markers"
           id="rect4683"
           width="30"
           height="30"
           x="40"
           y="59"
           ry="7.9000001" />
        <path
           inkscape:connector-curvature="0"
           style="opacity:0.81499999;fill:url(#Strips1_1);fill-opacity:1;stroke:none;stroke-width:8.60130024;stroke-linecap:round;stroke-linejoin:bevel;stroke-miterlimit:17.60000038;stroke-dasharray:none;stroke-dashoffset:0;stroke-opacity:1;paint-order:stroke fill markers"
           d="m 15,28.5 v 90 l 45,-45 z"
           id="path4687" />
      </g>
    </pattern>
    <linearGradient
       inkscape:collect="always"
       xlink:href="#linearGradient4560"
       id="linearGradient4562"
       x1="-11.593207"
       y1="128.66191"
       x2="268.93854"
       y2="128.66191"
       gradientUnits="userSpaceOnUse"
       gradientTransform="matrix(0.49602862,-0.00361488,0.00361488,0.48879887,24.786346,29.27933)" />
    <linearGradient
       inkscape:collect="always"
       id="linearGradient4560">
      <stop
         style="stop-color:#380000;stop-opacity:1;"
         offset="0"
         id="stop4556" />
      <stop
         style="stop-color:#380000;stop-opacity:0;"
         offset="1"
         id="stop4558" />
    </linearGradient>
    <linearGradient
       inkscape:collect="always"
       id="linearGradient1141">
      <stop
         style="stop-color:#2b0000;stop-opacity:1;"
         offset="0"
         id="stop1137" />
      <stop
         style="stop-color:#290000;stop-opacity:0.03308824"
         offset="1"
         id="stop1139" />
    </linearGradient>
    <linearGradient
       inkscape:collect="always"
       xlink:href="#linearGradient1141"
       id="linearGradient958"
       gradientUnits="userSpaceOnUse"
       gradientTransform="matrix(0.53485096,-0.70797138,0.53485096,0.70797138,357.03848,-82.104013)"
       x1="-250.35175"
       y1="184.841"
       x2="-103.49406"
       y2="49.201401" />
  </defs>
  <metadata
     id="metadata4488">
    <rdf:RDF>
      <cc:Work
         rdf:about="">
        <dc:format>image/svg+xml</dc:format>
        <dc:type
           rdf:resource="http://purl.org/dc/dcmitype/StillImage" />
        <dc:title />
      </cc:Work>
    </rdf:RDF>
  </metadata>
  <g
     inkscape:groupmode="layer"
     id="layer1"
     inkscape:label="Icons"
     style="display:inline"
     transform="translate(0,-208)">
    <path
       style="display:inline;opacity:1;fill:url(#linearGradient4562);fill-opacity:1;stroke:none;stroke-width:0.64012319"
       d="M 431.27322,-1.1574823 328.84738,102.85416 365.32172,139.54897 467.51057,35.778941 Z"
       id="rect5216"
       inkscape:connector-curvature="0" />
    <path
       style="display:inline;opacity:1;fill:#eff0f1;fill-opacity:1;fill-rule:nonzero;stroke:none;stroke-width:1.17994702;stroke-linecap:square;stroke-linejoin:round;stroke-miterlimit:4;stroke-dasharray:none;stroke-dashoffset:0;stroke-opacity:1;paint-order:stroke fill markers"
       d="m 16.611553,211.37156 v 0.0433 h -0.0042 v 8.99701 a 4.2927982,2.8797163 0 0 0 -1.550247,-0.19785 4.2927982,2.8797163 0 0 0 -4.292631,2.87973 4.2927982,2.8797163 0 0 0 4.292631,2.87976 4.2927982,2.8797163 0 0 0 4.292637,-2.87976 4.2927982,2.8797163 0 0 0 -0.08398,-0.55387 v -8.28865 h 2.86331 v -2.87969 z"
       id="path906"
       inkscape:connector-curvature="0" />
    <path
       style="display:inline;opacity:1;fill:#353535;fill-opacity:1;stroke:none;stroke-width:0.68583578;stroke-linecap:round;stroke-linejoin:bevel;stroke-miterlimit:17.60000038;stroke-dasharray:none;stroke-dashoffset:0;stroke-opacity:0.97647059;paint-order:stroke fill markers"
       d="m 23.885607,241.22702 -18.560644,0.11502 v 7.84114 l 18.560644,-0.11502 z"
       id="rect1130"
       inkscape:connector-curvature="0" />
    <path
       style="display:inline;opacity:1;fill:#eff0f1;fill-opacity:1;stroke:#474747;stroke-width:0.14655671;stroke-linecap:round;stroke-linejoin:bevel;stroke-miterlimit:17.60000038;stroke-dasharray:none;stroke-dashoffset:0;stroke-opacity:1;paint-order:stroke fill markers"
       d="M 24.33305,238.66238 H 5 l -0.1224794,0.12248 v 12.96293 H 24.33305 Z m -0.691891,0.91042 v 1.33586 c 0,0.16445 -0.123788,0.29674 -0.277306,0.29674 l -0.83146,2.6e-4 c -0.153531,0 -0.277044,-0.13254 -0.277044,-0.297 v -1.33585 c 0,-0.16445 0.123526,-0.29675 0.277044,-0.29675 h 0.83146 c 0.07681,0 0.14619,0.0331 0.196268,0.0868 0.05012,0.0537 0.08113,0.12784 0.081,0.21001 z m 0,9.84041 -2.49e-4,1.3356 c 0,0.16445 -0.123264,0.29674 -0.276809,0.29674 h -0.831708 c -0.153544,0 -0.277057,-0.13229 -0.277057,-0.29674 v -1.3356 c 0,-0.16446 0.123526,-0.297 0.277057,-0.29701 h 0.831708 c 0.07681,0 0.145942,0.0331 0.196007,0.0867 0.05012,0.0537 0.08113,0.12798 0.08113,0.21027 z m -0.155088,-6.57262 v 4.66969 c 0,0.57487 -0.43195,1.03755 -0.968674,1.03755 h -2.906596 c -0.536738,0 -0.968936,-0.46295 -0.968936,-1.03781 v -4.66943 c 0,-0.57487 0.432198,-1.03783 0.968936,-1.03783 h 2.906596 c 0.268356,0 0.510305,0.11594 0.685388,0.30349 0.175095,0.18754 0.283286,0.44691 0.283286,0.73434 z m -1.938682,-3.26779 v 1.33586 c 0,0.16445 -0.123527,0.297 -0.277058,0.297 h -0.831433 c -0.153545,0 -0.277071,-0.13255 -0.277071,-0.297 v -1.33586 c 0,-0.16444 0.123526,-0.29674 0.277071,-0.29674 h 0.831433 c 0.07681,0 0.146217,0.0331 0.196282,0.0868 0.04999,0.0537 0.08074,0.12784 0.08074,0.20999 z m 0,9.84041 v 1.3356 c 0,0.16445 -0.123527,0.29674 -0.277058,0.29674 h -0.831708 c -0.153531,0 -0.276796,-0.13229 -0.276796,-0.29674 v -1.3356 c 0,-0.16444 0.123265,-0.29701 0.276796,-0.29701 h 0.831708 c 0.07681,0 0.146217,0.0331 0.196282,0.0867 0.04999,0.0537 0.08074,0.12798 0.08074,0.21027 z m -2.093757,-9.84015 v 1.3356 c 0,0.16445 -0.123265,0.29674 -0.276809,0.29674 h -0.831695 c -0.153558,0 -0.277071,-0.13229 -0.277071,-0.29674 v -1.3356 c 0,-0.16446 0.123526,-0.297 0.277071,-0.297 h 0.831695 c 0.07681,0 0.145955,0.0331 0.196006,0.0868 0.05012,0.0537 0.08087,0.12797 0.08087,0.21025 z m 0,9.84015 v 1.3356 c 0,0.16445 -0.123526,0.29674 -0.277058,0.29674 l -0.831446,2.6e-4 c -0.153558,0 -0.277071,-0.13255 -0.277071,-0.297 v -1.3356 c 0,-0.16444 0.123526,-0.297 0.277071,-0.297 h 0.831446 c 0.07681,0 0.146204,0.0331 0.196268,0.0868 0.05012,0.0537 0.08087,0.12797 0.08087,0.21025 z m -2.093522,-9.84015 v 1.3356 c 0,0.16443 -0.123526,0.29674 -0.277057,0.29674 h -0.831696 c -0.153544,0 -0.27707,-0.13229 -0.27707,-0.29674 v -1.3356 c 0,-0.16446 0.123526,-0.297 0.27707,-0.297 h 0.831696 c 0.07681,0 0.145955,0.0331 0.196019,0.0868 0.05012,0.0537 0.081,0.12797 0.081,0.21025 z m 0,9.84015 v 1.3356 c 0,0.16445 -0.123526,0.297 -0.277057,0.297 h -0.831696 c -0.153544,0 -0.27707,-0.13255 -0.27707,-0.297 v -1.33586 c 0,-0.16446 0.123526,-0.29675 0.27707,-0.29675 h 0.831696 c 0.07681,0 0.145955,0.0331 0.196019,0.0867 0.05012,0.0537 0.081,0.12798 0.081,0.21027 z m -0.155088,-6.57262 v 4.66969 c 0,0.57487 -0.431936,1.03755 -0.968687,1.03755 h -2.906583 c -0.53675,0 -0.968935,-0.46268 -0.968935,-1.03755 v -4.66995 c 0,-0.57487 0.432185,-1.03731 0.968935,-1.03731 l 2.906583,-2.6e-4 c 0.268369,0 0.51058,0.11594 0.685663,0.30348 0.175083,0.18754 0.283024,0.44692 0.283024,0.73435 z m -1.938669,-3.26779 v 1.33586 c 0,0.16445 -0.123526,0.29674 -0.27707,0.29674 h -0.831696 c -0.153557,0 -0.276808,-0.13231 -0.276808,-0.29674 v -1.33586 c 0,-0.16444 0.123526,-0.29674 0.277057,-0.29674 h 0.831447 c 0.07681,0 0.146216,0.0331 0.196281,0.0868 0.05012,0.0537 0.08087,0.12784 0.08087,0.20999 z m 0,9.84041 v 1.3356 c 0,0.16445 -0.123526,0.297 -0.27707,0.297 l -0.831447,-2.7e-4 c -0.153531,1e-5 -0.277057,-0.1323 -0.277057,-0.29674 v -1.3356 c 0,-0.16445 0.123526,-0.297 0.277057,-0.297 h 0.831447 c 0.07681,0 0.146216,0.0331 0.196281,0.0867 0.05012,0.0537 0.08087,0.12798 0.08087,0.21026 z m -2.093508,1.3356 c 0,0.16445 -0.123788,0.29674 -0.277332,0.29674 h -0.831447 c -0.153531,0 -0.277057,-0.13229 -0.277057,-0.29674 v -1.3356 c 0,-0.16446 0.123526,-0.29701 0.277057,-0.29701 h 0.831447 c 0.07681,0 0.145954,0.0331 0.196019,0.0867 h 2.62e-4 c 0.05012,0.0537 0.08087,0.12798 0.08087,0.21027 z M 13.17257,239.5728 v 1.33586 c 0,0.16445 -0.123526,0.29674 -0.277057,0.29674 h -0.831185 c -0.153544,0 -0.277332,-0.13229 -0.277332,-0.29674 v -1.33586 c 0,-0.16444 0.123788,-0.29674 0.277332,-0.29674 h 0.831447 c 0.07681,0 0.145954,0.0331 0.196006,0.0868 0.05012,0.0537 0.08087,0.12784 0.08087,0.20999 z m -2.093508,0 v 1.33586 c 0,0.16445 -0.123526,0.29674 -0.277058,0.29674 H 9.9705576 c -0.1535442,0 -0.2770704,-0.13229 -0.2770704,-0.29674 v -1.33586 c 0,-0.16444 0.1235262,-0.29674 0.2770704,-0.29674 h 0.8314464 c 0.07681,0 0.145942,0.0331 0.19602,0.0868 0.05012,0.0537 0.081,0.12784 0.081,0.20999 z m 0,11.17601 c 0,0.16445 -0.123526,0.29674 -0.277058,0.29674 l -0.8314464,2.6e-4 c -0.1535442,0 -0.2770704,-0.13255 -0.2770704,-0.297 l -2.617e-4,-1.3356 c 0,-0.16444 0.1237879,-0.297 0.2773321,-0.297 h 0.8314334 c 0.07681,0 0.145955,0.0331 0.19602,0.0868 0.05012,0.0537 0.08087,0.12797 0.08087,0.21025 z m -0.154853,-7.90822 -2.48e-4,4.66969 c 0,0.57487 -0.431675,1.03755 -0.9684254,1.03755 h -2.906845 c -0.5367373,0 -0.9689484,-0.46268 -0.9689484,-1.03755 v -4.66969 c 0,-0.57487 0.4324597,-1.03757 0.9692232,-1.03757 h 2.9062954 c 0.2683162,0 0.5106062,0.11581 0.6856752,0.30323 0.175083,0.18754 0.283273,0.44691 0.283273,0.73434 z M 8.9852918,239.5728 v 1.3356 c 0,0.16445 -0.1235263,0.297 -0.2770574,0.297 H 7.8767876 c -0.1535442,0 -0.2770705,-0.13255 -0.2770705,-0.297 v -1.3356 c 1.31e-5,-0.16444 0.1235263,-0.29674 0.2770705,-0.29674 h 0.8314468 c 0.076811,0 0.1462033,0.0331 0.1962681,0.0868 0.050117,0.0537 0.080868,0.12784 0.080868,0.20999 z m 0,9.84015 v 1.33586 c 0,0.16445 -0.1235263,0.297 -0.2770574,0.297 H 7.8767876 c -0.1535442,0 -0.2770574,-0.13255 -0.2770705,-0.297 v -1.3356 c 0,-0.16444 0.1235263,-0.29701 0.2770705,-0.29701 h 0.8317085 c 0.076811,0 0.1459416,0.0331 0.1960064,0.0867 0.050117,0.0537 0.080868,0.12772 0.080868,0.21001 z m -2.0934953,-8.50429 c 0,0.16445 -0.1237879,0.29674 -0.2773321,0.29674 H 5.7830175 c -0.153557,0 -0.2768085,-0.13229 -0.2768085,-0.29674 l -2.617e-4,-1.33586 c 0,-0.16444 0.1235263,-0.29674 0.2770702,-0.29674 h 0.8317086 c 0.076811,0 0.1459415,0.0331 0.1960063,0.0868 0.050117,0.0537 0.080868,0.12784 0.080868,0.20999 z m 0,8.50455 -2.748e-4,1.3356 c 0,0.16445 -0.1232645,0.297 -0.2767956,0.297 l -0.83146,-2.7e-4 c -0.1535439,0 -0.2773188,-0.1323 -0.2773188,-0.29674 l 2.617e-4,-1.3356 c 0,-0.16445 0.1235263,-0.297 0.2770571,-0.297 h 0.83146 c 0.076811,0 0.1459415,0.0331 0.1960063,0.0867 0.050117,0.0537 0.08113,0.12798 0.08113,0.21026 z"
       id="rect976"
       inkscape:connector-curvature="0" />
    <path
       style="display:inline;opacity:1;fill:#eff0f1;fill-opacity:1;stroke:none;stroke-width:0.02371711;stroke-linecap:square;stroke-linejoin:miter;stroke-miterlimit:4;stroke-dasharray:none;stroke-dashoffset:0;stroke-opacity:1;paint-order:normal"
       d="m 36.093563,228.5 v 1.875 H 5 v 3.90748 H 36.093563 V 236 L 39.547755,234.125 43,232.25001 39.547755,230.375 Z"
       id="rect844"
       inkscape:connector-curvature="0" />
    <path
       inkscape:connector-curvature="0"
       id="path852"
       d="m 22.611604,211.43642 v 0.0431 h -0.0042 v 8.95703 a 4.2927982,2.8669346 0 0 0 -1.550247,-0.19686 4.2927982,2.8669346 0 0 0 -4.29263,2.86686 4.2927982,2.8669346 0 0 0 4.29263,2.86699 4.2927982,2.8669346 0 0 0 4.292638,-2.86699 4.2927982,2.8669346 0 0 0 -0.08398,-0.55143 v -8.2519 h 2.86331 v -2.86684 z"
       style="display:inline;opacity:1;fill:#eff0f1;fill-opacity:1;fill-rule:nonzero;stroke:none;stroke-width:1.17732549;stroke-linecap:square;stroke-linejoin:round;stroke-miterlimit:4;stroke-dasharray:none;stroke-dashoffset:0;stroke-opacity:1;paint-order:stroke fill markers" />
    <path
       style="display:inline;opacity:1;fill:#eff0f1;fill-opacity:1;fill-rule:nonzero;stroke:none;stroke-width:1.17732549;stroke-linecap:square;stroke-linejoin:round;stroke-miterlimit:4;stroke-dasharray:none;stroke-dashoffset:0;stroke-opacity:1;paint-order:stroke fill markers"
       d="m 28.611654,211.43642 v 0.0431 h -0.0042 v 8.95703 a 4.2927982,2.8669346 0 0 0 -1.550247,-0.19686 4.2927982,2.8669346 0 0 0 -4.29263,2.86686 4.2927982,2.8669346 0 0 0 4.29263,2.86699 4.2927982,2.8669346 0 0 0 4.292638,-2.86699 4.2927982,2.8669346 0 0 0 -0.08398,-0.55143 v -8.2519 h 2.86331 v -2.86684 z"
       id="path854"
       inkscape:connector-curvature="0" />
    <path
       inkscape:connector-curvature="0"
       id="path849"
       d="m 34.574957,211.43642 v 0.0431 h -0.0042 v 8.95703 a 4.2927982,2.8669346 0 0 0 -1.550247,-0.19686 4.2927982,2.8669346 0 0 0 -4.292629,2.86686 4.2927982,2.8669346 0 0 0 4.292629,2.86699 4.2927982,2.8669346 0 0 0 4.292639,-2.86699 4.2927982,2.8669346 0 0 0 -0.08398,-0.55143 v -8.2519 h 2.86331 v -2.86684 z"
       style="display:inline;opacity:1;fill:#eff0f1;fill-opacity:1;fill-rule:nonzero;stroke:none;stroke-width:1.17732549;stroke-linecap:square;stroke-linejoin:round;stroke-miterlimit:4;stroke-dasharray:none;stroke-dashoffset:0;stroke-opacity:1;paint-order:stroke fill markers" />
    <path
       inkscape:connector-curvature="0"
       id="path860"
       d="m 36.450376,241.22702 -18.560644,0.11502 v 7.84114 l 18.560644,-0.11502 z"
       style="display:inline;opacity:1;fill:#353535;fill-opacity:1;stroke:none;stroke-width:0.68583578;stroke-linecap:round;stroke-linejoin:bevel;stroke-miterlimit:17.60000038;stroke-dasharray:none;stroke-dashoffset:0;stroke-opacity:0.97647059;paint-order:stroke fill markers" />
    <path
       inkscape:connector-curvature="0"
       id="path862"
       d="m 36.897819,238.66238 h -19.33305 l -0.12248,0.12248 v 12.96293 h 19.45553 z m -0.691891,0.91042 v 1.33586 c 0,0.16445 -0.123788,0.29674 -0.277306,0.29674 l -0.83146,2.6e-4 c -0.153531,0 -0.277044,-0.13254 -0.277044,-0.297 v -1.33585 c 0,-0.16445 0.123526,-0.29675 0.277044,-0.29675 h 0.83146 c 0.07681,0 0.14619,0.0331 0.196268,0.0868 0.05012,0.0537 0.08113,0.12784 0.081,0.21001 z m 0,9.84041 -2.49e-4,1.3356 c 0,0.16445 -0.123264,0.29674 -0.276809,0.29674 h -0.831708 c -0.153544,0 -0.277057,-0.13229 -0.277057,-0.29674 v -1.3356 c 0,-0.16446 0.123526,-0.297 0.277057,-0.29701 h 0.831708 c 0.07681,0 0.145942,0.0331 0.196007,0.0867 0.05012,0.0537 0.08113,0.12798 0.08113,0.21027 z m -0.155088,-6.57262 v 4.66969 c 0,0.57487 -0.43195,1.03755 -0.968674,1.03755 H 32.17557 c -0.536738,0 -0.968936,-0.46295 -0.968936,-1.03781 v -4.66943 c 0,-0.57487 0.432198,-1.03783 0.968936,-1.03783 h 2.906596 c 0.268356,0 0.510305,0.11594 0.685388,0.30349 0.175095,0.18754 0.283286,0.44691 0.283286,0.73434 z m -1.938682,-3.26779 v 1.33586 c 0,0.16445 -0.123527,0.297 -0.277058,0.297 h -0.831433 c -0.153545,0 -0.277071,-0.13255 -0.277071,-0.297 v -1.33586 c 0,-0.16444 0.123526,-0.29674 0.277071,-0.29674 H 33.8351 c 0.07681,0 0.146217,0.0331 0.196282,0.0868 0.04999,0.0537 0.08074,0.12784 0.08074,0.20999 z m 0,9.84041 v 1.3356 c 0,0.16445 -0.123527,0.29674 -0.277058,0.29674 h -0.831708 c -0.153531,0 -0.276796,-0.13229 -0.276796,-0.29674 v -1.3356 c 0,-0.16444 0.123265,-0.29701 0.276796,-0.29701 H 33.8351 c 0.07681,0 0.146217,0.0331 0.196282,0.0867 0.04999,0.0537 0.08074,0.12798 0.08074,0.21027 z m -2.093757,-9.84015 v 1.3356 c 0,0.16445 -0.123265,0.29674 -0.276809,0.29674 h -0.831695 c -0.153558,0 -0.277071,-0.13229 -0.277071,-0.29674 v -1.3356 c 0,-0.16446 0.123526,-0.297 0.277071,-0.297 h 0.831695 c 0.07681,0 0.145955,0.0331 0.196006,0.0868 0.05012,0.0537 0.08087,0.12797 0.08087,0.21025 z m 0,9.84015 v 1.3356 c 0,0.16445 -0.123526,0.29674 -0.277058,0.29674 l -0.831446,2.6e-4 c -0.153558,0 -0.277071,-0.13255 -0.277071,-0.297 v -1.3356 c 0,-0.16444 0.123526,-0.297 0.277071,-0.297 h 0.831446 c 0.07681,0 0.146204,0.0331 0.196268,0.0868 0.05012,0.0537 0.08087,0.12797 0.08087,0.21025 z m -2.093522,-9.84015 v 1.3356 c 0,0.16443 -0.123526,0.29674 -0.277057,0.29674 h -0.831696 c -0.153544,0 -0.27707,-0.13229 -0.27707,-0.29674 v -1.3356 c 0,-0.16446 0.123526,-0.297 0.27707,-0.297 h 0.831696 c 0.07681,0 0.145955,0.0331 0.196019,0.0868 0.05012,0.0537 0.081,0.12797 0.081,0.21025 z m 0,9.84015 v 1.3356 c 0,0.16445 -0.123526,0.297 -0.277057,0.297 h -0.831696 c -0.153544,0 -0.27707,-0.13255 -0.27707,-0.297 v -1.33586 c 0,-0.16446 0.123526,-0.29675 0.27707,-0.29675 h 0.831696 c 0.07681,0 0.145955,0.0331 0.196019,0.0867 0.05012,0.0537 0.081,0.12798 0.081,0.21027 z m -0.155088,-6.57262 v 4.66969 c 0,0.57487 -0.431936,1.03755 -0.968687,1.03755 h -2.906583 c -0.53675,0 -0.968935,-0.46268 -0.968935,-1.03755 v -4.66995 c 0,-0.57487 0.432185,-1.03731 0.968935,-1.03731 l 2.906583,-2.6e-4 c 0.268369,0 0.51058,0.11594 0.685663,0.30348 0.175083,0.18754 0.283024,0.44692 0.283024,0.73435 z m -1.938669,-3.26779 v 1.33586 c 0,0.16445 -0.123526,0.29674 -0.27707,0.29674 h -0.831696 c -0.153557,0 -0.276808,-0.13231 -0.276808,-0.29674 v -1.33586 c 0,-0.16444 0.123526,-0.29674 0.277057,-0.29674 h 0.831447 c 0.07681,0 0.146216,0.0331 0.196281,0.0868 0.05012,0.0537 0.08087,0.12784 0.08087,0.20999 z m 0,9.84041 v 1.3356 c 0,0.16445 -0.123526,0.297 -0.27707,0.297 l -0.831447,-2.7e-4 c -0.153531,1e-5 -0.277057,-0.1323 -0.277057,-0.29674 v -1.3356 c 0,-0.16445 0.123526,-0.297 0.277057,-0.297 h 0.831447 c 0.07681,0 0.146216,0.0331 0.196281,0.0867 0.05012,0.0537 0.08087,0.12798 0.08087,0.21026 z m -2.093508,1.3356 c 0,0.16445 -0.123788,0.29674 -0.277332,0.29674 h -0.831447 c -0.153531,0 -0.277057,-0.13229 -0.277057,-0.29674 v -1.3356 c 0,-0.16446 0.123526,-0.29701 0.277057,-0.29701 h 0.831447 c 0.07681,0 0.145954,0.0331 0.196019,0.0867 h 2.62e-4 c 0.05012,0.0537 0.08087,0.12798 0.08087,0.21027 z m -2.75e-4,-11.17601 v 1.33586 c 0,0.16445 -0.123526,0.29674 -0.277057,0.29674 h -0.831185 c -0.153544,0 -0.277332,-0.13229 -0.277332,-0.29674 v -1.33586 c 0,-0.16444 0.123788,-0.29674 0.277332,-0.29674 h 0.831447 c 0.07681,0 0.145954,0.0331 0.196006,0.0868 0.05012,0.0537 0.08087,0.12784 0.08087,0.20999 z m -2.093508,0 v 1.33586 c 0,0.16445 -0.123526,0.29674 -0.277058,0.29674 h -0.831446 c -0.153545,0 -0.277071,-0.13229 -0.277071,-0.29674 v -1.33586 c 0,-0.16444 0.123526,-0.29674 0.277071,-0.29674 h 0.831446 c 0.07681,0 0.145942,0.0331 0.19602,0.0868 0.05012,0.0537 0.081,0.12784 0.081,0.20999 z m 0,11.17601 c 0,0.16445 -0.123526,0.29674 -0.277058,0.29674 l -0.831446,2.6e-4 c -0.153545,0 -0.277071,-0.13255 -0.277071,-0.297 l -2.62e-4,-1.3356 c 0,-0.16444 0.123788,-0.297 0.277333,-0.297 h 0.831433 c 0.07681,0 0.145955,0.0331 0.19602,0.0868 0.05012,0.0537 0.08087,0.12797 0.08087,0.21025 z m -0.154853,-7.90822 -2.48e-4,4.66969 c 0,0.57487 -0.431675,1.03755 -0.968425,1.03755 H 19.61346 c -0.536738,0 -0.968949,-0.46268 -0.968949,-1.03755 v -4.66969 c 0,-0.57487 0.43246,-1.03757 0.969223,-1.03757 h 2.906296 c 0.268316,0 0.510606,0.11581 0.685675,0.30323 0.175083,0.18754 0.283273,0.44691 0.283273,0.73434 z m -1.938917,-3.26779 v 1.3356 c 0,0.16445 -0.123526,0.297 -0.277058,0.297 h -0.831446 c -0.153545,0 -0.277071,-0.13255 -0.277071,-0.297 v -1.3356 c 1.3e-5,-0.16444 0.123526,-0.29674 0.277071,-0.29674 h 0.831446 c 0.07681,0 0.146204,0.0331 0.196268,0.0868 0.05012,0.0537 0.08087,0.12784 0.08087,0.20999 z m 0,9.84015 v 1.33586 c 0,0.16445 -0.123526,0.297 -0.277058,0.297 h -0.831446 c -0.153545,0 -0.277058,-0.13255 -0.277071,-0.297 v -1.3356 c 0,-0.16444 0.123526,-0.29701 0.277071,-0.29701 h 0.831708 c 0.07681,0 0.145942,0.0331 0.196006,0.0867 0.05012,0.0537 0.08087,0.12772 0.08087,0.21001 z m -2.093495,-8.50429 c 0,0.16445 -0.123788,0.29674 -0.277333,0.29674 h -0.831446 c -0.153558,0 -0.276809,-0.13229 -0.276809,-0.29674 l -2.62e-4,-1.33586 c 0,-0.16444 0.123526,-0.29674 0.277071,-0.29674 h 0.831708 c 0.07681,0 0.145942,0.0331 0.196006,0.0868 0.05012,0.0537 0.08087,0.12784 0.08087,0.20999 z m 0,8.50455 -2.75e-4,1.3356 c 0,0.16445 -0.123265,0.297 -0.276796,0.297 l -0.83146,-2.7e-4 c -0.153544,0 -0.277319,-0.1323 -0.277319,-0.29674 l 2.62e-4,-1.3356 c 0,-0.16445 0.123526,-0.297 0.277057,-0.297 h 0.83146 c 0.07681,0 0.145942,0.0331 0.196006,0.0867 0.05012,0.0537 0.08113,0.12798 0.08113,0.21026 z"
       style="display:inline;opacity:1;fill:#eff0f1;fill-opacity:1;stroke:#474747;stroke-width:0.14655671;stroke-linecap:round;stroke-linejoin:bevel;stroke-miterlimit:17.60000038;stroke-dasharray:none;stroke-dashoffset:0;stroke-opacity:1;paint-order:stroke fill markers" />
    <path
       style="display:inline;opacity:1;fill:#353535;fill-opacity:1;stroke:none;stroke-width:0.55476034;stroke-linecap:round;stroke-linejoin:bevel;stroke-miterlimit:17.60000038;stroke-dasharray:none;stroke-dashoffset:0;stroke-opacity:0.97647059;paint-order:stroke fill markers"
       d="m 42.598552,241.22702 -12.144051,0.11502 v 7.84114 l 12.144051,-0.11502 z"
       id="path851"
       inkscape:connector-curvature="0" />
    <path
       style="display:inline;opacity:1;fill:#eff0f1;fill-opacity:1;stroke:#474747;stroke-width:0.14655671;stroke-linecap:round;stroke-linejoin:bevel;stroke-miterlimit:17.60000038;stroke-dasharray:none;stroke-dashoffset:0;stroke-opacity:1;paint-order:stroke fill markers"
       d="m 30.129077,238.6612 -0.122676,0.12261 v 12.96274 H 43.12248 v -13.08541 z m 0.784613,0.61593 h 0.830617 c 0.07681,0 0.146728,0.0332 0.196793,0.0869 0.05012,0.0536 0.07923,0.12745 0.07923,0.20956 v 1.3341 c 0,0.16445 -0.122479,0.29648 -0.276021,0.29648 h -0.830617 c -0.153556,0 -0.278575,-0.13203 -0.278575,-0.29648 v -1.3341 c 0,-0.16444 0.125031,-0.29646 0.278575,-0.29646 z m 2.093155,0 h 0.830617 c 0.07681,0 0.146727,0.0332 0.196792,0.0869 0.05012,0.0536 0.08178,0.12745 0.08178,0.20956 v 1.3341 c 0,0.16445 -0.125045,0.29648 -0.278576,0.29648 h -0.830617 c -0.153544,0 -0.278577,-0.13203 -0.278577,-0.29648 v -1.3341 c 1.4e-5,-0.16444 0.125032,-0.29646 0.278577,-0.29646 z m 2.093154,0 h 0.830617 c 0.07681,0 0.146715,0.0332 0.196793,0.0869 0.05012,0.0536 0.08178,0.12745 0.08178,0.20956 v 1.3341 c 0,0.16445 -0.125045,0.29648 -0.278577,0.29648 h -0.830617 c -0.153544,0 -0.27602,-0.13203 -0.27602,-0.29648 v -1.3341 c 0,-0.16444 0.12248,-0.29646 0.27602,-0.29646 z m 2.093155,0 h 0.833171 c 0.07681,0 0.144186,0.0332 0.194238,0.0869 0.05012,0.0536 0.08178,0.12745 0.08178,0.20956 v 1.3341 c 0,0.16445 -0.122492,0.29648 -0.276021,0.29648 h -0.833171 c -0.153544,0 -0.276021,-0.13203 -0.276021,-0.29648 v -1.3341 c 0,-0.16444 0.122479,-0.29646 0.276021,-0.29646 z m 2.093154,0 h 0.833172 c 0.07681,0 0.146727,0.0332 0.196792,0.0869 0.05012,0.0536 0.07923,0.12745 0.07923,0.20956 v 1.3341 c 0,0.16445 -0.122479,0.29648 -0.27602,0.29648 H 39.28631 c -0.153558,0 -0.276021,-0.13205 -0.276021,-0.29648 v -1.3341 c 0,-0.16444 0.122492,-0.29646 0.276021,-0.29646 z m 2.095709,0 h 0.830617 c 0.07681,0 0.146728,0.0332 0.196793,0.0869 0.05012,0.0536 0.07923,0.12732 0.07923,0.20956 v 1.3341 c 0,0.16443 -0.122492,0.29648 -0.276021,0.29648 h -0.830617 c -0.153543,0 -0.278575,-0.13203 -0.278575,-0.29648 v -1.3341 c 0,-0.16445 0.125031,-0.29646 0.278575,-0.29646 z m -9.203234,2.52508 h 2.905881 c 0.268316,0 0.50987,0.11672 0.68494,0.30413 0.175083,0.18754 0.283688,0.44607 0.283688,0.73351 v 4.66934 c 0,0.57487 -0.431876,1.03762 -0.968628,1.03762 h -2.905881 c -0.536737,0 -0.968626,-0.46275 -0.968626,-1.03762 v -4.66934 c 0,-0.57487 0.431863,-1.03764 0.968626,-1.03764 z m 6.279464,0 h 2.908436 c 0.268369,0 0.509856,0.11659 0.684939,0.30413 0.175083,0.18754 0.283688,0.44607 0.283688,0.73351 v 4.66934 c 0,0.57487 -0.431876,1.03762 -0.968627,1.03762 h -2.908436 c -0.536751,0 -0.968628,-0.46275 -0.968628,-1.03762 v -4.66934 c 0,-0.57487 0.431878,-1.03764 0.968628,-1.03764 z m -7.544557,7.31454 h 0.830617 c 0.07681,0 0.146728,0.0332 0.196793,0.0869 0.05012,0.0537 0.07923,0.12733 0.07923,0.20957 v 1.33666 c 0,0.16444 -0.122492,0.29646 -0.276021,0.29646 h -0.830617 c -0.153543,0 -0.278575,-0.13202 -0.278575,-0.29646 v -1.33666 c 0,-0.16445 0.125044,-0.29647 0.278575,-0.29647 z m 2.093155,0 h 0.830617 c 0.07681,0 0.146727,0.0332 0.196792,0.0869 0.05012,0.0537 0.08178,0.12733 0.08178,0.20957 v 1.33666 c 0,0.16444 -0.125045,0.29646 -0.278576,0.29646 h -0.830617 c -0.153544,0 -0.278563,-0.13202 -0.278577,-0.29646 v -1.33666 c 0,-0.16445 0.125032,-0.29647 0.278577,-0.29647 z m 2.093154,0 h 0.830617 c 0.07681,0 0.146728,0.0332 0.196793,0.0869 0.05012,0.0537 0.08178,0.12733 0.08178,0.20957 v 1.33666 c 0,0.16444 -0.125045,0.29646 -0.278577,0.29646 h -0.830617 c -0.153544,0 -0.27602,-0.13202 -0.27602,-0.29646 v -1.33666 c 0,-0.16445 0.12248,-0.29647 0.27602,-0.29647 z m 2.093155,0 h 0.833171 c 0.07681,0 0.144173,0.0332 0.194238,0.0869 0.05012,0.0537 0.08178,0.12733 0.08178,0.20957 v 1.33666 c 0,0.16444 -0.122479,0.29646 -0.276021,0.29646 h -0.833171 c -0.153531,0 -0.276021,-0.13202 -0.276021,-0.29646 v -1.33666 c 0,-0.16446 0.122492,-0.29647 0.276021,-0.29647 z m 2.093154,0 h 0.833172 c 0.07681,0 0.146727,0.0332 0.196792,0.0869 0.05012,0.0537 0.07923,0.12733 0.07923,0.20957 v 1.33666 c 0,0.16444 -0.122479,0.29646 -0.27602,0.29646 H 39.28631 c -0.153532,1e-5 -0.276021,-0.13202 -0.276021,-0.29646 v -1.33666 c 0,-0.16445 0.122492,-0.29647 0.276021,-0.29647 z m 2.095709,0 h 0.830617 c 0.07681,0 0.146728,0.0332 0.196793,0.0869 0.05012,0.0537 0.07923,0.12733 0.07923,0.20957 v 1.33666 c 0,0.16444 -0.122492,0.29646 -0.276021,0.29646 h -0.830617 c -0.153543,0 -0.278575,-0.13202 -0.278575,-0.29646 v -1.33666 c 0,-0.16446 0.125031,-0.29647 0.278575,-0.29647 z"
       id="path853"
       inkscape:connector-curvature="0" />
  </g>
</svg>
