<?xml version="1.0" encoding="UTF-8" standalone="no"?>
<svg
   version="1"
   viewBox="0 0 24 24"
   enable-background="new 0 0 48 48"
   id="svg12"
   sodipodi:docname="add-queue.svg"
   inkscape:version="1.2.2 (b0a8486541, 2022-12-01)"
   width="24"
   height="24"
   xmlns:inkscape="http://www.inkscape.org/namespaces/inkscape"
   xmlns:sodipodi="http://sodipodi.sourceforge.net/DTD/sodipodi-0.dtd"
   xmlns="http://www.w3.org/2000/svg"
   xmlns:svg="http://www.w3.org/2000/svg"
   xmlns:rdf="http://www.w3.org/1999/02/22-rdf-syntax-ns#"
   xmlns:cc="http://creativecommons.org/ns#"
   xmlns:dc="http://purl.org/dc/elements/1.1/">
  <metadata
     id="metadata18">
    <rdf:RDF>
      <cc:Work
         rdf:about="">
        <dc:format>image/svg+xml</dc:format>
        <dc:type
           rdf:resource="http://purl.org/dc/dcmitype/StillImage" />
        <dc:title />
      </cc:Work>
    </rdf:RDF>
  </metadata>
  <defs
     id="defs16">
    <inkscape:path-effect
       effect="bspline"
       id="path-effect4517"
       is_visible="true"
       weight="33.333333"
       steps="2"
       helper_size="0"
       apply_no_weight="true"
       apply_with_weight="true"
       only_selected="false" />
    <inkscape:perspective
       sodipodi:type="inkscape:persp3d"
       inkscape:vp_x="2.1085087 : -0.01579032 : 1"
       inkscape:vp_y="-9.1717358 : 40.677048 : 0"
       inkscape:vp_z="2.439686 : 0.66241427 : 1"
       inkscape:persp3d-origin="2.3474712 : -0.0021044275 : 1"
       id="perspective4515" />
  </defs>
  <sodipodi:namedview
     pagecolor="#ffffff"
     bordercolor="#666666"
     borderopacity="1"
     objecttolerance="10"
     gridtolerance="10"
     guidetolerance="10"
     inkscape:pageopacity="0"
     inkscape:pageshadow="2"
     inkscape:window-width="1920"
     inkscape:window-height="1007"
     id="namedview14"
     showgrid="true"
     inkscape:zoom="22.84"
     inkscape:cx="-2.1234676"
     inkscape:cy="8.6252189"
     inkscape:window-x="0"
     inkscape:window-y="0"
     inkscape:window-maximized="1"
     inkscape:current-layer="svg12"
     inkscape:document-rotation="0"
     inkscape:showpageshadow="2"
     inkscape:pagecheckerboard="0"
     inkscape:deskcolor="#d1d1d1">
    <inkscape:grid
       type="xygrid"
       id="grid4510" />
  </sodipodi:namedview>
  <path
     inkscape:connector-curvature="0"
     style="opacity:1;fill:#1e90ff;fill-opacity:1;fill-rule:nonzero;stroke:none;stroke-width:1.72833216;stroke-linecap:square;stroke-linejoin:miter;stroke-miterlimit:4;stroke-dasharray:none;stroke-opacity:1;paint-order:markers fill stroke"
     d="M 6,0 C 2.676,0 0,2.676 0,6 v 12 c 0,3.324 2.676,6 6,6 h 12 c 3.324,0 6,-2.676 6,-6 V 6 C 24,2.676 21.324,0 18,0 Z m 0.5,1 h 11 C 20.547,1 23,3.453 23,6.5 v 11 C 23,20.547 20.547,23 17.5,23 H 6.5 C 3.453,23 1,20.547 1,17.5 V 6.5 C 1,3.453 3.453,1 6.5,1 Z"
     id="rect828-3" />
  <path
     sodipodi:type="star"
     style="fill:#0074e8;fill-opacity:1"
     id="path285"
     inkscape:flatsided="false"
     sodipodi:sides="3"
     sodipodi:cx="-7.9460692"
     sodipodi:cy="13.968438"
     sodipodi:r1="11.607368"
     sodipodi:r2="5.8036842"
     sodipodi:arg1="0"
     sodipodi:arg2="1.0471976"
     inkscape:rounded="0"
     inkscape:randomized="0"
     d="m 3.6612992,13.968438 -8.7055266,5.026138 -8.7055256,5.026138 0,-10.052276 0,-10.0522758 8.7055261,5.0261381 z"
     inkscape:transform-center-x="-1.2310497"
     transform="matrix(0.42423043,0,0,0.79166555,18.647824,0.94166879)" />
  <path
     sodipodi:type="star"
     style="fill:#1e90ff;fill-opacity:1"
     id="path283"
     inkscape:flatsided="false"
     sodipodi:sides="3"
     sodipodi:cx="-7.9460692"
     sodipodi:cy="13.968438"
     sodipodi:r1="11.607368"
     sodipodi:r2="5.8036842"
     sodipodi:arg1="0"
     sodipodi:arg2="1.0471976"
     inkscape:rounded="0"
     inkscape:randomized="0"
     d="m 3.6612992,13.968438 -8.7055266,5.026138 -8.7055256,5.026138 0,-10.052276 0,-10.0522758 8.7055261,5.0261381 z"
     inkscape:transform-center-x="-1.2310497"
     transform="matrix(0.42423043,0,0,0.79166555,14.647824,0.94166879)" />
  <path
     sodipodi:type="star"
     style="fill:#57acff;fill-opacity:1"
     id="path281"
     inkscape:flatsided="false"
     sodipodi:sides="3"
     sodipodi:cx="-7.9460692"
     sodipodi:cy="13.968438"
     sodipodi:r1="11.607368"
     sodipodi:r2="5.8036842"
     sodipodi:arg1="0"
     sodipodi:arg2="1.0471976"
     inkscape:rounded="0"
     inkscape:randomized="0"
     d="m 3.6612992,13.968438 -8.7055266,5.026138 -8.7055256,5.026138 0,-10.052276 0,-10.0522758 8.7055261,5.0261381 z"
     inkscape:transform-center-x="-1.2310497"
     transform="matrix(0.42423043,0,0,0.79166555,10.647824,0.94166879)" />
  <path
     id="rect824"
     style="fill:#32cd32;fill-opacity:1;fill-rule:nonzero;stroke:#000000;stroke-width:0.339;stroke-linecap:round;stroke-linejoin:round;stroke-miterlimit:4;stroke-dasharray:none;stroke-opacity:1"
     d="M -13 -8.4199219 L -13 -12.933594 L -8.46875 -12.933594 L -8.46875 -16.955078 L -13 -16.955078 L -13 -21.46875 L -16.986328 -21.46875 L -16.986328 -16.955078 L -21.517578 -16.955078 L -21.517578 -12.933594 L -16.986328 -12.933594 L -16.986328 -8.4199219 L -13 -8.4199219 z "
     transform="scale(-1)" />
</svg>
