<?xml version="1.0" encoding="UTF-8" standalone="no"?>
<svg
   version="1"
   viewBox="0 0 16 16"
   enable-background="new 0 0 48 48"
   id="svg12"
   sodipodi:docname="restoreall.svg"
   inkscape:version="1.2.2 (b0a8486541, 2022-12-01)"
   width="16"
   height="16"
   xmlns:inkscape="http://www.inkscape.org/namespaces/inkscape"
   xmlns:sodipodi="http://sodipodi.sourceforge.net/DTD/sodipodi-0.dtd"
   xmlns="http://www.w3.org/2000/svg"
   xmlns:svg="http://www.w3.org/2000/svg"
   xmlns:rdf="http://www.w3.org/1999/02/22-rdf-syntax-ns#"
   xmlns:cc="http://creativecommons.org/ns#"
   xmlns:dc="http://purl.org/dc/elements/1.1/">
  <metadata
     id="metadata18">
    <rdf:RDF>
      <cc:Work
         rdf:about="">
        <dc:format>image/svg+xml</dc:format>
        <dc:type
           rdf:resource="http://purl.org/dc/dcmitype/StillImage" />
        <dc:title />
      </cc:Work>
    </rdf:RDF>
  </metadata>
  <defs
     id="defs16">
    <inkscape:perspective
       sodipodi:type="inkscape:persp3d"
       inkscape:vp_x="2.1085087 : -0.01579032 : 1"
       inkscape:vp_y="-9.1717358 : 40.677048 : 0"
       inkscape:vp_z="2.439686 : 0.66241427 : 1"
       inkscape:persp3d-origin="2.3474712 : -0.0021044275 : 1"
       id="perspective4515" />
  </defs>
  <sodipodi:namedview
     pagecolor="#ffffff"
     bordercolor="#666666"
     borderopacity="1"
     objecttolerance="10"
     gridtolerance="10"
     guidetolerance="10"
     inkscape:pageopacity="0"
     inkscape:pageshadow="2"
     inkscape:window-width="1920"
     inkscape:window-height="1007"
     id="namedview14"
     showgrid="true"
     inkscape:zoom="19.884984"
     inkscape:cx="8.4485861"
     inkscape:cy="4.5763175"
     inkscape:window-x="0"
     inkscape:window-y="0"
     inkscape:window-maximized="1"
     inkscape:current-layer="svg12"
     inkscape:measure-start="37,16"
     inkscape:measure-end="41,16"
     inkscape:document-rotation="0"
     inkscape:showpageshadow="0"
     inkscape:pagecheckerboard="1"
     inkscape:deskcolor="#d1d1d1">
    <inkscape:grid
       type="xygrid"
       id="grid4510" />
  </sodipodi:namedview>
  <path
     id="path245"
     style="color:#444444;fill:#444444;stroke-width:1.05514;fill-opacity:1"
     class="ColorScheme-Text"
     d="m 1.6691473,1.1415759 c 0,0 -1.05514207,10e-7 -1.05514207,1.055142 V 13.803282 c 0,0 1e-6,1.055142 1.05514207,1.055142 H 14.330853 c 0,0 1.055142,-10e-7 1.055142,-1.055142 V 4.3070023 c 0,-1.055141 -1.055142,-1.0551422 -1.055142,-1.0551422 H 9.0551423 L 6.9448583,1.1415759 Z" />
  <rect
     style="display:none;opacity:1;fill:#555753;fill-opacity:1;fill-rule:nonzero;stroke:none;stroke-width:1.01552558;stroke-linecap:square;stroke-linejoin:round;stroke-miterlimit:4;stroke-dasharray:none;stroke-dashoffset:0;stroke-opacity:1;paint-order:stroke fill markers"
     id="rect6013"
     width="36.7374"
     height="6.4986739"
     x="5.3050394"
     y="-4.0742702"
     ry="2.2546401" />
  <rect
     ry="2.2546401"
     y="5.9257278"
     x="5.3050394"
     height="6.4986739"
     width="36.7374"
     id="rect6015"
     style="display:none;opacity:1;fill:#555753;fill-opacity:1;fill-rule:nonzero;stroke:none;stroke-width:1.01552558;stroke-linecap:square;stroke-linejoin:round;stroke-miterlimit:4;stroke-dasharray:none;stroke-dashoffset:0;stroke-opacity:1;paint-order:stroke fill markers" />
  <rect
     style="display:none;opacity:1;fill:#555753;fill-opacity:1;fill-rule:nonzero;stroke:none;stroke-width:0.90502864;stroke-linecap:square;stroke-linejoin:round;stroke-miterlimit:4;stroke-dasharray:none;stroke-dashoffset:0;stroke-opacity:1;paint-order:stroke fill markers"
     id="rect6009"
     width="29.177719"
     height="6.4986739"
     x="5.3050394"
     y="-24.07427"
     ry="2.2546401" />
  <rect
     ry="2.2546401"
     y="-14.07427"
     x="5.3050394"
     height="6.4986739"
     width="36.7374"
     id="rect6011"
     style="display:none;opacity:1;fill:#555753;fill-opacity:1;fill-rule:nonzero;stroke:none;stroke-width:1.01552558;stroke-linecap:square;stroke-linejoin:round;stroke-miterlimit:4;stroke-dasharray:none;stroke-dashoffset:0;stroke-opacity:1;paint-order:stroke fill markers" />
  <path
     style="fill:#dfdfdf;fill-opacity:1;fill-rule:nonzero;stroke:none;stroke-width:1.47988;stroke-linecap:square;stroke-linejoin:miter;stroke-miterlimit:4;stroke-dasharray:none;stroke-opacity:1;paint-order:markers fill stroke"
     d="M 13.978115,8.2638391 H 12.63028 A 5.3172493,5.3172493 0 0 0 7.3385314,3.4368603 5.3172493,5.3172493 0 0 0 2.0218853,8.7551684 5.3172493,5.3172493 0 0 0 7.3385314,14.071813 5.3172493,5.3172493 0 0 0 10.198532,13.223606 L 9.2009347,12.224349 A 3.9404946,3.9404946 0 0 1 7.3385314,12.695759 3.9404946,3.9404946 0 0 1 3.3979382,8.7551684 3.9404946,3.9404946 0 0 1 7.3385314,4.8145747 3.9404946,3.9404946 0 0 1 11.244267,8.2638391 h -0.0249 -1.4291696 l 1.0457346,1.8126059 1.047394,1.814263 1.047394,-1.814263 z"
     id="path838"
     inkscape:connector-curvature="0" />
</svg>
