<?xml version="1.0" encoding="UTF-8" standalone="no"?>
<!-- Created with Inkscape (http://www.inkscape.org/) -->

<svg
   xmlns:osb="http://www.openswatchbook.org/uri/2009/osb"
   xmlns:dc="http://purl.org/dc/elements/1.1/"
   xmlns:cc="http://creativecommons.org/ns#"
   xmlns:rdf="http://www.w3.org/1999/02/22-rdf-syntax-ns#"
   xmlns:svg="http://www.w3.org/2000/svg"
   xmlns="http://www.w3.org/2000/svg"
   xmlns:xlink="http://www.w3.org/1999/xlink"
   xmlns:sodipodi="http://sodipodi.sourceforge.net/DTD/sodipodi-0.dtd"
   xmlns:inkscape="http://www.inkscape.org/namespaces/inkscape"
   width="256px"
   height="256px"
   viewBox="0 0 256 256"
   version="1.1"
   id="SVGRoot"
   sodipodi:docname="videomass-v7.svg"
   inkscape:version="0.92.4 (5da689c313, 2019-01-14)"
   enable-background="new">
  <sodipodi:namedview
     id="base"
     pagecolor="#ffffff"
     bordercolor="#666666"
     borderopacity="1.0"
     inkscape:pageopacity="0.0"
     inkscape:pageshadow="2"
     inkscape:zoom="2.32"
     inkscape:cx="101.58297"
     inkscape:cy="114.25573"
     inkscape:document-units="px"
     inkscape:current-layer="layer2"
     showgrid="true"
     inkscape:window-width="1920"
     inkscape:window-height="1015"
     inkscape:window-x="0"
     inkscape:window-y="0"
     inkscape:window-maximized="1"
     inkscape:grid-bbox="true"
     inkscape:measure-start="110,130"
     inkscape:measure-end="0,0"
     showguides="true">
    <inkscape:grid
       type="xygrid"
       id="grid5114" />
  </sodipodi:namedview>
  <defs
     id="defs4485">
    <linearGradient
       inkscape:collect="always"
       id="linearGradient1141">
      <stop
         style="stop-color:#2b0000;stop-opacity:1;"
         offset="0"
         id="stop1137" />
      <stop
         style="stop-color:#290000;stop-opacity:0.03308824"
         offset="1"
         id="stop1139" />
    </linearGradient>
    <inkscape:path-effect
       effect="bspline"
       id="path-effect4551"
       is_visible="true"
       weight="33.333333"
       steps="2"
       helper_size="0"
       apply_no_weight="true"
       apply_with_weight="true"
       only_selected="false" />
    <inkscape:path-effect
       effect="skeletal"
       id="path-effect4547"
       is_visible="true"
       pattern="M 0,5 C 0,2.24 2.24,0 5,0 7.76,0 10,2.24 10,5 10,7.76 7.76,10 5,10 2.24,10 0,7.76 0,5 Z"
       copytype="single_stretched"
       prop_scale="1"
       scale_y_rel="false"
       spacing="0"
       normal_offset="0"
       tang_offset="0"
       prop_units="false"
       vertical_pattern="false"
       fuse_tolerance="0" />
    <inkscape:path-effect
       effect="bspline"
       id="path-effect4545"
       is_visible="true"
       weight="33.333333"
       steps="2"
       helper_size="0"
       apply_no_weight="true"
       apply_with_weight="true"
       only_selected="false" />
    <inkscape:path-effect
       effect="skeletal"
       id="path-effect4541"
       is_visible="true"
       pattern="M 0,5 C 0,2.24 2.24,0 5,0 7.76,0 10,2.24 10,5 10,7.76 7.76,10 5,10 2.24,10 0,7.76 0,5 Z"
       copytype="single_stretched"
       prop_scale="1"
       scale_y_rel="false"
       spacing="0"
       normal_offset="0"
       tang_offset="0"
       prop_units="false"
       vertical_pattern="false"
       fuse_tolerance="0" />
    <inkscape:path-effect
       effect="spiro"
       id="path-effect4539"
       is_visible="true" />
    <inkscape:path-effect
       effect="bspline"
       id="path-effect4535"
       is_visible="true"
       weight="33.333333"
       steps="2"
       helper_size="0"
       apply_no_weight="true"
       apply_with_weight="true"
       only_selected="false" />
    <inkscape:path-effect
       effect="skeletal"
       id="path-effect4531"
       is_visible="true"
       pattern="M 0,5 C 0,2.24 2.24,0 5,0 7.76,0 10,2.24 10,5 10,7.76 7.76,10 5,10 2.24,10 0,7.76 0,5 Z"
       copytype="single_stretched"
       prop_scale="1"
       scale_y_rel="false"
       spacing="0"
       normal_offset="0"
       tang_offset="0"
       prop_units="false"
       vertical_pattern="false"
       fuse_tolerance="0" />
    <inkscape:path-effect
       effect="bspline"
       id="path-effect4529"
       is_visible="true"
       weight="33.333333"
       steps="2"
       helper_size="0"
       apply_no_weight="true"
       apply_with_weight="true"
       only_selected="false" />
    <inkscape:path-effect
       effect="skeletal"
       id="path-effect4525"
       is_visible="true"
       pattern="M 0,5 C 0,2.24 2.24,0 5,0 7.76,0 10,2.24 10,5 10,7.76 7.76,10 5,10 2.24,10 0,7.76 0,5 Z"
       copytype="single_stretched"
       prop_scale="1"
       scale_y_rel="false"
       spacing="0"
       normal_offset="0"
       tang_offset="0"
       prop_units="false"
       vertical_pattern="false"
       fuse_tolerance="0" />
    <inkscape:path-effect
       effect="bspline"
       id="path-effect4523"
       is_visible="true"
       weight="33.333333"
       steps="2"
       helper_size="0"
       apply_no_weight="true"
       apply_with_weight="true"
       only_selected="false" />
    <inkscape:path-effect
       effect="bspline"
       id="path-effect4519"
       is_visible="true"
       weight="33.333333"
       steps="2"
       helper_size="0"
       apply_no_weight="true"
       apply_with_weight="true"
       only_selected="false" />
    <linearGradient
       inkscape:collect="always"
       id="linearGradient4752">
      <stop
         style="stop-color:#888a85;stop-opacity:1;"
         offset="0"
         id="stop4748" />
      <stop
         style="stop-color:#888a85;stop-opacity:0;"
         offset="1"
         id="stop4750" />
    </linearGradient>
    <pattern
       inkscape:isstock="true"
       inkscape:stockid="Stripes 1:1"
       id="Strips1_1"
       patternTransform="translate(0,0) scale(10,10)"
       height="1"
       width="2"
       patternUnits="userSpaceOnUse"
       inkscape:collect="always">
      <rect
         id="rect5447"
         height="2"
         width="1"
         y="-0.5"
         x="0"
         style="fill:black;stroke:none" />
    </pattern>
    <linearGradient
       id="linearGradient4727"
       osb:paint="solid">
      <stop
         style="stop-color:#ce5c00;stop-opacity:1;"
         offset="0"
         id="stop4725" />
    </linearGradient>
    <pattern
       patternUnits="userSpaceOnUse"
       width="55"
       height="90"
       patternTransform="translate(-60,50.5)"
       id="pattern6214">
      <g
         style="fill:url(#Strips1_1);fill-opacity:1"
         transform="translate(-15,-28.5)"
         id="g4691">
        <rect
           style="opacity:0.81499999;fill:url(#Strips1_1);fill-opacity:1;stroke:none;stroke-width:4.52699995;stroke-linecap:round;stroke-linejoin:bevel;stroke-miterlimit:17.60000038;stroke-dasharray:none;stroke-dashoffset:0;stroke-opacity:1;paint-order:stroke fill markers"
           id="rect4683"
           width="30"
           height="30"
           x="40"
           y="59"
           ry="7.9000001" />
        <path
           inkscape:connector-curvature="0"
           style="opacity:0.81499999;fill:url(#Strips1_1);fill-opacity:1;stroke:none;stroke-width:8.60130024;stroke-linecap:round;stroke-linejoin:bevel;stroke-miterlimit:17.60000038;stroke-dasharray:none;stroke-dashoffset:0;stroke-opacity:1;paint-order:stroke fill markers"
           d="m 15,28.5 v 90 l 45,-45 z"
           id="path4687" />
      </g>
    </pattern>
    <linearGradient
       inkscape:collect="always"
       xlink:href="#linearGradient4752"
       id="linearGradient4754"
       x1="11.826138"
       y1="245.7171"
       x2="149.78668"
       y2="106.13758"
       gradientUnits="userSpaceOnUse"
       gradientTransform="matrix(0.95425703,0,0,0.95425703,5.390281,5.594659)" />
    <linearGradient
       inkscape:collect="always"
       xlink:href="#linearGradient1141"
       id="linearGradient857"
       gradientUnits="userSpaceOnUse"
       gradientTransform="matrix(1.5311073,1.1277739e-8,-1.1277739e-8,1.5311073,410.93758,-68.244713)"
       x1="-284.72046"
       y1="166.05284"
       x2="-78.987007"
       y2="133.39673" />
  </defs>
  <metadata
     id="metadata4488">
    <rdf:RDF>
      <cc:Work
         rdf:about="">
        <dc:format>image/svg+xml</dc:format>
        <dc:type
           rdf:resource="http://purl.org/dc/dcmitype/StillImage" />
        <dc:title></dc:title>
      </cc:Work>
    </rdf:RDF>
  </metadata>
  <g
     inkscape:groupmode="layer"
     id="layer3"
     inkscape:label="sfondo"
     style="display:inline">
    <rect
       style="display:inline;opacity:1;fill:#eeeeec;fill-opacity:1;stroke:none;stroke-width:2.40400004;stroke-linecap:round;stroke-linejoin:bevel;stroke-miterlimit:17.60000038;stroke-dasharray:none;stroke-dashoffset:0;stroke-opacity:0.97647059;paint-order:stroke fill markers"
       id="rect4568-3"
       width="222.07193"
       height="222.07193"
       x="16.675457"
       y="18"
       ry="22.6604" />
  </g>
  <g
     style="display:inline"
     inkscape:label="sfondo copia"
     id="g4738"
     inkscape:groupmode="layer">
    <rect
       ry="22.6604"
       y="18"
       x="16.675457"
       height="222.07193"
       width="222.07193"
       id="rect4736"
       style="display:inline;opacity:1;fill:url(#linearGradient4754);fill-opacity:1;stroke:none;stroke-width:7.00387716;stroke-linecap:round;stroke-linejoin:bevel;stroke-miterlimit:17.60000038;stroke-dasharray:none;stroke-dashoffset:0;stroke-opacity:0.97647059;paint-order:stroke fill markers" />
    <path
       style="display:inline;opacity:1;fill:url(#linearGradient857);fill-opacity:1;stroke:none;stroke-width:10.72368813;stroke-linecap:round;stroke-linejoin:bevel;stroke-miterlimit:17.60000038;stroke-dasharray:none;stroke-dashoffset:0;stroke-opacity:0.97647059;paint-order:stroke fill markers"
       d="M 155.24609,18 16.67578,158.08203 v 59.33008 c 0,12.55386 10.1063,22.66016 22.66016,22.66016 H 96.88672 L 238.74805,96.662109 V 40.660156 C 238.74805,28.106294 228.64175,18 216.08789,18 Z"
       id="path853"
       inkscape:connector-curvature="0" />
    <path
       style="display:inline;opacity:1;fill:#280b0b;fill-opacity:0.97794118;stroke:none;stroke-width:10.72368813;stroke-linecap:round;stroke-linejoin:bevel;stroke-miterlimit:17.60000038;stroke-dasharray:none;stroke-dashoffset:0;stroke-opacity:0.97647059;paint-order:stroke fill markers"
       d="m 102.08594,18 -85.41016,85.41211 v 12.68945 l 8.44141,-8.43945 c 0.79397,-0.79396 1.85101,-1.16803 2.92383,-1.13086 1.07279,0.0372 2.16133,0.48752 3.01171,1.33789 l 13.81446,13.81445 c 1.70073,1.70073 1.79304,4.34563 0.20508,5.9336 l -8.59961,8.59961 c -1.58798,1.58799 -4.23676,1.49761 -5.9375,-0.20313 l -13.8125,-13.81445 c -0.0177,-0.0177 -0.0295,-0.0387 -0.0469,-0.0566 v 14.65625 l 6.53711,6.53711 c 1.70074,1.70073 1.79303,4.34759 0.20508,5.93554 l -6.74219,6.74219 v 12.35938 l 25.82031,-25.81836 c 2.77559,-2.7756 6.47608,-4.08591 10.22657,-3.95703 3.75048,0.12893 7.54877,1.69524 10.52148,4.66796 l 48.29492,48.29493 c 5.94543,5.94541 6.26604,15.19685 0.71485,20.74804 l -27.76368,27.76368 h 11.83204 c 0.10039,-0.13043 0.19123,-0.26741 0.31054,-0.38672 l 8.60157,-8.59961 c 0.79399,-0.79396 1.85101,-1.16802 2.92382,-1.13086 1.07279,0.0372 2.15746,0.48363 3.00782,1.33398 l 8.7832,8.78321 h 30.73242 l 88.06641,-88.06836 V 127.6934 l -11.99024,-11.99024 c -1.70073,-1.70073 -1.795,-4.34759 -0.20703,-5.93554 l 8.59961,-8.60156 c 0.79399,-0.794 1.85492,-1.168047 2.92773,-1.13086 v 0.002 c 0.22381,0.008 0.44728,0.0424 0.66993,0.0859 V 85.814453 l -26.63867,26.638667 c -5.55118,5.55119 -14.8085,5.23255 -20.75391,-0.71289 L 143.0625,63.449219 c -5.9454,-5.945427 -6.26211,-15.202731 -0.71094,-20.753907 L 167.04688,18 h -12.83399 c -0.18801,0.496522 -0.47909,0.957608 -0.875,1.353516 l -8.59961,8.597656 c -1.58796,1.587958 -4.23676,1.497614 -5.9375,-0.203125 L 129.05469,18 Z m 95.73047,0 40.93164,40.933594 V 40.660156 c 0,-3.177956 -0.64926,-6.197456 -1.82032,-8.9375 L 225.02539,19.820312 C 222.2853,18.649209 219.26591,18 216.08789,18 Z m -83.16407,1.919922 h 0.002 c 1.07281,0.03718 2.16136,0.485568 3.01172,1.335937 l 13.8125,13.8125 c 1.70074,1.700738 1.79303,4.349529 0.20507,5.9375 l -8.59961,8.59961 c -1.58797,1.587966 -4.2348,1.49761 -5.93554,-0.203125 L 103.33402,35.587891 c -1.70075,-1.70074 -1.79498,-4.349543 -0.20703,-5.9375 l 8.60157,-8.59961 c 0.79397,-0.793976 1.85104,-1.168051 2.92382,-1.130859 z M 93,41.572266 c 1.0728,0.03717 2.16136,0.487517 3.01172,1.33789 l 13.8125,13.8125 c 1.70072,1.700731 1.79498,4.347584 0.20703,5.935547 l -8.60156,8.601563 c -1.58797,1.587966 -4.2348,1.493702 -5.93555,-0.207032 l -13.8125,-13.8125 c -1.70076,-1.70074 -1.795,-4.347571 -0.20703,-5.935546 l 8.60156,-8.601563 C 90.87013,41.909158 91.92718,41.535091 93,41.572266 Z M 71.34961,63.226562 c 1.0728,0.03717 2.15743,0.487517 3.00781,1.337891 l 13.81446,13.8125 c 1.70073,1.700737 1.79303,4.347599 0.20507,5.935547 l -8.60156,8.601562 c -1.58798,1.587979 -4.23286,1.493706 -5.93359,-0.207031 l -13.81446,-13.8125 c -1.70074,-1.700742 -1.79109,-4.349534 -0.20312,-5.9375 l 8.59766,-8.599609 c 0.79399,-0.793985 1.85493,-1.168045 2.92773,-1.13086 z m 46.33008,10.414063 c 3.75047,0.128883 7.55073,1.695257 10.52343,4.667969 l 48.29493,48.292966 c 5.94541,5.94541 6.26407,15.19883 0.71289,20.75 l -30.06055,30.06055 c -5.55116,5.55118 -14.80851,5.23645 -20.75391,-0.70899 L 78.10156,128.40625 c -5.94542,-5.9454 -6.26016,-15.19881 -0.70898,-20.75 l 30.06054,-30.0625 c 2.77558,-2.775591 6.47607,-4.081986 10.22657,-3.953125 z M 49.69531,84.880859 c 1.07281,0.03721 2.15743,0.483608 3.00781,1.333985 l 13.81641,13.816406 c 1.70071,1.70074 1.79108,4.3476 0.20313,5.93555 l -8.59766,8.59765 c -1.58796,1.58797 -4.23482,1.49761 -5.93555,-0.20312 l -13.8164,-13.81641 c -1.70074,-1.700736 -1.79109,-4.347572 -0.20313,-5.935545 l 8.60156,-8.597656 c 0.79398,-0.793989 1.85102,-1.168038 2.92383,-1.13086 z m 166.72852,36.808591 c 1.0728,0.0372 2.15939,0.48753 3.00976,1.33789 l 13.81446,13.8125 c 1.70073,1.70075 1.79107,4.34953 0.20312,5.9375 l -8.59765,8.59961 c -1.58797,1.58797 -4.23482,1.4937 -5.93555,-0.20703 l -13.81641,-13.81445 c -1.70075,-1.70076 -1.79107,-4.34758 -0.20312,-5.93555 l 8.59765,-8.59961 c 0.79398,-0.79398 1.85493,-1.16803 2.92774,-1.13086 z m -21.65235,21.6543 c 1.07279,0.0372 2.15941,0.48362 3.00977,1.33398 l 13.81445,13.81446 c 1.70074,1.70074 1.79498,4.34954 0.20703,5.9375 l -8.60156,8.59961 c -1.58796,1.58796 -4.23482,1.49371 -5.93555,-0.20703 l -13.8164,-13.81446 c -1.70075,-1.70075 -1.79108,-4.34563 -0.20313,-5.93359 l 8.60157,-8.59961 c 0.79396,-0.79397 1.85101,-1.16802 2.92382,-1.13086 z m -21.65429,21.65039 c 1.07279,0.0372 2.16134,0.48752 3.01172,1.33789 l 13.8125,13.81445 c 1.70073,1.70074 1.79496,4.3476 0.20703,5.93555 l -8.59961,8.59961 c -1.58797,1.58798 -4.2348,1.49763 -5.93555,-0.20312 l -13.81445,-13.81641 c -1.70075,-1.70075 -1.79501,-4.34757 -0.20703,-5.93555 l 8.59961,-8.59765 c 0.79399,-0.79399 1.85297,-1.17196 2.92578,-1.13477 z m -21.6543,21.6543 c 1.0728,0.0372 2.16135,0.48557 3.01172,1.33594 l 13.81445,13.81445 c 1.70073,1.70072 1.79108,4.34761 0.20313,5.93555 l -8.59961,8.60156 c -1.58797,1.58795 -4.2348,1.49758 -5.93555,-0.20313 l -13.81445,-13.8164 c -1.70075,-1.70074 -1.79303,-4.34759 -0.20508,-5.93555 l 8.59961,-8.60156 c 0.794,-0.79397 1.85298,-1.16608 2.92578,-1.12891 z m -134.78711,10.25 v 20.51367 c 0,5.35689 1.84432,10.26421 4.92969,14.13477 l 3.59765,3.5957 c 3.87037,3.08479 8.77648,4.92969 14.13282,4.92969 h 20.51562 z m 113.13672,11.40234 c 1.0728,0.0372 2.15743,0.48752 3.00781,1.33789 l 13.81446,13.8125 c 1.70073,1.70074 1.79107,4.34956 0.20312,5.9375 l -8.59766,8.59961 c -1.58796,1.58797 -4.2348,1.49371 -5.93554,-0.20703 l -13.81641,-13.8125 c -1.70076,-1.70075 -1.79109,-4.34952 -0.20312,-5.9375 l 8.59961,-8.59961 c 0.79396,-0.79397 1.85492,-1.16804 2.92773,-1.13086 z"
       id="path855"
       inkscape:connector-curvature="0" />
  </g>
  <g
     id="layer1"
     inkscape:groupmode="layer"
     inkscape:label="film strip"
     style="display:inline;opacity:1" />
  <g
     inkscape:groupmode="layer"
     id="layer2"
     inkscape:label="audio"
     style="display:inline">
    <path
       style="display:inline;fill:#73d216;stroke:#000000;stroke-width:0.474;stroke-linecap:butt;stroke-linejoin:miter;stroke-opacity:1;stroke-miterlimit:4;stroke-dasharray:none"
       d="M 44.60251,39.929328 41.1522,85.482035 40.00115,76.366339 38.85293,94.591297 37.70188,46 35.40262,121.91905 V 67.257099 L 34.25157,124.95763 33.10053,112.80977 31.9523,124.95763 30.80126,42.961432 27.35094,106.73911 26.1999,58.147825 23.90063,94.591297 22.74958,79.4049 21.60136,94.591297 20.45031,52.070672 17,131.03475 H 73.35607 L 69.90576,46 68.75471,79.4049 67.60649,70.295633 65.3044,127.99618 64.15618,97.62986 63.00513,118.88691 61.85409,70.295633 59.55482,115.84834 58.40377,100.66195 57.25555,109.77767 56.1045,91.552721 54.95346,124.95763 53.80523,52.070672 51.50314,94.591297 50.35492,52.070672 48.05283,79.4049 46.9046,61.186393 45.75356,82.443484 Z m 56.58742,0 L 97.73961,85.482035 96.58856,76.366339 95.43752,94.591297 94.2893,46 91.98721,121.91905 V 67.257099 L 90.83898,124.95763 89.68794,112.80977 88.53689,124.95763 87.38867,42.961432 83.93835,106.73911 82.78731,58.147825 80.48804,94.591297 79.33699,79.4049 78.18595,94.591297 77.03772,52.070672 73.58741,131.03475 h 56.35608 L 126.49317,46 l -1.15105,33.4049 -1.15104,-9.109267 -2.29927,57.700547 -1.15104,-30.36632 -1.14823,21.25705 -1.15104,-48.591277 -2.29928,45.552707 -1.15103,-15.18639 -1.15106,9.11572 -1.14822,-18.224949 -1.15105,33.404909 -1.15104,-72.886958 -2.29927,42.520625 -1.15104,-42.520625 -2.29927,27.334228 -1.15104,-18.218507 -1.14824,21.257091 z m 28.75356,91.105422 h 56.35606 L 182.84924,46 l -1.15104,33.4049 -1.14822,-9.109267 -2.30209,57.700547 -1.14824,-30.36632 -1.15103,21.25705 -1.15106,-48.591277 -2.29925,45.552707 -1.15106,-15.18639 -1.14822,9.11572 -1.15105,-18.224949 -1.15104,33.404909 -1.15104,-72.886958 -2.29927,42.520625 -1.15105,-42.520625 -2.29926,27.334228 -1.15105,-18.218507 -1.14823,21.257091 -1.15105,-42.514156 -3.45031,45.552707 -1.15104,-9.115696 -1.14822,18.224958 L 150.64537,46 148.3461,121.91905 V 67.257099 l -1.15104,57.700531 -1.15105,-12.14786 -1.14823,12.14786 -1.15103,-81.996198 -3.45032,63.777678 -1.15105,-48.591285 -2.29927,36.443472 L 135.69307,79.4049 134.54485,94.591297 133.3938,52.070672 Z M 214.13342,39.929328 210.68309,85.482035 209.53205,76.366339 208.381,94.591297 207.23278,46 204.93069,121.91905 V 67.257099 l -1.14822,57.700531 -1.15106,-12.14786 -1.15103,12.14786 -1.14822,-81.996198 -3.45032,63.777678 -1.15105,-48.591285 -2.29927,36.443472 -1.15104,-15.186397 -1.15105,15.186397 -1.14822,-42.520625 -3.45032,78.964078 h 56.35609 L 239.43665,46 l -1.15104,33.4049 -1.15105,-9.109267 -2.29926,57.700547 -1.15105,-30.36632 -1.14822,21.25705 -1.15104,-48.591277 -2.29928,45.552707 -1.15105,-15.18639 -1.15104,9.11572 -1.14822,-18.224949 -1.15105,33.404909 -1.15104,-72.886958 -2.29927,42.520625 -1.15105,-42.520625 -2.29926,27.334228 -1.15105,-18.218507 -1.15104,21.257091 z M 17,131.27396 l 3.45031,78.9641 1.15105,-42.52065 1.14822,15.18645 1.15105,-15.18645 2.29927,36.4435 1.15104,-48.59131 3.45032,63.77768 1.15104,-81.99616 1.14823,12.14781 1.15104,-12.14781 1.15105,57.70055 v -54.66201 l 2.29926,75.91906 1.15105,-48.59131 1.14822,18.22496 1.15105,-9.10923 3.45031,45.55273 1.15105,-42.52061 1.15104,21.25706 1.14823,-18.21846 2.30209,27.3342 1.14822,-42.52065 2.30209,42.52065 1.14823,-72.88694 1.15104,33.40488 1.15105,-18.21848 1.14822,9.10923 1.15105,-15.18638 2.29927,45.55273 1.15104,-48.59131 1.15105,21.26354 1.14822,-30.37281 2.30209,57.70058 1.14822,-9.10924 1.15105,33.40486 3.45031,-85.03476 z m 56.58741,0 3.45031,78.9641 1.14823,-42.52065 1.15104,15.18645 1.15105,-15.18645 2.29927,36.4435 1.15104,-48.59131 3.45032,63.77768 1.14822,-81.99616 1.15105,12.14781 1.15104,-12.14781 1.14823,57.70055 v -54.66201 l 2.30209,75.91906 1.14822,-48.59131 1.15104,18.22496 1.15105,-9.10923 3.45032,45.55273 1.15103,-42.52061 1.14824,21.25706 1.15104,-18.21846 2.29927,27.3342 1.15104,-42.52065 2.29927,42.52065 1.15104,-72.88694 1.15105,33.40488 1.14822,-18.21848 1.15106,9.10923 1.15103,-15.18638 2.29928,45.55273 1.15104,-48.59131 1.14823,21.26354 1.15104,-30.37281 2.29927,57.70058 1.15104,-9.10924 1.15105,33.40486 3.45032,-85.03476 z m 56.35608,0 3.45031,78.9641 1.15105,-42.52065 1.14822,15.18645 1.15104,-15.18645 2.29927,36.4435 1.15105,-48.59131 3.45032,63.77768 1.15103,-81.99616 1.14823,12.14781 1.15105,-12.14781 1.15104,57.70055 v -54.66201 l 2.29927,75.91906 1.15105,-48.59131 1.14822,18.22496 1.15104,-9.10923 3.45031,45.55273 1.15105,-42.52061 1.14823,21.25706 1.15105,-18.21846 2.29926,27.3342 1.15105,-42.52065 2.29927,42.52065 1.15104,-72.88694 1.15104,33.40488 1.15105,-18.21848 1.14822,9.10923 1.15106,-15.18638 2.29925,45.55273 1.15106,-48.59131 1.15103,21.26354 1.14824,-30.37281 2.30209,57.70058 1.14822,-9.10924 1.15104,33.40486 3.45031,-85.03476 z m 56.5874,0 3.45032,78.9641 1.14822,-42.52065 1.15105,15.18645 1.15104,-15.18645 2.29927,36.4435 1.15105,-48.59131 3.45032,63.77768 1.14822,-81.99616 1.15103,12.14781 1.15106,-12.14781 1.14822,57.70055 v -54.66201 l 2.30209,75.91906 1.14822,-48.59131 1.15105,18.22496 1.15104,-9.10923 3.45033,45.55273 1.14822,-42.52061 1.15104,21.25706 1.15105,-18.21846 2.29926,27.3342 1.15105,-42.52065 2.29927,42.52065 1.15104,-72.88694 1.15105,33.40488 1.14822,-18.21848 1.15104,9.10923 1.15105,-15.18638 2.29928,45.55273 1.15104,-48.59131 1.14822,21.26354 1.15105,-30.37281 2.29926,57.70058 1.15105,-9.10924 1.15104,33.40486 3.45033,-85.03476 z"
       id="path895"
       inkscape:connector-curvature="0" />
    <path
       style="display:inline;opacity:1;fill:#ffffff;stroke:#000000;stroke-width:0.15890734;stroke-linecap:butt;stroke-linejoin:miter;stroke-miterlimit:4;stroke-dasharray:none;stroke-opacity:1"
       d="m 44.60251,82.371219 -3.45031,24.357611 -1.15105,-4.87772 -1.14822,9.75545 -1.15105,-25.988728 -2.29926,40.606408 V 96.98888 l -1.15105,30.85088 -1.15104,-6.49325 -1.14823,6.49325 L 30.80126,83.98674 27.35094,118.0998 26.1999,92.111167 23.90063,111.60656 22.74958,103.48213 21.60136,111.60656 20.45031,88.864453 17,131.08646 H 73.35607 L 69.90576,85.617832 68.75471,103.48213 67.60649,98.604399 65.3044,129.47085 64.15618,113.22209 63.00513,124.59313 61.85409,98.604399 59.55482,122.97761 58.40377,114.85319 57.25555,119.7309 56.1045,109.97545 54.95346,127.83976 53.80523,88.864453 51.50314,111.60656 50.35492,88.864453 48.05283,103.48213 46.9046,93.742173 45.75356,105.11324 Z m 56.58742,0 -3.45032,24.357611 -1.15105,-4.87772 -1.15104,9.75545 L 94.2893,85.617832 91.98721,126.22424 V 96.98888 l -1.14823,30.85088 -1.15104,-6.49325 -1.15105,6.49325 -1.14822,-43.85302 -3.45032,34.11306 -1.15104,-25.988633 -2.29927,19.495393 -1.15105,-8.12443 -1.15104,8.12443 -1.14823,-22.742107 -3.45031,42.222007 h 56.35608 l -3.45032,-45.468628 -1.15105,17.864298 -1.15104,-4.877731 -2.29927,30.866451 -1.15104,-16.24876 -1.14823,11.37104 -1.15104,-25.988731 -2.29928,24.373211 -1.15103,-8.12442 -1.15106,4.87771 -1.14822,-9.75545 -1.15105,17.86431 -1.15104,-38.975307 -2.29927,22.742107 -1.15104,-22.742107 -2.29927,14.617677 -1.15104,-9.739957 -1.14824,11.371067 z m 28.75356,48.715241 h 56.35606 l -3.45031,-45.468628 -1.15104,17.864298 -1.14822,-4.877731 -2.30209,30.866451 -1.14824,-16.24876 -1.15103,11.37104 -1.15106,-25.988731 -2.29925,24.373211 -1.15106,-8.12442 -1.14822,4.87771 -1.15105,-9.75545 -1.15104,17.86431 -1.15104,-38.975307 -2.29927,22.742107 -1.15105,-22.742107 -2.29926,14.617677 -1.15105,-9.739957 -1.14823,11.371067 -1.15105,-22.742021 -3.45031,24.357611 -1.15104,-4.87772 -1.14822,9.75545 -1.15105,-25.988728 -2.29927,40.606408 V 96.98888 l -1.15104,30.85088 -1.15105,-6.49325 -1.14823,6.49325 -1.15103,-43.85302 -3.45032,34.11306 -1.15105,-25.988633 -2.29927,19.495393 -1.15104,-8.12443 -1.14822,8.12443 -1.15105,-22.742107 z m 84.18993,-48.715241 -3.45033,24.357611 -1.15104,-4.87772 -1.15105,9.75545 -1.14822,-25.988728 -2.30209,40.606408 V 96.98888 l -1.14822,30.85088 -1.15106,-6.49325 -1.15103,6.49325 -1.14822,-43.85302 -3.45032,34.11306 -1.15105,-25.988633 -2.29927,19.495393 -1.15104,-8.12443 -1.15105,8.12443 -1.14822,-22.742107 -3.45032,42.222007 h 56.35609 l -3.45033,-45.468628 -1.15104,17.864298 -1.15105,-4.877731 -2.29926,30.866451 -1.15105,-16.24876 -1.14822,11.37104 -1.15104,-25.988731 -2.29928,24.373211 -1.15105,-8.12442 -1.15104,4.87771 -1.14822,-9.75545 -1.15105,17.86431 -1.15104,-38.975307 -2.29927,22.742107 -1.15105,-22.742107 -2.29926,14.617677 -1.15105,-9.739957 -1.15104,11.371067 z M 17,131.22627 l 3.45031,42.22192 1.15105,-22.74211 1.14822,8.12443 1.15105,-8.12443 2.29927,19.49548 1.15104,-25.98872 3.45032,34.11307 1.15104,-43.85303 1.14823,6.49325 1.15104,-6.49325 1.15105,30.85088 v -29.23535 l 2.29926,40.6064 1.15105,-25.98873 1.14822,9.75554 1.15105,-4.87772 3.45031,24.35762 1.15105,-22.72658 1.15104,11.35553 1.14823,-9.73996 2.30209,14.61768 1.14822,-22.74211 2.30209,22.74211 1.14823,-38.97531 1.15104,17.86431 1.15105,-9.73996 1.14822,4.86222 1.15105,-8.10884 2.29927,24.35763 1.15104,-25.98873 1.15105,11.37106 1.14822,-16.24878 2.30209,30.86645 1.14822,-4.87773 1.15105,17.8643 3.45031,-45.46854 z m 56.58741,0 3.45031,42.22192 1.14823,-22.74211 1.15104,8.12443 1.15105,-8.12443 2.29927,19.49548 1.15104,-25.98872 3.45032,34.11307 1.14822,-43.85303 1.15105,6.49325 1.15104,-6.49325 1.14823,30.85088 v -29.23535 l 2.30209,40.6064 1.14822,-25.98873 1.15104,9.75554 1.15105,-4.87772 3.45032,24.35762 1.15103,-22.72658 1.14824,11.35553 1.15104,-9.73996 2.29927,14.61768 1.15104,-22.74211 2.29927,22.74211 1.15104,-38.97531 1.15105,17.86431 1.14822,-9.73996 1.15106,4.86222 1.15103,-8.10884 2.29928,24.35763 1.15104,-25.98873 1.14823,11.37106 1.15104,-16.24878 2.29927,30.86645 1.15104,-4.87773 1.15105,17.8643 3.45032,-45.46854 z m 56.35608,0 3.45031,42.22192 1.15105,-22.74211 1.14822,8.12443 1.15104,-8.12443 2.29927,19.49548 1.15105,-25.98872 3.45032,34.11307 1.15103,-43.85303 1.14823,6.49325 1.15105,-6.49325 1.15104,30.85088 v -29.23535 l 2.29927,40.6064 1.15105,-25.98873 1.14822,9.75554 1.15104,-4.87772 3.45031,24.35762 1.15105,-22.72658 1.14823,11.35553 1.15105,-9.73996 2.29926,14.61768 1.15105,-22.74211 2.29927,22.74211 1.15104,-38.97531 1.15104,17.86431 1.15105,-9.73996 1.14822,4.86222 1.15106,-8.10884 2.29925,24.35763 1.15106,-25.98873 1.15103,11.37106 1.14824,-16.24878 2.30209,30.86645 1.14822,-4.87773 1.15104,17.8643 3.45031,-45.46854 z m 56.5874,0 3.45032,42.22192 1.14822,-22.74211 1.15105,8.12443 1.15104,-8.12443 2.29927,19.49548 1.15105,-25.98872 3.45032,34.11307 1.14822,-43.85303 1.15103,6.49325 1.15106,-6.49325 1.14822,30.85088 v -29.23535 l 2.30209,40.6064 1.14822,-25.98873 1.15105,9.75554 1.15104,-4.87772 3.45033,24.35762 1.14822,-22.72658 1.15104,11.35553 1.15105,-9.73996 2.29926,14.61768 1.15105,-22.74211 2.29927,22.74211 1.15104,-38.97531 1.15105,17.86431 1.14822,-9.73996 1.15104,4.86222 1.15105,-8.10884 2.29928,24.35763 1.15104,-25.98873 1.14822,11.37106 1.15105,-16.24878 2.29926,30.86645 1.15105,-4.87773 1.15104,17.8643 3.45033,-45.46854 z"
       id="path911"
       inkscape:connector-curvature="0" />
  </g>
  <g
     inkscape:groupmode="layer"
     id="layer5"
     inkscape:label="ffmpeg"
     style="display:none">
    <path
       style="color:#000000;font-style:normal;font-variant:normal;font-weight:normal;font-stretch:normal;font-size:medium;line-height:normal;font-family:sans-serif;font-variant-ligatures:normal;font-variant-position:normal;font-variant-caps:normal;font-variant-numeric:normal;font-variant-alternates:normal;font-feature-settings:normal;text-indent:0;text-align:start;text-decoration:none;text-decoration-line:none;text-decoration-style:solid;text-decoration-color:#000000;letter-spacing:normal;word-spacing:normal;text-transform:none;writing-mode:lr-tb;direction:ltr;text-orientation:mixed;dominant-baseline:auto;baseline-shift:baseline;text-anchor:start;white-space:normal;shape-padding:0;clip-rule:nonzero;display:inline;overflow:visible;visibility:visible;opacity:1;isolation:auto;mix-blend-mode:normal;color-interpolation:sRGB;color-interpolation-filters:linearRGB;solid-color:#000000;solid-opacity:1;vector-effect:none;fill:#73d216;fill-opacity:1;fill-rule:nonzero;stroke:#4e9a06;stroke-width:6.26205349;stroke-linecap:round;stroke-linejoin:round;stroke-miterlimit:4;stroke-dasharray:none;stroke-dashoffset:0;stroke-opacity:1;color-rendering:auto;image-rendering:auto;shape-rendering:auto;text-rendering:auto;enable-background:accumulate"
       d="M 46.21789,49.048811 V 50 H 94 L 47.113323,96.8867 v 58.41606 L 152.41607,50 h 50.99422 L 51.220872,206.94535 h 53.636008 l 99.20177,-99.20181 v 55.72603 l -43.4758,43.47578 h 44.67958 l -1.69245,-0.9512 h -40.69089 l 42.13076,-42.13076 V 105.44734 L 104.46303,205.99415 H 53.468798 L 205.65821,49.048811 H 152.0222 L 48.064507,153.00653 V 97.28055 L 96.2962,49.048811 Z"
       id="path4593"
       inkscape:connector-curvature="0"
       sodipodi:nodetypes="ccccccccccccccccccccccccc" />
  </g>
  <g
     inkscape:groupmode="layer"
     id="layer7"
     inkscape:label="freccie"
     style="display:inline" />
</svg>
