<?xml version="1.0" encoding="UTF-8" standalone="no"?>
<!-- Created with Inkscape (http://www.inkscape.org/) -->

<svg
   xmlns:osb="http://www.openswatchbook.org/uri/2009/osb"
   xmlns:dc="http://purl.org/dc/elements/1.1/"
   xmlns:cc="http://creativecommons.org/ns#"
   xmlns:rdf="http://www.w3.org/1999/02/22-rdf-syntax-ns#"
   xmlns:svg="http://www.w3.org/2000/svg"
   xmlns="http://www.w3.org/2000/svg"
   xmlns:sodipodi="http://sodipodi.sourceforge.net/DTD/sodipodi-0.dtd"
   xmlns:inkscape="http://www.inkscape.org/namespaces/inkscape"
   width="256px"
   height="256px"
   viewBox="0 0 256 256"
   version="1.1"
   id="SVGRoot"
   sodipodi:docname="videomass-v8.svg"
   inkscape:version="0.92.4 (5da689c313, 2019-01-14)"
   enable-background="new">
  <sodipodi:namedview
     id="base"
     pagecolor="#ffffff"
     bordercolor="#666666"
     borderopacity="1.0"
     inkscape:pageopacity="0.0"
     inkscape:pageshadow="2"
     inkscape:zoom="1.6404878"
     inkscape:cx="-102.75617"
     inkscape:cy="132.35611"
     inkscape:document-units="px"
     inkscape:current-layer="g4738"
     showgrid="true"
     inkscape:window-width="1920"
     inkscape:window-height="1015"
     inkscape:window-x="0"
     inkscape:window-y="0"
     inkscape:window-maximized="1"
     inkscape:grid-bbox="true"
     inkscape:measure-start="110,130"
     inkscape:measure-end="0,0"
     showguides="true">
    <inkscape:grid
       type="xygrid"
       id="grid5114" />
  </sodipodi:namedview>
  <defs
     id="defs4485">
    <inkscape:path-effect
       effect="bspline"
       id="path-effect4551"
       is_visible="true"
       weight="33.333333"
       steps="2"
       helper_size="0"
       apply_no_weight="true"
       apply_with_weight="true"
       only_selected="false" />
    <inkscape:path-effect
       effect="skeletal"
       id="path-effect4547"
       is_visible="true"
       pattern="M 0,5 C 0,2.24 2.24,0 5,0 7.76,0 10,2.24 10,5 10,7.76 7.76,10 5,10 2.24,10 0,7.76 0,5 Z"
       copytype="single_stretched"
       prop_scale="1"
       scale_y_rel="false"
       spacing="0"
       normal_offset="0"
       tang_offset="0"
       prop_units="false"
       vertical_pattern="false"
       fuse_tolerance="0" />
    <inkscape:path-effect
       effect="bspline"
       id="path-effect4545"
       is_visible="true"
       weight="33.333333"
       steps="2"
       helper_size="0"
       apply_no_weight="true"
       apply_with_weight="true"
       only_selected="false" />
    <inkscape:path-effect
       effect="skeletal"
       id="path-effect4541"
       is_visible="true"
       pattern="M 0,5 C 0,2.24 2.24,0 5,0 7.76,0 10,2.24 10,5 10,7.76 7.76,10 5,10 2.24,10 0,7.76 0,5 Z"
       copytype="single_stretched"
       prop_scale="1"
       scale_y_rel="false"
       spacing="0"
       normal_offset="0"
       tang_offset="0"
       prop_units="false"
       vertical_pattern="false"
       fuse_tolerance="0" />
    <inkscape:path-effect
       effect="spiro"
       id="path-effect4539"
       is_visible="true" />
    <inkscape:path-effect
       effect="bspline"
       id="path-effect4535"
       is_visible="true"
       weight="33.333333"
       steps="2"
       helper_size="0"
       apply_no_weight="true"
       apply_with_weight="true"
       only_selected="false" />
    <inkscape:path-effect
       effect="skeletal"
       id="path-effect4531"
       is_visible="true"
       pattern="M 0,5 C 0,2.24 2.24,0 5,0 7.76,0 10,2.24 10,5 10,7.76 7.76,10 5,10 2.24,10 0,7.76 0,5 Z"
       copytype="single_stretched"
       prop_scale="1"
       scale_y_rel="false"
       spacing="0"
       normal_offset="0"
       tang_offset="0"
       prop_units="false"
       vertical_pattern="false"
       fuse_tolerance="0" />
    <inkscape:path-effect
       effect="bspline"
       id="path-effect4529"
       is_visible="true"
       weight="33.333333"
       steps="2"
       helper_size="0"
       apply_no_weight="true"
       apply_with_weight="true"
       only_selected="false" />
    <inkscape:path-effect
       effect="skeletal"
       id="path-effect4525"
       is_visible="true"
       pattern="M 0,5 C 0,2.24 2.24,0 5,0 7.76,0 10,2.24 10,5 10,7.76 7.76,10 5,10 2.24,10 0,7.76 0,5 Z"
       copytype="single_stretched"
       prop_scale="1"
       scale_y_rel="false"
       spacing="0"
       normal_offset="0"
       tang_offset="0"
       prop_units="false"
       vertical_pattern="false"
       fuse_tolerance="0" />
    <inkscape:path-effect
       effect="bspline"
       id="path-effect4523"
       is_visible="true"
       weight="33.333333"
       steps="2"
       helper_size="0"
       apply_no_weight="true"
       apply_with_weight="true"
       only_selected="false" />
    <inkscape:path-effect
       effect="bspline"
       id="path-effect4519"
       is_visible="true"
       weight="33.333333"
       steps="2"
       helper_size="0"
       apply_no_weight="true"
       apply_with_weight="true"
       only_selected="false" />
    <pattern
       inkscape:isstock="true"
       inkscape:stockid="Stripes 1:1"
       id="Strips1_1"
       patternTransform="translate(0,0) scale(10,10)"
       height="1"
       width="2"
       patternUnits="userSpaceOnUse"
       inkscape:collect="always">
      <rect
         id="rect5447"
         height="2"
         width="1"
         y="-0.5"
         x="0"
         style="fill:black;stroke:none" />
    </pattern>
    <linearGradient
       id="linearGradient4727"
       osb:paint="solid">
      <stop
         style="stop-color:#ce5c00;stop-opacity:1;"
         offset="0"
         id="stop4725" />
    </linearGradient>
    <pattern
       patternUnits="userSpaceOnUse"
       width="55"
       height="90"
       patternTransform="translate(-60,50.5)"
       id="pattern6214">
      <g
         style="fill:url(#Strips1_1);fill-opacity:1"
         transform="translate(-15,-28.5)"
         id="g4691">
        <rect
           style="opacity:0.81499999;fill:url(#Strips1_1);fill-opacity:1;stroke:none;stroke-width:4.52699995;stroke-linecap:round;stroke-linejoin:bevel;stroke-miterlimit:17.60000038;stroke-dasharray:none;stroke-dashoffset:0;stroke-opacity:1;paint-order:stroke fill markers"
           id="rect4683"
           width="30"
           height="30"
           x="40"
           y="59"
           ry="7.9000001" />
        <path
           inkscape:connector-curvature="0"
           style="opacity:0.81499999;fill:url(#Strips1_1);fill-opacity:1;stroke:none;stroke-width:8.60130024;stroke-linecap:round;stroke-linejoin:bevel;stroke-miterlimit:17.60000038;stroke-dasharray:none;stroke-dashoffset:0;stroke-opacity:1;paint-order:stroke fill markers"
           d="m 15,28.5 v 90 l 45,-45 z"
           id="path4687" />
      </g>
    </pattern>
  </defs>
  <metadata
     id="metadata4488">
    <rdf:RDF>
      <cc:Work
         rdf:about="">
        <dc:format>image/svg+xml</dc:format>
        <dc:type
           rdf:resource="http://purl.org/dc/dcmitype/StillImage" />
        <dc:title />
      </cc:Work>
    </rdf:RDF>
  </metadata>
  <g
     inkscape:groupmode="layer"
     id="layer3"
     inkscape:label="sfondo"
     style="display:none">
    <path
       style="display:inline;opacity:1;fill:#99542c;fill-opacity:1;stroke:none;stroke-width:2.40400004;stroke-linecap:round;stroke-linejoin:bevel;stroke-miterlimit:17.60000038;stroke-dasharray:none;stroke-dashoffset:0;stroke-opacity:0.97647059;paint-order:stroke fill markers"
       d="m 218.90403,18.277143 c -0.8573,-0.09761 -1.72733,-0.153296 -2.6116,-0.153293 l -58.60838,0.0014 -8.32508,8.325078 1.62967,1.629662 -7.07107,7.071067 1.90587,1.905872 L 121.0747,61.805667 119.16883,59.899795 16.88141,162.1872 v 55.34769 c 0,0.62392 0.0311,1.23972 0.0801,1.85062 l 20.72983,20.72983 c 0.6109,0.049 1.2267,0.0801 1.85062,0.0801 H 91.17733 L 216.53411,114.83867 237.74731,93.625472 238.95298,92.4198 V 40.784431 c 0,-0.88387 -0.0558,-1.754675 -0.1533,-2.611601 z"
       id="path882"
       inkscape:connector-curvature="0" />
  </g>
  <g
     style="display:inline"
     inkscape:label="sfondo copia"
     id="g4738"
     inkscape:groupmode="layer">
    <path
       style="display:inline;opacity:1;fill:#353535;fill-opacity:1;stroke:none;stroke-width:7.00387716;stroke-linecap:round;stroke-linejoin:bevel;stroke-miterlimit:17.60000038;stroke-dasharray:none;stroke-dashoffset:0;stroke-opacity:0.97647059;paint-order:stroke fill markers"
       d="M 181.91602,16 15.67578,184.05469 v 31.35742 c 0,12.55386 10.1063,22.66016 22.66016,22.66016 H 67.59961 L 237.74805,66.068359 V 38.660156 C 237.74805,26.106294 227.64175,16 215.08789,16 Z"
       id="rect1130"
       inkscape:connector-curvature="0" />
    <path
       style="display:inline;opacity:1;fill:#999999;fill-opacity:1;stroke:#474747;stroke-width:1.4;stroke-linecap:round;stroke-linejoin:bevel;stroke-miterlimit:17.60000038;stroke-dasharray:none;stroke-dashoffset:0;stroke-opacity:1;paint-order:stroke fill markers"
       d="M 147.61133,16 15.67578,147.93555 v 8.28906 l 0.9082,-0.9082 c 1.03713,-1.03713 2.76617,-0.97799 3.87696,0.13281 l 9.02344,9.02344 c 1.11079,1.11079 1.16994,2.83982 0.13281,3.87695 l -5.61524,5.61719 c -1.03714,1.03714 -2.76617,0.97602 -3.87695,-0.13477 l -4.44922,-4.44922 v 9.63477 c 0.70713,1.00224 0.7098,2.30504 0,3.22461 v 8.11914 l 12.25781,-12.25781 c 3.6256,-3.6256 9.66965,-3.41824 13.55274,0.46484 l 31.54297,31.54297 c 3.88309,3.88309 4.09044,9.92713 0.46484,13.55273 l -14.4082,14.40821 h 7.67773 l 2.14649,-2.14649 c 1.03712,-1.03712 2.76616,-0.97602 3.87695,0.13477 l 2.01172,2.01172 h 9.56445 l -6.79297,-6.79493 c -1.11079,-1.11079 -1.1719,-2.83981 -0.13476,-3.87695 l 5.61718,-5.61719 c 1.03713,-1.03713 2.76616,-0.97603 3.87696,0.13477 l 9.02148,9.02344 c 1.11079,1.11079 1.1719,2.83787 0.13477,3.875 l -3.25586,3.25586 h 9.48633 L 237.74805,102.64062 v -9.542964 c -0.0749,0.10224 -0.14801,0.206605 -0.24024,0.298828 l -5.61718,5.615236 c -1.03714,1.03713 -2.76617,0.97798 -3.87696,-0.13281 l -9.02148,-9.023441 c -1.1108,-1.110794 -1.1719,-2.83982 -0.13477,-3.876953 l 5.61719,-5.615235 c 1.03713,-1.037133 2.76616,-0.977981 3.87695,0.132813 l 9.02149,9.023437 c 0.14279,0.142793 0.26702,0.296597 0.375,0.457031 v -9.648437 l -4.61524,-4.613281 C 232.02202,74.60405 231.96287,72.875024 233,71.837891 l 4.74805,-4.748047 v -7.679688 l -15.59571,15.595703 c -3.62559,3.625594 -9.66965,3.418241 -13.55273,-0.464843 L 177.05664,43 C 173.17356,39.116916 172.9662,33.070907 176.5918,29.445312 L 190.03906,16 h -8.07226 l -2.40235,2.402344 c -1.03713,1.037132 -2.76616,0.976021 -3.87695,-0.134766 L 173.41992,16 h -9.5664 l 7.05273,7.050781 c 1.11079,1.110787 1.16995,2.839821 0.13281,3.876953 l -5.61718,5.617188 c -1.03714,1.037133 -2.76617,0.976021 -3.87696,-0.134766 l -9.02148,-9.021484 c -1.11079,-1.110794 -1.1719,-2.839821 -0.13477,-3.876953 L 155.90039,16 Z m 67.89844,0.0098 22.22851,22.228515 C 237.5166,26.022437 227.72552,16.231813 215.50977,16.009766 Z m -69.73438,11.289062 c 0.70068,0.02428 1.40945,0.315697 1.96484,0.871094 l 9.02344,9.023437 c 1.11079,1.110787 1.16994,2.83982 0.13281,3.876953 l -5.61523,5.617188 c -1.03714,1.037132 -2.76617,0.976021 -3.87695,-0.134766 l -9.02344,-9.023437 c -1.11079,-1.110794 -1.16994,-2.837867 -0.13281,-3.875 l 5.61523,-5.617188 c 0.51857,-0.518566 1.21144,-0.762565 1.91211,-0.738281 z m -14.14258,14.140625 c 0.70068,0.02428 1.40945,0.31765 1.96485,0.873047 l 9.02343,9.023438 c 1.11078,1.110787 1.17191,2.839821 0.13477,3.876953 l -5.61719,5.615234 c -1.03713,1.037133 -2.76616,0.977975 -3.87695,-0.132813 l -9.02344,-9.023437 c -1.1108,-1.110794 -1.16994,-2.839821 -0.13281,-3.876953 l 5.61719,-5.615234 c 0.51856,-0.518567 1.20948,-0.764519 1.91015,-0.740235 z m 30.25977,6.802735 c 2.44952,0.08417 4.9315,1.105333 6.87305,3.046874 l 31.54296,31.542969 c 3.88309,3.883084 4.09044,9.92714 0.46485,13.552735 l -19.63281,19.63281 c -3.6256,3.6256 -9.67161,3.41824 -13.55469,-0.46485 L 136.04492,84.011719 c -3.88308,-3.883084 -4.09043,-9.929094 -0.46484,-13.554688 l 19.63281,-19.632812 c 1.8128,-1.812798 4.23017,-2.6662 6.67969,-2.582031 z m -44.40235,7.339843 c 0.70068,0.02428 1.41141,0.31765 1.9668,0.873047 l 9.02149,9.021484 c 1.11079,1.110788 1.17189,2.839821 0.13476,3.876954 l -5.61719,5.617187 c -1.03714,1.037135 -2.76616,0.977975 -3.87695,-0.132812 l -9.02148,-9.023438 c -1.11079,-1.110794 -1.1719,-2.839819 -0.13477,-3.876953 l 5.61719,-5.617188 c 0.51856,-0.518565 1.20948,-0.762564 1.91015,-0.738281 z m -14.14257,14.142578 c 0.70067,0.02428 1.4114,0.31765 1.96679,0.873047 l 9.02149,9.021485 c 1.11078,1.110787 1.17188,2.839825 0.13476,3.876953 l -5.61718,5.617187 c -1.03713,1.037135 -2.76617,0.976022 -3.87696,-0.134765 l -9.02148,-9.021485 c -1.1108,-1.110794 -1.1719,-2.839818 -0.13477,-3.876953 l 5.61719,-5.617187 c 0.51855,-0.518557 1.20948,-0.762564 1.91016,-0.738282 z M 89.20703,83.867222 c 0.70067,0.02428 1.40945,0.317649 1.96485,0.873046 l 9.02343,9.021485 c 1.11079,1.110787 1.16994,2.839825 0.13281,3.876953 l -5.61718,5.617184 c -1.03714,1.03714 -2.76421,0.97602 -3.875,-0.13477 L 81.8125,94.099643 C 80.70171,92.988849 80.64255,91.259825 81.67969,90.22269 l 5.61523,-5.617187 c 0.51857,-0.518564 1.21144,-0.762565 1.91211,-0.738281 z m 30.25977,6.800781 c 2.44952,0.08417 4.9315,1.107286 6.87304,3.048828 l 31.54297,31.541009 c 3.88308,3.88308 4.09044,9.92714 0.46485,13.55274 l -19.63282,19.63281 c -3.6256,3.6256 -9.6716,3.4202 -13.55468,-0.46289 L 93.61719,126.43753 C 89.7341,122.55445 89.5287,116.5104 93.1543,112.8848 L 112.78711,93.25 c 1.81279,-1.812799 4.23017,-2.6662 6.67969,-2.582031 z m 92.77539,3.097656 c 0.70067,0.02428 1.4114,0.31765 1.96679,0.873047 l 9.02149,9.023434 c 1.11079,1.11079 1.1719,2.83787 0.13476,3.875 l -5.61718,5.61719 c -1.03714,1.03713 -2.76617,0.97796 -3.87696,-0.13282 l -9.02148,-9.02343 c -1.11079,-1.11079 -1.1719,-2.83982 -0.13477,-3.87696 l 5.61719,-5.61718 c 0.51857,-0.518566 1.20948,-0.762565 1.91016,-0.738281 z M 75.06445,98.0098 c 0.70068,0.0243 1.40945,0.31569 1.96485,0.87109 l 9.02343,9.02344 c 1.11078,1.11079 1.16995,2.83982 0.13282,3.87695 l -5.61524,5.61523 c -1.03713,1.03713 -2.76617,0.97797 -3.87695,-0.13281 l -9.02344,-9.02344 c -1.11079,-1.11079 -1.16994,-2.83981 -0.13281,-3.87695 l 5.61719,-5.61523 c 0.51856,-0.51857 1.20948,-0.762564 1.91015,-0.73828 z m 123.03711,9.89843 c 0.70068,0.0243 1.40945,0.31765 1.96485,0.87305 l 9.02343,9.02148 c 1.11079,1.11079 1.16995,2.83983 0.13282,3.87696 l -5.61719,5.61719 c -1.03713,1.03712 -2.76421,0.97602 -3.875,-0.13477 l -9.02344,-9.02149 c -1.11079,-1.11078 -1.1719,-2.83982 -0.13476,-3.87695 l 5.61718,-5.61719 c 0.51857,-0.51857 1.21144,-0.76256 1.91211,-0.73828 z m -137.17968,4.24219 c 0.70067,0.0243 1.41139,0.31765 1.96679,0.87305 l 9.02149,9.02344 c 1.11079,1.11078 1.17189,2.83786 0.13476,3.875 l -5.61719,5.61718 c -1.03714,1.03714 -2.76616,0.97798 -3.87695,-0.13281 l -9.02148,-9.02344 c -1.11079,-1.11079 -1.17191,-2.83982 -0.13477,-3.87695 l 5.61719,-5.61719 c 0.51856,-0.51856 1.20948,-0.76256 1.91016,-0.73828 z m 123.0371,9.90039 c 0.70068,0.0243 1.40945,0.31765 1.96485,0.87305 l 9.02344,9.02148 c 1.11078,1.11079 1.16994,2.83983 0.13281,3.87696 l -5.61524,5.61718 c -1.03713,1.03713 -2.76616,0.97603 -3.87695,-0.13476 l -9.02344,-9.02149 c -1.11079,-1.1108 -1.16994,-2.83981 -0.13281,-3.87695 l 5.61524,-5.61719 c 0.51856,-0.51856 1.21143,-0.76256 1.9121,-0.73828 z M 46.7793,126.293 c 0.70067,0.0243 1.4114,0.31765 1.96679,0.87305 l 9.02149,9.02148 c 1.11079,1.11079 1.17189,2.83982 0.13476,3.87695 l -5.61718,5.61719 c -1.03714,1.03714 -2.76618,0.97603 -3.87696,-0.13476 l -9.02148,-9.02149 c -1.11079,-1.1108 -1.1719,-2.83981 -0.13477,-3.87695 l 5.61719,-5.61719 c 0.51856,-0.51856 1.20948,-0.76256 1.91016,-0.73828 z m 30.26172,6.80078 c 2.44952,0.0842 4.9315,1.10728 6.87304,3.04883 l 31.54102,31.54297 c 3.88309,3.88308 4.0924,9.92518 0.4668,13.55078 l -19.63477,19.63476 c -3.6256,3.6256 -9.66966,3.41824 -13.55273,-0.46484 L 51.19141,168.86526 c -3.88308,-3.88308 -4.08849,-9.92908 -0.46289,-13.55468 l 19.63281,-19.63282 c 1.8128,-1.8128 4.23017,-2.66815 6.67969,-2.58398 z m 92.77539,3.09961 c 0.70067,0.0243 1.4114,0.3157 1.96679,0.87109 l 9.02149,9.02344 c 1.11079,1.11078 1.17188,2.83983 0.13476,3.87695 l -5.61718,5.61719 c -1.03714,1.03713 -2.76617,0.97603 -3.87696,-0.13476 l -9.02343,-9.02344 c -1.11079,-1.11079 -1.16995,-2.83787 -0.13282,-3.875 l 5.61719,-5.61719 c 0.51856,-0.51856 1.20948,-0.76256 1.91016,-0.73828 z m -137.17969,4.24219 c 0.70067,0.0243 1.4114,0.31765 1.9668,0.87304 l 9.02343,9.02149 c 1.11079,1.11078 1.16995,2.83982 0.13282,3.87695 l -5.61719,5.61719 c -1.03713,1.03713 -2.76421,0.97602 -3.875,-0.13477 L 25.24414,150.668 c -1.1108,-1.11079 -1.1719,-2.83982 -0.13476,-3.87695 l 5.61718,-5.61719 c 0.51857,-0.51856 1.20949,-0.76257 1.91016,-0.73828 z m 123.03711,9.89843 c 0.70067,0.0243 1.41139,0.31765 1.96679,0.87305 l 9.02149,9.02344 c 1.11079,1.11079 1.17189,2.83982 0.13477,3.87695 l -5.61719,5.61524 c -1.03713,1.03714 -2.76617,0.97797 -3.87696,-0.13282 l -9.02148,-9.02343 c -1.1108,-1.1108 -1.17191,-2.83982 -0.13477,-3.87696 l 5.61719,-5.61523 c 0.51857,-0.51857 1.20948,-0.76452 1.91016,-0.74024 z m -14.14258,14.14258 c 0.70067,0.0243 1.4114,0.31765 1.9668,0.87305 l 9.02343,9.02148 c 1.11079,1.11078 1.16995,2.83984 0.13282,3.87696 l -5.61719,5.61718 c -1.03714,1.03713 -2.76616,0.97797 -3.87695,-0.13281 l -9.02149,-9.02344 c -1.11079,-1.11079 -1.17189,-2.83982 -0.13476,-3.87695 l 5.61718,-5.61719 c 0.51857,-0.51856 1.20949,-0.76256 1.91016,-0.73828 z m -14.14063,14.14258 c 0.70068,0.0243 1.40945,0.31765 1.96485,0.87305 l 9.02344,9.02148 c 1.11078,1.11079 1.16993,2.83983 0.13281,3.87695 l -5.61524,5.61719 c -1.03713,1.03714 -2.76616,0.97603 -3.87695,-0.13476 l -9.02344,-9.02149 c -1.1108,-1.1108 -1.16995,-2.83981 -0.13281,-3.87695 l 5.61524,-5.61719 c 0.51856,-0.51856 1.21143,-0.76256 1.9121,-0.73828 z m -14.14257,14.14258 c 0.70067,0.0243 1.40945,0.3157 1.96484,0.87109 l 9.02344,9.02344 c 1.11079,1.11078 1.17189,2.83983 0.13476,3.87695 l -5.61718,5.61719 c -1.03714,1.03713 -2.76617,0.97601 -3.87696,-0.13477 l -9.02343,-9.02148 c -1.11079,-1.11079 -1.16996,-2.83982 -0.13282,-3.87695 l 5.61719,-5.61719 c 0.51857,-0.51856 1.20948,-0.76256 1.91016,-0.73828 z m -14.14258,14.14258 c 0.70067,0.0243 1.4114,0.3157 1.9668,0.87109 l 9.02148,9.02344 c 1.11078,1.11079 1.17189,2.83982 0.13477,3.87695 l -5.61719,5.61524 c -1.03713,1.03714 -2.76616,0.97797 -3.87695,-0.13282 l -9.02149,-9.02343 c -1.1108,-1.11079 -1.17189,-2.83983 -0.13477,-3.87696 l 5.61719,-5.61523 c 0.51857,-0.51857 1.20949,-0.76257 1.91016,-0.73828 z m -83.22852,11.49804 c 1.32827,10.15042 9.31807,18.14133 19.46875,19.46875 z"
       id="rect976"
       inkscape:connector-curvature="0" />
  </g>
  <g
     id="layer1"
     inkscape:groupmode="layer"
     inkscape:label="film strip"
     style="display:inline;opacity:1" />
  <g
     inkscape:groupmode="layer"
     id="layer2"
     inkscape:label="audio"
     style="display:inline">
    <path
       style="display:inline;fill:#73d216;stroke:#000000;stroke-width:0.51038402;stroke-linecap:butt;stroke-linejoin:miter;stroke-miterlimit:4;stroke-dasharray:none;stroke-opacity:1"
       d="M 38.05181,32.926693 34.336656,81.976002 33.097252,72.16059 31.860895,91.784486 30.621491,39.463346 28.145741,121.2099 V 62.352129 L 26.906337,124.48172 25.666944,111.4014 24.430576,124.48172 23.191183,36.191539 19.476018,104.86476 18.236625,52.543632 15.760864,91.784486 14.52146,75.432389 13.285103,91.784486 12.045699,46 8.3305451,131.02532 H 69.012478 L 65.297324,39.463346 64.05792,75.432389 62.821563,65.6239 60.342766,127.75351 59.106409,95.056288 57.867005,117.94502 56.627612,65.6239 54.151851,114.67321 52.912447,98.32112 51.676091,108.13656 50.436687,88.512671 49.197293,124.48172 47.960926,46 45.482128,91.784486 44.245772,46 41.766974,75.432389 40.530607,55.815439 39.291214,78.704213 Z m 60.931041,0 L 95.267686,81.976002 94.028282,72.16059 92.788889,91.784486 91.552532,39.463346 89.073735,121.2099 V 62.352129 L 87.837367,124.48172 86.597974,111.4014 85.35857,124.48172 84.122213,36.191539 80.407049,104.86476 79.167655,52.543632 76.691895,91.784486 75.452491,75.432389 74.213097,91.784486 72.97673,46 69.261576,131.02532 h 60.681944 l -3.71517,-91.561974 -1.2394,35.969043 -1.23939,-9.808489 -2.47576,62.12961 -1.2394,-32.697222 -1.23636,22.888732 -1.2394,-52.32112 -2.47577,49.04931 -1.23938,-16.35209 -1.23942,9.81544 -1.23635,-19.623889 -1.23941,35.969049 L 108.88892,46 106.41316,91.784486 105.17377,46 l -2.47576,29.432389 -1.2394,-19.61695 -1.23638,22.888774 z m 30.960669,98.098627 h 60.68192 l -3.71515,-91.561974 -1.2394,35.969043 -1.23635,-9.808489 -2.4788,62.12961 -1.23638,-32.697222 -1.23938,22.888732 -1.23941,-52.32112 -2.47574,49.04931 -1.23942,-16.35209 -1.23636,9.81544 -1.2394,-19.623889 -1.23939,35.969049 L 169.57086,46 167.0951,91.784486 165.8557,46 l -2.47575,29.432389 -1.23941,-19.61695 -1.23636,22.888774 -1.23941,-45.77752 -3.71515,49.049309 -1.23939,-9.815412 -1.23636,19.623896 -1.2394,-52.32114 -2.47577,81.746554 V 62.352129 l -1.23939,62.129591 -1.2394,-13.08032 -1.23637,13.08032 -1.23938,-88.290181 -3.71517,68.673221 -1.2394,-52.321128 -2.47576,39.240854 -1.2394,-16.352097 -1.23635,16.352097 L 133.65867,46 Z m 90.65231,-98.098627 -3.71518,49.049309 -1.23939,-9.815412 -1.23941,19.623896 -1.23635,-52.32114 -2.4788,81.746554 V 62.352129 l -1.23636,62.129591 -1.23941,-13.08032 -1.23939,13.08032 -1.23635,-88.290181 -3.71517,68.673221 -1.2394,-52.321128 -2.47576,39.240854 -1.2394,-16.352097 -1.2394,16.352097 L 194.5897,46 l -3.71516,85.02532 h 60.68195 l -3.71517,-91.561974 -1.23939,35.969043 -1.23941,-9.808489 -2.47575,62.12961 -1.2394,-32.697222 -1.23636,22.888732 -1.23939,-52.32112 -2.47577,49.04931 -1.23941,-16.35209 -1.23939,9.81544 -1.23636,-19.623889 -1.2394,35.969049 L 230.50189,46 228.02613,91.784486 226.78673,46 l -2.47575,29.432389 -1.2394,-19.61695 -1.2394,22.888774 z M 8.3305451,131.28289 l 3.7151539,85.02535 1.239404,-45.78452 1.236357,16.35216 1.239404,-16.35216 2.475761,39.24089 1.239393,-52.32116 3.715165,68.67322 1.239393,-88.29014 1.236368,13.08027 1.239393,-13.08027 1.239404,62.12962 v -58.85784 l 2.47575,81.74657 1.239404,-52.32116 1.236357,19.6239 1.239404,-9.80845 3.715154,49.04934 1.239404,-45.78447 1.239393,22.88874 1.236367,-19.6169 2.478798,29.43236 1.236356,-45.78452 2.478798,45.78452 1.236367,-78.48171 1.239394,35.96902 1.239404,-19.61692 1.236356,9.80845 1.239404,-16.35208 2.475761,49.04934 1.239393,-52.32116 1.239404,22.89572 1.236357,-32.70421 2.478797,62.12965 1.236357,-9.80846 1.239404,35.969 3.715154,-91.56199 z m 60.9310309,0 3.715154,85.02535 1.236367,-45.78452 1.239394,16.35216 1.239404,-16.35216 2.47576,39.24089 1.239394,-52.32116 3.715164,68.67322 1.236357,-88.29014 1.239404,13.08027 1.239393,-13.08027 1.236368,62.12962 v -58.85784 l 2.478797,81.74657 1.236357,-52.32116 1.239393,19.6239 1.239404,-9.80845 3.715165,49.04934 1.239379,-45.78447 1.23638,22.88874 1.2394,-19.6169 2.47576,29.43236 1.23939,-45.78452 2.47576,45.78452 1.23939,-78.48171 1.23941,35.96902 1.23635,-19.61692 1.23942,9.80845 1.23938,-16.35208 2.47577,49.04934 1.2394,-52.32116 1.23636,22.89572 1.2394,-32.70421 2.47576,62.12965 1.23939,-9.80846 1.2394,35.969 3.71517,-91.56199 z m 60.681944,0 3.71515,85.02535 1.23941,-45.78452 1.23635,16.35216 1.2394,-16.35216 2.47576,39.24089 1.2394,-52.32116 3.71517,68.67322 1.23938,-88.29014 1.23637,13.08027 1.2394,-13.08027 1.23939,62.12962 v -58.85784 l 2.47577,81.74657 1.2394,-52.32116 1.23636,19.6239 1.23939,-9.80845 3.71515,49.04934 1.23941,-45.78447 1.23636,22.88874 1.23941,-19.6169 2.47575,29.43236 1.2394,-45.78452 2.47576,45.78452 1.2394,-78.48171 1.23939,35.96902 1.2394,-19.61692 1.23636,9.80845 1.23942,-16.35208 2.47574,49.04934 1.23941,-52.32116 1.23938,22.89572 1.23638,-32.70421 2.4788,62.12965 1.23635,-9.80846 1.2394,35.969 3.71515,-91.56199 z m 60.93102,0 3.71516,85.02535 1.23636,-45.78452 1.2394,16.35216 1.2394,-16.35216 2.47576,39.24089 1.2394,-52.32116 3.71517,68.67322 1.23635,-88.29014 1.23939,13.08027 1.23941,-13.08027 1.23636,62.12962 v -58.85784 l 2.4788,81.74657 1.23635,-52.32116 1.23941,19.6239 1.23939,-9.80845 3.71518,49.04934 1.23635,-45.78447 1.2394,22.88874 1.2394,-19.6169 2.47575,29.43236 1.2394,-45.78452 2.47576,45.78452 1.2394,-78.48171 1.2394,35.96902 1.23636,-19.61692 1.23939,9.80845 1.23941,-16.35208 2.47577,49.04934 1.23939,-52.32116 1.23636,22.89572 1.2394,-32.70421 2.47575,62.12965 1.23941,-9.80846 1.23939,35.969 3.71517,-91.56199 z"
       id="path895"
       inkscape:connector-curvature="0" />
    <path
       style="display:inline;opacity:1;fill:#ffffff;stroke:#000000;stroke-width:0.14488225;stroke-linecap:butt;stroke-linejoin:miter;stroke-miterlimit:4;stroke-dasharray:none;stroke-opacity:1"
       d="M 38.05181,93.493577 34.336656,112.29793 33.097252,108.53228 31.860895,116.0636 30.621491,96 l -2.47575,31.34862 v -22.57004 l -1.239404,23.81723 -1.239393,-5.01286 -1.236368,5.01286 L 23.191183,94.740778 19.476018,121.07645 18.236625,101.01293 15.760864,116.0636 14.52146,109.79145 13.285103,116.0636 12.045699,98.506429 8.3305451,131.1023 H 69.012478 L 65.297324,96 l -1.239404,13.79145 -1.236357,-3.76567 -2.478797,23.82926 -1.236357,-12.54423 -1.239404,8.77857 -1.239393,-20.0636 -2.475761,18.8164 -1.239404,-6.27215 -1.236356,3.76565 -1.239404,-7.53132 -1.239394,13.79145 -1.236367,-30.089381 -2.478798,17.557171 -1.236356,-17.557171 -2.478798,11.285021 -1.236367,-7.51937 -1.239393,8.7786 z m 60.931041,0 -3.715165,18.804353 -1.239404,-3.76565 -1.239393,7.53132 L 91.552532,96 89.073735,127.34862 v -22.57004 l -1.236368,23.81723 -1.239393,-5.01286 -1.239404,5.01286 -1.236357,-33.855032 -3.715164,26.335672 -1.239394,-20.06352 -2.47576,15.05067 -1.239404,-6.27215 -1.239394,6.27215 L 72.97673,98.506429 69.261576,131.1023 H 129.94352 L 126.22835,96 l -1.2394,13.79145 -1.23939,-3.76567 -2.47576,23.82926 -1.2394,-12.54423 -1.23636,8.77857 -1.2394,-20.0636 -2.47577,18.8164 -1.23938,-6.27215 -1.23942,3.76565 -1.23635,-7.53132 -1.23941,13.79145 -1.23939,-30.089381 -2.47576,17.557171 -1.23939,-17.557171 -2.47576,11.285021 -1.2394,-7.51937 -1.23638,8.7786 z M 129.94352,131.1023 h 60.68192 L 186.91029,96 l -1.2394,13.79145 -1.23635,-3.76567 -2.4788,23.82926 -1.23638,-12.54423 -1.23938,8.77857 -1.23941,-20.0636 -2.47574,18.8164 -1.23942,-6.27215 -1.23636,3.76565 -1.2394,-7.53132 -1.23939,13.79145 -1.2394,-30.089381 -2.47576,17.557171 -1.2394,-17.557171 -2.47575,11.285021 -1.23941,-7.51937 -1.23636,8.7786 -1.23941,-17.557103 -3.71515,18.804353 -1.23939,-3.76565 -1.23636,7.53132 L 152.23447,96 149.7587,127.34862 v -22.57004 l -1.23939,23.81723 -1.2394,-5.01286 -1.23637,5.01286 -1.23938,-33.855032 -3.71517,26.335672 -1.2394,-20.06352 -2.47576,15.05067 -1.2394,-6.27215 -1.23635,6.27215 -1.23941,-17.557171 z m 90.65231,-37.608723 -3.71518,18.804353 -1.23939,-3.76565 -1.23941,7.53132 L 213.1655,96 l -2.4788,31.34862 v -22.57004 l -1.23636,23.81723 -1.23941,-5.01286 -1.23939,5.01286 -1.23635,-33.855032 -3.71517,26.335672 -1.2394,-20.06352 -2.47576,15.05067 -1.2394,-6.27215 -1.2394,6.27215 -1.23636,-17.557171 -3.71516,32.595871 h 60.68195 L 247.84132,96 l -1.23939,13.79145 -1.23941,-3.76567 -2.47575,23.82926 -1.2394,-12.54423 -1.23636,8.77857 -1.23939,-20.0636 -2.47577,18.8164 -1.23941,-6.27215 -1.23939,3.76565 -1.23636,-7.53132 -1.2394,13.79145 -1.2394,-30.089381 -2.47576,17.557171 -1.2394,-17.557171 -2.47575,11.285021 -1.2394,-7.51937 -1.2394,8.7786 z M 8.3305451,131.21024 l 3.7151539,32.5958 1.239404,-17.55716 1.236357,6.27215 1.239404,-6.27215 2.475761,15.05073 1.239393,-20.06359 3.715165,26.33569 1.239393,-33.85505 1.236368,5.01286 1.239393,-5.01286 1.239404,23.81724 v -22.57003 l 2.47575,31.3486 1.239404,-20.06359 1.236357,7.53138 1.239404,-3.76565 3.715154,18.80436 1.239404,-17.54518 1.239393,8.7666 1.236367,-7.51936 2.478798,11.28501 1.236356,-17.55716 2.478798,17.55716 1.236367,-30.08938 1.239394,13.79145 1.239404,-7.51936 1.236356,3.75369 1.239404,-6.26012 2.475761,18.80437 1.239393,-20.06359 1.239404,8.77859 1.236357,-12.54425 2.478797,23.82925 1.236357,-3.76566 1.239404,13.79144 3.715154,-35.10223 z m 60.9310309,0 3.715154,32.5958 1.236367,-17.55716 1.239394,6.27215 1.239404,-6.27215 2.47576,15.05073 1.239394,-20.06359 3.715164,26.33569 1.236357,-33.85505 1.239404,5.01286 1.239393,-5.01286 1.236368,23.81724 v -22.57003 l 2.478797,31.3486 1.236357,-20.06359 1.239393,7.53138 1.239404,-3.76565 3.715165,18.80436 1.239379,-17.54518 1.23638,8.7666 1.2394,-7.51936 2.47576,11.28501 1.23939,-17.55716 2.47576,17.55716 1.23939,-30.08938 1.23941,13.79145 1.23635,-7.51936 1.23942,3.75369 1.23938,-6.26012 2.47577,18.80437 1.2394,-20.06359 1.23636,8.77859 1.2394,-12.54425 2.47576,23.82925 1.23939,-3.76566 1.2394,13.79144 3.71517,-35.10223 z m 60.681944,0 3.71515,32.5958 1.23941,-17.55716 1.23635,6.27215 1.2394,-6.27215 2.47576,15.05073 1.2394,-20.06359 3.71517,26.33569 1.23938,-33.85505 1.23637,5.01286 1.2394,-5.01286 1.23939,23.81724 v -22.57003 l 2.47577,31.3486 1.2394,-20.06359 1.23636,7.53138 1.23939,-3.76565 3.71515,18.80436 1.23941,-17.54518 1.23636,8.7666 1.23941,-7.51936 2.47575,11.28501 1.2394,-17.55716 2.47576,17.55716 1.2394,-30.08938 1.23939,13.79145 1.2394,-7.51936 1.23636,3.75369 1.23942,-6.26012 2.47574,18.80437 1.23941,-20.06359 1.23938,8.77859 1.23638,-12.54425 2.4788,23.82925 1.23635,-3.76566 1.2394,13.79144 3.71515,-35.10223 z m 60.93102,0 3.71516,32.5958 1.23636,-17.55716 1.2394,6.27215 1.2394,-6.27215 2.47576,15.05073 1.2394,-20.06359 3.71517,26.33569 1.23635,-33.85505 1.23939,5.01286 1.23941,-5.01286 1.23636,23.81724 v -22.57003 l 2.4788,31.3486 1.23635,-20.06359 1.23941,7.53138 1.23939,-3.76565 3.71518,18.80436 1.23635,-17.54518 1.2394,8.7666 1.2394,-7.51936 2.47575,11.28501 1.2394,-17.55716 2.47576,17.55716 1.2394,-30.08938 1.2394,13.79145 1.23636,-7.51936 1.23939,3.75369 1.23941,-6.26012 2.47577,18.80437 1.23939,-20.06359 1.23636,8.77859 1.2394,-12.54425 2.47575,23.82925 1.23941,-3.76566 1.23939,13.79144 3.71517,-35.10223 z"
       id="path911"
       inkscape:connector-curvature="0" />
  </g>
  <g
     inkscape:groupmode="layer"
     id="layer5"
     inkscape:label="ffmpeg"
     style="display:none">
    <path
       style="color:#000000;font-style:normal;font-variant:normal;font-weight:normal;font-stretch:normal;font-size:medium;line-height:normal;font-family:sans-serif;font-variant-ligatures:normal;font-variant-position:normal;font-variant-caps:normal;font-variant-numeric:normal;font-variant-alternates:normal;font-feature-settings:normal;text-indent:0;text-align:start;text-decoration:none;text-decoration-line:none;text-decoration-style:solid;text-decoration-color:#000000;letter-spacing:normal;word-spacing:normal;text-transform:none;writing-mode:lr-tb;direction:ltr;text-orientation:mixed;dominant-baseline:auto;baseline-shift:baseline;text-anchor:start;white-space:normal;shape-padding:0;clip-rule:nonzero;display:inline;overflow:visible;visibility:visible;opacity:1;isolation:auto;mix-blend-mode:normal;color-interpolation:sRGB;color-interpolation-filters:linearRGB;solid-color:#000000;solid-opacity:1;vector-effect:none;fill:#73d216;fill-opacity:1;fill-rule:nonzero;stroke:#4e9a06;stroke-width:6.26205349;stroke-linecap:round;stroke-linejoin:round;stroke-miterlimit:4;stroke-dasharray:none;stroke-dashoffset:0;stroke-opacity:1;color-rendering:auto;image-rendering:auto;shape-rendering:auto;text-rendering:auto;enable-background:accumulate"
       d="M 46.21789,49.048811 V 50 H 94 L 47.113323,96.8867 v 58.41606 L 152.41607,50 h 50.99422 L 51.220872,206.94535 h 53.636008 l 99.20177,-99.20181 v 55.72603 l -43.4758,43.47578 h 44.67958 l -1.69245,-0.9512 h -40.69089 l 42.13076,-42.13076 V 105.44734 L 104.46303,205.99415 H 53.468798 L 205.65821,49.048811 H 152.0222 L 48.064507,153.00653 V 97.28055 L 96.2962,49.048811 Z"
       id="path4593"
       inkscape:connector-curvature="0"
       sodipodi:nodetypes="ccccccccccccccccccccccccc" />
  </g>
  <g
     inkscape:groupmode="layer"
     id="layer7"
     inkscape:label="freccie"
     style="display:inline" />
</svg>
