<?xml version="1.0" encoding="UTF-8" standalone="no"?>
<!-- Created with Inkscape (http://www.inkscape.org/) -->

<svg
   xmlns:dc="http://purl.org/dc/elements/1.1/"
   xmlns:cc="http://creativecommons.org/ns#"
   xmlns:rdf="http://www.w3.org/1999/02/22-rdf-syntax-ns#"
   xmlns:svg="http://www.w3.org/2000/svg"
   xmlns="http://www.w3.org/2000/svg"
   xmlns:xlink="http://www.w3.org/1999/xlink"
   xmlns:sodipodi="http://sodipodi.sourceforge.net/DTD/sodipodi-0.dtd"
   xmlns:inkscape="http://www.inkscape.org/namespaces/inkscape"
   width="48"
   height="48"
   viewBox="0 0 12.7 12.7"
   version="1.1"
   id="svg883"
   inkscape:version="0.92.4 (5da689c313, 2019-01-14)"
   sodipodi:docname="icon_videoconversions.svg">
  <defs
     id="defs877">
    <linearGradient
       inkscape:collect="always"
       xlink:href="#linearGradient901"
       id="linearGradient903"
       x1="185"
       y1="126"
       x2="115"
       y2="126"
       gradientUnits="userSpaceOnUse"
       gradientTransform="matrix(0.04948507,0,0,0.04316522,0.00785892,285.10419)" />
    <linearGradient
       inkscape:collect="always"
       id="linearGradient901">
      <stop
         style="stop-color:#d3d7cf;stop-opacity:1;"
         offset="0"
         id="stop897" />
      <stop
         style="stop-color:#d3d7cf;stop-opacity:0;"
         offset="1"
         id="stop899" />
    </linearGradient>
  </defs>
  <sodipodi:namedview
     id="base"
     pagecolor="#ffffff"
     bordercolor="#666666"
     borderopacity="1.0"
     inkscape:pageopacity="0.0"
     inkscape:pageshadow="2"
     inkscape:zoom="15.839192"
     inkscape:cx="21.230262"
     inkscape:cy="23.471744"
     inkscape:document-units="mm"
     inkscape:current-layer="layer1"
     showgrid="true"
     inkscape:window-width="1920"
     inkscape:window-height="1015"
     inkscape:window-x="0"
     inkscape:window-y="0"
     inkscape:window-maximized="1"
     units="px">
    <inkscape:grid
       type="xygrid"
       id="grid1431" />
  </sodipodi:namedview>
  <metadata
     id="metadata880">
    <rdf:RDF>
      <cc:Work
         rdf:about="">
        <dc:format>image/svg+xml</dc:format>
        <dc:type
           rdf:resource="http://purl.org/dc/dcmitype/StillImage" />
        <dc:title />
      </cc:Work>
    </rdf:RDF>
  </metadata>
  <g
     inkscape:label="Livello 1"
     inkscape:groupmode="layer"
     id="layer1"
     transform="translate(0,-284.3)">
    <path
       inkscape:connector-curvature="0"
       id="path978"
       d="m 4.9314542,287.16873 0.033412,6.96254 h 2.8036796 l -0.033339,-6.96254 z"
       style="display:inline;opacity:1;fill:url(#linearGradient903);fill-opacity:1;stroke:none;stroke-width:0.27902833;stroke-linecap:round;stroke-linejoin:bevel;stroke-miterlimit:17.60000038;stroke-dasharray:none;stroke-dashoffset:0;stroke-opacity:0.97647059;paint-order:stroke fill markers" />
    <path
       style="display:inline;opacity:1;fill:#232629;fill-opacity:1;fill-rule:nonzero;stroke:none;stroke-width:0.38257247;stroke-linecap:square;stroke-linejoin:round;stroke-miterlimit:4;stroke-dasharray:none;stroke-dashoffset:0;stroke-opacity:1;paint-order:stroke fill markers"
       d="m 2.1492865,291.17921 v 0.0152 h -0.00135 v 3.14996 a 1.2889431,1.0082282 0 0 0 -0.4654707,-0.0692 1.2889431,1.0082282 0 0 0 -1.28889528,1.00824 1.2889431,1.0082282 0 0 0 1.28889528,1.00823 1.2889431,1.0082282 0 0 0 1.2888917,-1.00823 1.2889431,1.0082282 0 0 0 -0.025187,-0.19394 v -2.90198 h 0.8597261 v -1.00823 z"
       id="path906"
       inkscape:connector-curvature="0" />
    <path
       inkscape:connector-curvature="0"
       id="path852"
       d="m 10.660716,284.96787 v 0.0152 h -0.0014 v 3.14995 a 1.2889431,1.0082282 0 0 0 -0.46547,-0.0692 1.2889431,1.0082282 0 0 0 -1.2888936,1.00824 1.2889431,1.0082282 0 0 0 1.2888936,1.00823 1.2889431,1.0082282 0 0 0 1.288895,-1.00823 1.2889431,1.0082282 0 0 0 -0.02519,-0.19393 v -2.90199 h 0.859726 v -1.00823 z"
       style="display:inline;opacity:1;fill:#232629;fill-opacity:1;fill-rule:nonzero;stroke:none;stroke-width:0.38257247;stroke-linecap:square;stroke-linejoin:round;stroke-miterlimit:4;stroke-dasharray:none;stroke-dashoffset:0;stroke-opacity:1;paint-order:stroke fill markers" />
    <path
       style="display:inline;opacity:1;fill:#232629;fill-opacity:1;stroke:#474747;stroke-width:0.05470347;stroke-linecap:round;stroke-linejoin:bevel;stroke-miterlimit:17.60000038;stroke-dasharray:none;stroke-dashoffset:0;stroke-opacity:1;paint-order:stroke fill markers"
       d="m 3.9078812,287.01905 v 7.21622 l 0.045719,0.0457 h 4.8385186 v -7.26194 z m 0.3398243,0.25825 h 0.4986174 c 0.061379,0 0.1107634,0.0462 0.1107634,0.1035 l 9.79e-5,0.31034 c 0,0.0573 -0.049478,0.10339 -0.1108561,0.10339 H 4.2477086 c -0.061379,0 -0.1107623,-0.0461 -0.1107623,-0.10339 v -0.31034 c 0,-0.0286 0.012338,-0.0546 0.032382,-0.0733 0.020033,-0.0186 0.047698,-0.0302 0.078382,-0.0302 z m 3.6730087,0 0.4985247,1.1e-4 c 0.061379,0 0.110761,0.046 0.110761,0.10328 v 0.31044 c 0,0.0573 -0.049384,0.10339 -0.110761,0.10339 H 7.9207142 c -0.061379,0 -0.1108571,-0.0461 -0.1108571,-0.10339 v -0.31044 c 0,-0.0286 0.012338,-0.0545 0.032381,-0.0732 0.020033,-0.0188 0.047781,-0.0303 0.078476,-0.0303 z m -2.4532777,0.0579 h 1.7429947 c 0.2145726,0 0.3872783,0.16123 0.3872783,0.36157 v 1.08491 c 0,0.20034 -0.1728005,0.36167 -0.3873761,0.36167 H 5.4674365 c -0.2145757,0 -0.3873762,-0.16133 -0.3873762,-0.36167 v -1.08491 c 0,-0.10016 0.043272,-0.19048 0.1132748,-0.25583 0.07,-0.0654 0.1668104,-0.10574 0.2741014,-0.10574 z m -1.219731,0.72363 h 0.4986174 c 0.061379,0 0.1108582,0.0461 0.1108582,0.10339 v 0.31034 c 0,0.0573 -0.049478,0.10339 -0.1108582,0.10339 H 4.2477055 c -0.061379,0 -0.1107613,-0.0461 -0.1107613,-0.10339 v -0.31034 c -3.1e-6,-0.0286 0.012338,-0.0546 0.032371,-0.0733 0.020033,-0.0186 0.047698,-0.0302 0.078382,-0.0302 z m 3.6730087,0 h 0.4985247 c 0.061379,0 0.110761,0.0461 0.110761,0.10339 v 0.31045 c 0,0.0573 -0.049384,0.10328 -0.110761,0.10328 H 7.9207142 c -0.061379,0 -0.1108571,-0.046 -0.1108571,-0.10328 v -0.31045 c 0,-0.0286 0.012338,-0.0546 0.032381,-0.0733 0.020033,-0.0186 0.047781,-0.0302 0.078476,-0.0302 z m -3.6729129,0.78152 h 0.4985216 c 0.061379,0 0.1107634,0.046 0.1107634,0.10329 v 0.31043 c 0,0.0573 -0.049384,0.10339 -0.1107634,0.10339 H 4.2478013 c -0.061379,0 -0.1108571,-0.0461 -0.1108571,-0.10339 v -0.31043 c -3.1e-6,-0.0286 0.012338,-0.0545 0.032371,-0.0732 0.020033,-0.0186 0.047791,-0.0302 0.078486,-0.0302 z m 3.6729129,0 h 0.4985247 c 0.061379,0 0.110761,0.0461 0.110761,0.10339 l 9.79e-5,0.31034 c 0,0.0573 -0.049478,0.10339 -0.1108589,0.10339 H 7.9207163 c -0.061379,0 -0.1108592,-0.0461 -0.1108592,-0.10339 v -0.31034 c 0,-0.0286 0.012338,-0.0546 0.032381,-0.0733 0.020033,-0.0186 0.047791,-0.0302 0.078486,-0.0302 z m -3.6729129,0.78141 h 0.4985216 c 0.061379,0 0.1107634,0.0461 0.1107634,0.10339 v 0.31044 c 0,0.0573 -0.049384,0.10339 -0.1107634,0.10339 H 4.2478013 c -0.061379,0 -0.1108571,-0.0461 -0.1108571,-0.10339 v -0.31044 c 0,-0.0286 0.012338,-0.0545 0.032371,-0.0732 0.020033,-0.0188 0.047791,-0.0303 0.078486,-0.0303 z m 3.6729129,0 h 0.4985247 c 0.061379,0 0.1108558,0.0461 0.1108558,0.10339 v 0.31044 c 0,0.0573 -0.049478,0.10339 -0.1108558,0.10339 H 7.9206184 c -0.061379,0 -0.1107613,-0.0461 -0.1107613,-0.10339 v -0.31044 c 0,-0.0286 0.012338,-0.0545 0.032381,-0.0732 0.020033,-0.0188 0.047781,-0.0303 0.078476,-0.0303 z m -2.4532777,0.0579 h 1.7429947 c 0.2145726,0 0.3872783,0.16123 0.3872783,0.36158 v 1.0849 c 0,0.20034 -0.1727057,0.36167 -0.3872783,0.36167 H 5.4673376 c -0.2145747,0 -0.3871815,-0.16133 -0.3871815,-0.36167 l -9.78e-5,-1.0849 c 0,-0.10016 0.043272,-0.19058 0.1132716,-0.25594 0.070011,-0.0654 0.1668156,-0.10564 0.2741003,-0.10564 z m -1.219731,0.72363 h 0.4986174 c 0.061379,0 0.1107634,0.0461 0.1107634,0.10339 v 0.31044 c 0,0.0573 -0.049384,0.10328 -0.1107634,0.10328 H 4.2477055 c -0.061379,0 -0.1107644,-0.0461 -0.1107613,-0.10339 v -0.31034 c 0,-0.0286 0.012338,-0.0546 0.032371,-0.0733 0.020033,-0.0186 0.047698,-0.0302 0.078382,-0.0302 z m 3.6730087,0 h 0.4985247 c 0.061379,0 0.1108558,0.0461 0.1108558,0.10339 l -9.79e-5,0.31034 c 0,0.0573 -0.049384,0.10339 -0.110761,0.10339 H 7.9207111 c -0.061379,0 -0.1108571,-0.0461 -0.1108571,-0.10339 v -0.31034 c 0,-0.0286 0.012338,-0.0546 0.032371,-0.0733 0.020033,-0.0186 0.047791,-0.0302 0.078486,-0.0302 z m 0.4985247,0.78142 c 0.061379,0 0.110761,0.0462 0.110761,0.1035 v 0.31035 c 0,0.0573 -0.049384,0.10339 -0.110761,0.10339 H 7.9207142 c -0.061379,0 -0.1108571,-0.0461 -0.1108571,-0.10339 v -0.31035 c 0,-0.0286 0.012338,-0.0545 0.032381,-0.0732 v -9e-5 c 0.020033,-0.0186 0.047781,-0.0302 0.078476,-0.0302 z m -4.1715334,1e-4 h 0.4986174 c 0.061379,0 0.1107634,0.0461 0.1107634,0.10339 v 0.31025 c 0,0.0573 -0.049384,0.10349 -0.1107634,0.10349 H 4.2477055 c -0.061379,0 -0.1107613,-0.0462 -0.1107613,-0.10349 v -0.31035 c -3.1e-6,-0.0286 0.012338,-0.0545 0.032371,-0.0732 0.020033,-0.0186 0.047698,-0.0302 0.078382,-0.0302 z m 0,0.78142 h 0.4986174 c 0.061379,0 0.1107603,0.0461 0.1107634,0.10339 v 0.31035 c 0,0.0574 -0.049384,0.10339 -0.1107634,0.10339 H 4.2477055 c -0.061379,0 -0.1107613,-0.0461 -0.1107613,-0.10339 v -0.31035 c 0,-0.0286 0.012338,-0.0544 0.032371,-0.0732 0.020033,-0.0187 0.047698,-0.0303 0.078382,-0.0303 z m 4.1715334,0 c 0.061379,0 0.110761,0.0461 0.110761,0.10339 l 9.79e-5,0.31035 c 0,0.0574 -0.049478,0.10339 -0.1108589,0.10339 l -0.4985226,9e-5 c -0.061379,0 -0.1108592,-0.0462 -0.1108592,-0.1035 v -0.31035 c 0,-0.0286 0.012338,-0.0544 0.032381,-0.0732 0.020033,-0.0188 0.047791,-0.0302 0.078486,-0.0302 z m -2.9518024,0.0578 1.7429947,9e-5 c 0.2145726,0 0.3872783,0.16113 0.3872783,0.36148 v 1.085 c 0,0.20034 -0.1727057,0.36167 -0.3872783,0.36167 H 5.4674365 c -0.2145757,0 -0.3872804,-0.16142 -0.3872804,-0.36177 v -1.08481 c 0,-0.10016 0.0432,-0.19058 0.113179,-0.25593 0.07,-0.0654 0.1668104,-0.10573 0.2741014,-0.10573 z m -1.219731,0.72372 h 0.4985216 c 0.061379,0 0.1108592,0.0461 0.1108592,0.10339 v 0.31034 c 0,0.0573 -0.049478,0.10339 -0.1108592,0.10339 H 4.2477055 c -0.061379,0 -0.1107613,-0.0461 -0.1107613,-0.10339 v -0.31034 c 0,-0.0286 0.012338,-0.0546 0.032371,-0.0733 0.020033,-0.0186 0.047698,-0.0302 0.078382,-0.0302 z m 3.6729129,0 h 0.4986205 c 0.061379,0 0.1108558,0.0461 0.1108558,0.10339 v 0.31034 c 0,0.0573 -0.049478,0.10339 -0.1108558,0.10339 H 7.9207142 c -0.061379,0 -0.1108571,-0.0461 -0.1108571,-0.10339 v -0.31043 c 0,-0.0286 0.012338,-0.0545 0.032381,-0.0732 0.020033,-0.0186 0.047687,-0.0302 0.078382,-0.0302 z m -3.1742955,0.78141 c 0.061379,0 0.1107634,0.0462 0.1107634,0.1035 v 0.31034 c 0,0.0573 -0.049384,0.10329 -0.1107634,0.10329 l -0.4986174,10e-5 c -0.061379,0 -0.1107644,-0.0461 -0.1107613,-0.10339 v -0.31043 c 0,-0.0286 0.012338,-0.0545 0.032371,-0.0732 0.020033,-0.0187 0.047698,-0.0302 0.078382,-0.0302 z m 3.1743913,0 0.4985247,1.1e-4 c 0.061379,0 0.1108558,0.046 0.1108558,0.10329 l -9.79e-5,0.31034 c 0,0.0573 -0.049384,0.10349 -0.110761,0.10349 l -0.4985247,-10e-5 c -0.061379,0 -0.1108571,-0.0461 -0.1108571,-0.10339 v -0.31036 c 0,-0.0286 0.012338,-0.0544 0.032371,-0.0732 0.020033,-0.0187 0.047791,-0.0303 0.078486,-0.0303 z"
       id="rect976"
       inkscape:connector-curvature="0" />
  </g>
</svg>
