<?xml version="1.0" encoding="UTF-8" standalone="no"?>
<svg
   xmlns:dc="http://purl.org/dc/elements/1.1/"
   xmlns:cc="http://creativecommons.org/ns#"
   xmlns:rdf="http://www.w3.org/1999/02/22-rdf-syntax-ns#"
   xmlns:svg="http://www.w3.org/2000/svg"
   xmlns="http://www.w3.org/2000/svg"
   xmlns:sodipodi="http://sodipodi.sourceforge.net/DTD/sodipodi-0.dtd"
   xmlns:inkscape="http://www.inkscape.org/namespaces/inkscape"
   version="1"
   viewBox="0 0 16 16"
   enable-background="new 0 0 48 48"
   id="svg12"
   sodipodi:docname="denoise.svg"
   inkscape:version="0.92.4 (5da689c313, 2019-01-14)"
   width="16"
   height="16">
  <metadata
     id="metadata18">
    <rdf:RDF>
      <cc:Work
         rdf:about="">
        <dc:format>image/svg+xml</dc:format>
        <dc:type
           rdf:resource="http://purl.org/dc/dcmitype/StillImage" />
        <dc:title />
      </cc:Work>
    </rdf:RDF>
  </metadata>
  <defs
     id="defs16">
    <inkscape:perspective
       sodipodi:type="inkscape:persp3d"
       inkscape:vp_x="2.1085087 : -0.01579032 : 1"
       inkscape:vp_y="-9.1717358 : 40.677048 : 0"
       inkscape:vp_z="2.439686 : 0.66241427 : 1"
       inkscape:persp3d-origin="2.3474712 : -0.0021044275 : 1"
       id="perspective4515" />
  </defs>
  <sodipodi:namedview
     pagecolor="#ffffff"
     bordercolor="#666666"
     borderopacity="1"
     objecttolerance="10"
     gridtolerance="10"
     guidetolerance="10"
     inkscape:pageopacity="0"
     inkscape:pageshadow="2"
     inkscape:window-width="1877"
     inkscape:window-height="904"
     id="namedview14"
     showgrid="true"
     inkscape:zoom="32.300638"
     inkscape:cx="0.82414521"
     inkscape:cy="7.5401166"
     inkscape:window-x="24"
     inkscape:window-y="41"
     inkscape:window-maximized="0"
     inkscape:current-layer="svg12">
    <inkscape:grid
       type="xygrid"
       id="grid4510" />
  </sodipodi:namedview>
  <path
     id="path6948"
     d="m 3.333333,8.7619045 c -0.427778,0 -0.777778,0.3428574 -0.777778,0.7619051 0,0.4190473 0.35,0.7619044 0.777778,0.7619044 0.427777,0 0.777777,-0.3428571 0.777777,-0.7619044 0,-0.4190477 -0.35,-0.7619051 -0.777777,-0.7619051 z m 0,3.0476185 c -0.427778,0 -0.777778,0.342858 -0.777778,0.761905 0,0.419048 0.35,0.761905 0.777778,0.761905 0.427777,0 0.777777,-0.342857 0.777777,-0.761905 0,-0.419047 -0.35,-0.761905 -0.777777,-0.761905 z m 0,-6.0952377 c -0.427778,0 -0.777778,0.3428574 -0.777778,0.7619048 0,0.4190476 0.35,0.761905 0.777778,0.761905 0.427777,0 0.777777,-0.3428574 0.777777,-0.761905 0,-0.4190474 -0.35,-0.7619048 -0.777777,-0.7619048 z M 1,6.0952376 c -0.213889,0 -0.38889,0.1714287 -0.38889,0.3809525 0,0.2095239 0.175001,0.3809526 0.38889,0.3809526 0.213889,0 0.388888,-0.1714287 0.388888,-0.3809526 C 1.388888,6.2666663 1.213889,6.0952376 1,6.0952376 Z M 3.333333,2.6666661 c -0.427778,0 -0.777778,0.3428566 -0.777778,0.7619051 0,0.4190475 0.35,0.7619051 0.777778,0.7619051 0.427777,0 0.777777,-0.3428576 0.777777,-0.7619051 0,-0.4190485 -0.35,-0.7619051 -0.777777,-0.7619051 z m 11.666668,4.1904766 c 0.213889,0 0.388889,-0.1714287 0.388889,-0.3809526 0,-0.2095238 -0.175,-0.3809525 -0.388889,-0.3809525 -0.213889,0 -0.38889,0.1714287 -0.38889,0.3809525 0,0.2095239 0.175001,0.3809526 0.38889,0.3809526 z M 9.5555563,4.1904763 c 0.427777,0 0.7777767,-0.3428576 0.7777767,-0.7619051 0,-0.4190485 -0.3499997,-0.7619051 -0.7777767,-0.7619051 -0.4277782,0 -0.7777782,0.3428566 -0.7777782,0.7619051 0,0.4190475 0.35,0.7619051 0.7777782,0.7619051 z m 0,-2.6666678 c 0.213888,0 0.3888885,-0.1714282 0.3888885,-0.3809514 0,-0.20952432 -0.1750005,-0.38095258 -0.3888885,-0.38095258 -0.2138891,0 -0.3888896,0.17142826 -0.3888896,0.38095258 0,0.2095232 0.1750005,0.3809514 0.3888896,0.3809514 z M 1,9.1428569 c -0.213889,0 -0.38889,0.1714286 -0.38889,0.3809527 0,0.2095237 0.175001,0.3809523 0.38889,0.3809523 0.213889,0 0.388888,-0.1714286 0.388888,-0.3809523 C 1.388888,9.3142855 1.213889,9.1428569 1,9.1428569 Z m 5.4444448,5.3333341 c -0.2138891,0 -0.3888896,0.171428 -0.3888896,0.380952 0,0.209525 0.1750005,0.380953 0.3888896,0.380953 0.2138891,0 0.3888885,-0.171428 0.3888885,-0.380953 0,-0.209523 -0.1749994,-0.380952 -0.3888885,-0.380952 z m 0,-12.9523825 c 0.2138891,0 0.3888885,-0.1714283 0.3888885,-0.3809515 0,-0.20952422 -0.1749994,-0.38095248 -0.3888885,-0.38095248 -0.2138891,0 -0.3888896,0.17142826 -0.3888896,0.38095248 0,0.2095232 0.1750005,0.3809515 0.3888896,0.3809515 z m 0,2.6666677 c 0.4277771,0 0.7777771,-0.3428576 0.7777771,-0.761905 0,-0.4190485 -0.35,-0.7619051 -0.7777771,-0.7619051 -0.4277781,0 -0.7777778,0.3428566 -0.7777778,0.7619051 0,0.4190474 0.3499997,0.761905 0.7777778,0.761905 z m 0,4.190476 c -0.6455568,0 -1.1666678,0.5104764 -1.1666678,1.1428574 0,0.6323804 0.521111,1.1428574 1.1666678,1.1428574 0.6455552,0 1.1666667,-0.510477 1.1666667,-1.1428574 0,-0.632381 -0.5211115,-1.1428574 -1.1666667,-1.1428574 z m 6.2222222,0.3809523 c -0.427777,0 -0.777777,0.3428574 -0.777777,0.7619051 0,0.4190473 0.35,0.7619044 0.777777,0.7619044 0.427778,0 0.777778,-0.3428571 0.777778,-0.7619044 0,-0.4190477 -0.35,-0.7619051 -0.777778,-0.7619051 z m 0,3.0476185 c -0.427777,0 -0.777777,0.342858 -0.777777,0.761905 0,0.419048 0.35,0.761905 0.777777,0.761905 0.427778,0 0.777778,-0.342857 0.777778,-0.761905 0,-0.419047 -0.35,-0.761905 -0.777778,-0.761905 z m 0,-6.0952377 c -0.427777,0 -0.777777,0.3428574 -0.777777,0.7619048 0,0.4190476 0.35,0.761905 0.777777,0.761905 0.427778,0 0.777778,-0.3428574 0.777778,-0.761905 0,-0.4190474 -0.35,-0.7619048 -0.777778,-0.7619048 z m 0,-3.0476192 c -0.427777,0 -0.777777,0.3428566 -0.777777,0.7619051 0,0.4190475 0.35,0.7619051 0.777777,0.7619051 0.427778,0 0.777778,-0.3428576 0.777778,-0.7619051 0,-0.4190485 -0.35,-0.7619051 -0.777778,-0.7619051 z m 2.333334,6.4761908 c -0.213889,0 -0.38889,0.1714286 -0.38889,0.3809527 0,0.2095237 0.175001,0.3809523 0.38889,0.3809523 0.213889,0 0.388889,-0.1714286 0.388889,-0.3809523 0,-0.2095241 -0.175,-0.3809527 -0.388889,-0.3809527 z M 9.5555563,11.809523 c -0.4277782,0 -0.7777782,0.342858 -0.7777782,0.761905 0,0.419048 0.35,0.761905 0.7777782,0.761905 0.427777,0 0.7777767,-0.342857 0.7777767,-0.761905 0,-0.419047 -0.3499997,-0.761905 -0.7777767,-0.761905 z m 0,2.666667 c -0.2138891,0 -0.3888896,0.171429 -0.3888896,0.380952 0,0.209525 0.1750005,0.380953 0.3888896,0.380953 0.213888,0 0.3888885,-0.171428 0.3888885,-0.380953 0,-0.209523 -0.1750005,-0.380952 -0.3888885,-0.380952 z M 6.4444448,5.3333328 c -0.6455568,0 -1.1666678,0.5104768 -1.1666678,1.1428573 0,0.632381 0.521111,1.1428574 1.1666678,1.1428574 0.6455552,0 1.1666667,-0.5104764 1.1666667,-1.1428574 0,-0.6323805 -0.5211115,-1.1428573 -1.1666667,-1.1428573 z m 0,6.4761902 c -0.4277781,0 -0.7777778,0.342858 -0.7777778,0.761905 0,0.419048 0.3499997,0.761905 0.7777778,0.761905 0.4277771,0 0.7777771,-0.342857 0.7777771,-0.761905 0,-0.419047 -0.35,-0.761905 -0.7777771,-0.761905 z M 9.5555563,8.3809522 c -0.6455563,0 -1.1666667,0.5104764 -1.1666667,1.1428574 0,0.6323804 0.5211104,1.1428574 1.1666667,1.1428574 0.6455547,0 1.1666667,-0.510477 1.1666667,-1.1428574 0,-0.632381 -0.521112,-1.1428574 -1.1666667,-1.1428574 z m 0,-3.0476194 c -0.6455563,0 -1.1666667,0.5104768 -1.1666667,1.1428573 0,0.632381 0.5211104,1.1428574 1.1666667,1.1428574 0.6455547,0 1.1666667,-0.5104764 1.1666667,-1.1428574 0,-0.6323805 -0.521112,-1.1428573 -1.1666667,-1.1428573 z"
     inkscape:connector-curvature="0"
     style="fill:#f57900;fill-opacity:1;stroke-width:0.285;stroke:#f57900;stroke-opacity:1;stroke-miterlimit:4;stroke-dasharray:none" />
</svg>
