<?xml version="1.0" encoding="UTF-8" standalone="no"?>
<svg
   xmlns:dc="http://purl.org/dc/elements/1.1/"
   xmlns:cc="http://creativecommons.org/ns#"
   xmlns:rdf="http://www.w3.org/1999/02/22-rdf-syntax-ns#"
   xmlns:svg="http://www.w3.org/2000/svg"
   xmlns="http://www.w3.org/2000/svg"
   xmlns:sodipodi="http://sodipodi.sourceforge.net/DTD/sodipodi-0.dtd"
   xmlns:inkscape="http://www.inkscape.org/namespaces/inkscape"
   viewBox="0 0 16 16"
   version="1.1"
   id="svg6"
   sodipodi:docname="configure.svg"
   inkscape:version="0.92.4 (5da689c313, 2019-01-14)">
  <metadata
     id="metadata10">
    <rdf:RDF>
      <cc:Work
         rdf:about="">
        <dc:format>image/svg+xml</dc:format>
        <dc:type
           rdf:resource="http://purl.org/dc/dcmitype/StillImage" />
      </cc:Work>
    </rdf:RDF>
  </metadata>
  <sodipodi:namedview
     pagecolor="#ffffff"
     bordercolor="#666666"
     borderopacity="1"
     objecttolerance="10"
     gridtolerance="10"
     guidetolerance="10"
     inkscape:pageopacity="0"
     inkscape:pageshadow="2"
     inkscape:window-width="807"
     inkscape:window-height="480"
     id="namedview8"
     showgrid="false"
     inkscape:zoom="14.75"
     inkscape:cx="0.54237288"
     inkscape:cy="8"
     inkscape:window-x="0"
     inkscape:window-y="0"
     inkscape:window-maximized="0"
     inkscape:current-layer="svg6" />
  <defs
     id="defs3051">
    <style
       type="text/css"
       id="current-color-scheme">
      .ColorScheme-Text {
        color:#eff0f1;
      }
      </style>
  </defs>
  <path
     style="fill:#4169e1;fill-opacity:1;stroke:none"
     d="M 10 2.5 C 9.0680195 2.5 8.2844627 3.1373007 8.0625 4 L 2 4 L 2 5 L 8.0625 5 C 8.2844627 5.8626993 9.0680195 6.5 10 6.5 C 10.931981 6.5 11.715537 5.8626993 11.9375 5 L 14 5 L 14 4 L 11.9375 4 C 11.715537 3.1373007 10.931981 2.5 10 2.5 z M 5 9.5 C 4.0680191 9.5 3.2844626 10.137301 3.0625 11 L 2 11 L 2 12 L 3.0625 12 C 3.2844626 12.862699 4.0680191 13.5 5 13.5 C 5.9319809 13.5 6.7155374 12.862699 6.9375 12 L 7 12 L 9 12 L 14 12 L 14 11 L 9 11 L 7 11 L 6.9375 11 C 6.7155374 10.137301 5.9319809 9.5 5 9.5 z M 5 10.5 C 5.55228 10.5 6 10.94772 6 11.5 C 6 12.05228 5.55228 12.5 5 12.5 C 4.44772 12.5 4 12.05228 4 11.5 C 4 10.94772 4.44772 10.5 5 10.5 z "
     class="ColorScheme-Text"
     id="path4" />
</svg>
