<?xml version="1.0" encoding="UTF-8" standalone="no"?>
<svg
   xmlns:dc="http://purl.org/dc/elements/1.1/"
   xmlns:cc="http://creativecommons.org/ns#"
   xmlns:rdf="http://www.w3.org/1999/02/22-rdf-syntax-ns#"
   xmlns:svg="http://www.w3.org/2000/svg"
   xmlns="http://www.w3.org/2000/svg"
   xmlns:sodipodi="http://sodipodi.sourceforge.net/DTD/sodipodi-0.dtd"
   xmlns:inkscape="http://www.inkscape.org/namespaces/inkscape"
   viewBox="0 0 16 16"
   version="1.1"
   id="svg6"
   sodipodi:docname="player-volume.svg"
   inkscape:version="0.92.4 (5da689c313, 2019-01-14)">
  <metadata
     id="metadata10">
    <rdf:RDF>
      <cc:Work
         rdf:about="">
        <dc:format>image/svg+xml</dc:format>
        <dc:type
           rdf:resource="http://purl.org/dc/dcmitype/StillImage" />
      </cc:Work>
    </rdf:RDF>
  </metadata>
  <sodipodi:namedview
     pagecolor="#ffffff"
     bordercolor="#666666"
     borderopacity="1"
     objecttolerance="10"
     gridtolerance="10"
     guidetolerance="10"
     inkscape:pageopacity="0"
     inkscape:pageshadow="2"
     inkscape:window-width="807"
     inkscape:window-height="480"
     id="namedview8"
     showgrid="false"
     inkscape:zoom="14.75"
     inkscape:cx="0.54237288"
     inkscape:cy="8"
     inkscape:window-x="0"
     inkscape:window-y="0"
     inkscape:window-maximized="0"
     inkscape:current-layer="svg6" />
  <defs
     id="defs3051">
    <style
       type="text/css"
       id="current-color-scheme">
      .ColorScheme-Text {
        color:#eff0f1
      }
      </style>
  </defs>
  <path
     style="fill:#4169e1;fill-opacity:1;stroke:none"
     d="m8 2l-4 3.199v5.602l4 3.199h1v-12zm3.447 1.105l-.451.9a5 4.999975 0 0 1 2.00391 3.994141 5 4.999975 0 0 1 -2.00391 3.990234l.451.906a6 5.99997 0 0 0 2.552734 -4.896484 6 5.99997 0 0 0 -2.552734 -4.894531m-1.447 1.436v1.227a3 2.999985 0 0 1 1 2.232422 3 2.999985 0 0 1 -1 2.230469v1.229a4 3.99998 0 0 0 2 -3.458984 4 3.99998 0 0 0 -2 -3.458984m-8 1.459v4h1v-4z"
     class="ColorScheme-Text"
     id="path4" />
</svg>
